{"glyphs":{"0":{"ha":854,"x_min":58,"x_max":796,"o":"m 428 -14 q 152 119 246 -14 q 58 513 58 251 q 152 908 58 775 q 428 1042 246 1042 q 702 908 608 1042 q 796 513 796 775 q 702 119 796 251 q 428 -14 608 -14 m 428 133 q 572 223 526 133 q 618 513 618 313 q 572 803 618 713 q 428 894 525 894 q 282 803 328 894 q 236 513 236 713 q 282 224 236 314 q 428 133 328 133 z "},"1":{"ha":546,"x_min":17,"x_max":438,"o":"m 258 829 l 253 829 l 64 738 l 46 738 l 17 828 l 19 846 l 304 1028 l 438 1028 l 438 0 l 258 0 l 258 829 z "},"2":{"ha":710,"x_min":50,"x_max":650,"o":"m 50 154 q 65 273 50 221 q 113 370 81 325 q 192 454 144 415 q 304 532 239 493 q 382 585 350 560 q 434 635 414 610 q 463 689 454 661 q 472 749 472 717 q 430 857 472 822 q 296 892 388 892 q 197 883 250 892 q 92 860 144 875 l 75 1004 q 218 1032 153 1024 q 342 1040 283 1040 q 650 768 650 1040 q 596 583 650 661 q 428 433 542 506 q 337 367 374 396 q 278 310 300 338 q 246 256 256 283 q 236 197 236 229 l 236 149 l 647 149 l 647 0 l 50 0 l 50 154 z "},"3":{"ha":675,"x_min":58,"x_max":619,"o":"m 257 -12 q 157 -8 208 -12 q 61 6 106 -4 l 61 142 l 68 142 q 143 128 97 133 q 229 122 189 122 q 389 163 339 122 q 439 288 439 203 q 388 420 439 379 q 214 461 336 461 l 158 461 l 158 589 l 213 589 q 366 627 321 589 q 411 749 411 665 q 371 866 411 829 q 239 903 331 903 q 164 898 207 903 q 71 883 121 893 l 63 883 l 58 1019 q 156 1036 104 1031 q 257 1042 208 1042 q 592 779 592 1042 q 548 619 592 682 q 421 535 504 557 l 421 528 q 568 442 517 507 q 619 275 619 376 q 526 63 619 138 q 257 -12 432 -11 z "},"4":{"ha":785,"x_min":21,"x_max":754,"o":"m 21 331 l 21 338 l 356 1042 l 363 1042 l 532 1026 l 539 1015 l 204 367 l 204 360 l 463 360 l 507 674 l 636 674 l 636 360 l 754 360 l 754 225 l 636 225 l 636 0 l 458 0 l 458 225 l 46 225 l 21 331 z "},"5":{"ha":674,"x_min":60,"x_max":631,"o":"m 257 -17 q 165 -11 213 -17 q 60 6 118 -6 l 60 147 l 99 147 q 242 131 178 131 q 397 174 346 131 q 447 308 447 217 q 433 390 447 357 q 386 444 418 424 q 302 473 354 464 q 174 482 250 482 l 82 482 l 72 492 l 110 1028 l 575 1028 l 575 881 l 247 881 l 229 614 q 535 540 439 611 q 631 306 631 469 q 603 165 631 225 q 528 64 576 104 q 410 3 479 24 q 257 -17 342 -17 z "},"6":{"ha":799,"x_min":57,"x_max":758,"o":"m 414 -15 q 149 106 240 -15 q 57 460 57 226 q 174 894 57 744 q 517 1043 290 1043 q 700 1018 600 1043 l 682 879 q 596 896 633 890 q 522 901 558 901 q 319 817 389 901 q 235 560 250 733 q 335 622 278 600 q 454 643 392 643 q 580 622 524 643 q 676 560 636 600 q 737 465 715 521 q 758 338 758 408 q 734 192 758 257 q 665 81 710 126 q 557 10 621 35 q 414 -15 493 -15 m 414 517 q 314 494 365 517 q 231 435 263 471 q 278 201 233 275 q 414 128 322 128 q 538 181 494 128 q 582 335 582 235 q 414 517 582 517 z "},"7":{"ha":626,"x_min":26,"x_max":607,"o":"m 261 -24 l 114 0 l 114 24 l 426 876 l 32 876 l 26 1008 l 47 1028 l 582 1028 l 607 929 l 607 894 l 296 0 l 261 -24 z "},"8":{"ha":789,"x_min":56,"x_max":733,"o":"m 394 -6 q 143 63 231 -6 q 56 257 56 132 q 99 421 56 357 q 217 525 142 485 q 120 617 157 560 q 83 772 83 675 q 106 885 83 835 q 169 969 128 935 q 269 1022 211 1003 q 399 1040 328 1040 q 624 969 542 1040 q 706 772 706 899 q 673 629 706 683 q 572 535 640 575 q 637 495 607 518 q 688 442 667 472 q 722 372 710 413 q 733 279 733 332 q 646 69 733 144 q 394 -6 558 -6 m 343 471 q 256 394 290 439 q 221 278 221 350 q 268 156 221 199 q 394 114 315 114 q 521 153 475 114 q 567 265 567 193 q 552 342 567 310 q 510 397 538 374 q 446 435 483 419 q 361 465 408 451 l 343 471 m 243 763 q 258 694 243 722 q 298 644 272 665 q 360 609 324 624 q 442 582 397 594 q 519 655 490 611 q 547 768 547 699 q 507 879 547 842 q 394 917 467 917 q 283 877 324 917 q 243 763 243 838 z "},"9":{"ha":800,"x_min":42,"x_max":743,"o":"m 386 1043 q 651 922 560 1043 q 743 568 743 801 q 626 134 743 283 q 283 -15 510 -15 q 100 10 200 -15 l 118 149 q 204 132 167 138 q 278 126 242 126 q 481 210 411 126 q 565 468 550 294 q 465 406 522 428 q 346 385 408 385 q 220 406 276 385 q 124 466 164 426 q 63 563 85 506 q 42 690 42 619 q 66 836 42 771 q 135 947 90 901 q 243 1018 179 993 q 386 1043 307 1043 m 386 511 q 486 534 435 511 q 569 593 538 557 q 522 826 567 753 q 386 900 478 900 q 262 847 306 900 q 218 693 218 793 q 386 511 218 511 z "},"\u0000":{"ha":0,"x_min":0,"x_max":0,"o":""},"\r":{"ha":389,"x_min":0,"x_max":0,"o":""}," ":{"ha":271,"x_min":0,"x_max":0,"o":""},"Ǽ":{"ha":1174,"x_min":0,"x_max":1121,"o":"m 608 1110 l 706 1331 l 886 1331 l 738 1100 l 608 1110 m 0 10 l 349 1028 l 1107 1028 l 1107 879 l 711 879 l 728 592 l 1081 592 l 1081 443 l 736 443 l 753 149 l 1121 149 l 1121 0 l 579 0 l 568 272 l 272 272 l 181 0 l 0 0 l 0 10 m 324 422 l 561 422 l 543 890 l 483 890 l 324 422 z "},"Á":{"ha":878,"x_min":3,"x_max":874,"o":"m 3 10 l 306 1028 l 571 1028 l 874 10 l 874 0 l 703 0 l 619 275 l 256 275 l 174 0 l 3 0 l 3 10 m 582 419 l 492 726 l 446 892 l 431 892 l 385 726 l 293 419 l 582 419 m 368 1110 l 465 1331 l 646 1331 l 497 1100 l 368 1110 z "},"Ă":{"ha":878,"x_min":3,"x_max":874,"o":"m 3 10 l 306 1028 l 571 1028 l 874 10 l 874 0 l 703 0 l 619 275 l 256 275 l 174 0 l 3 0 l 3 10 m 582 419 l 492 726 l 446 892 l 431 892 l 385 726 l 293 419 l 582 419 m 440 1117 q 254 1178 315 1117 q 193 1343 193 1239 l 315 1343 q 344 1241 315 1274 q 440 1208 374 1208 q 533 1241 504 1208 q 563 1343 563 1274 l 686 1343 q 624 1178 686 1239 q 440 1117 563 1117 z "},"Â":{"ha":878,"x_min":3,"x_max":874,"o":"m 3 10 l 306 1028 l 571 1028 l 874 10 l 874 0 l 703 0 l 619 275 l 256 275 l 174 0 l 3 0 l 3 10 m 582 419 l 492 726 l 446 892 l 431 892 l 385 726 l 293 419 l 582 419 m 217 1240 l 440 1342 l 664 1240 l 664 1114 l 440 1215 l 217 1114 l 217 1240 z "},"Ȁ":{"ha":878,"x_min":3,"x_max":874,"o":"m 3 10 l 306 1028 l 571 1028 l 874 10 l 874 0 l 703 0 l 619 275 l 256 275 l 174 0 l 3 0 l 3 10 m 582 419 l 492 726 l 446 892 l 431 892 l 385 726 l 293 419 l 582 419 m 269 1099 l 121 1329 l 279 1329 l 376 1115 l 269 1099 m 511 1099 l 361 1329 l 521 1329 l 618 1115 l 511 1099 z "},"Ä":{"ha":878,"x_min":3,"x_max":874,"o":"m 3 10 l 306 1028 l 571 1028 l 874 10 l 874 0 l 703 0 l 619 275 l 256 275 l 174 0 l 3 0 l 3 10 m 582 419 l 492 726 l 446 892 l 431 892 l 385 726 l 293 419 l 582 419 m 272 1121 q 172 1219 172 1121 q 197 1295 172 1272 q 272 1318 221 1318 q 350 1295 325 1318 q 375 1219 375 1272 q 350 1144 375 1167 q 272 1121 325 1121 m 606 1121 q 504 1219 504 1121 q 528 1295 504 1272 q 606 1318 553 1318 q 682 1295 657 1318 q 707 1219 707 1272 q 682 1144 707 1167 q 606 1121 657 1121 z "},"À":{"ha":878,"x_min":3,"x_max":874,"o":"m 3 10 l 306 1028 l 571 1028 l 874 10 l 874 0 l 703 0 l 619 275 l 256 275 l 174 0 l 3 0 l 3 10 m 582 419 l 492 726 l 446 892 l 431 892 l 385 726 l 293 419 l 582 419 m 368 1100 l 219 1331 l 400 1331 l 497 1117 l 368 1100 z "},"Ȃ":{"ha":878,"x_min":3,"x_max":874,"o":"m 3 10 l 306 1028 l 571 1028 l 874 10 l 874 0 l 703 0 l 619 275 l 256 275 l 174 0 l 3 0 l 3 10 m 582 419 l 492 726 l 446 892 l 431 892 l 385 726 l 293 419 l 582 419 m 564 1129 q 535 1233 564 1200 q 440 1265 506 1265 q 345 1233 374 1265 q 317 1129 317 1200 l 193 1129 q 255 1294 193 1233 q 440 1356 317 1356 q 625 1294 563 1356 q 688 1129 688 1233 l 564 1129 z "},"Ā":{"ha":878,"x_min":3,"x_max":874,"o":"m 3 10 l 306 1028 l 571 1028 l 874 10 l 874 0 l 703 0 l 619 275 l 256 275 l 174 0 l 3 0 l 3 10 m 582 419 l 492 726 l 446 892 l 431 892 l 385 726 l 293 419 l 582 419 m 219 1288 l 650 1288 l 650 1167 l 219 1167 l 219 1288 z "},"Ą":{"ha":876,"x_min":3,"x_max":874,"o":"m 769 -306 q 608 -176 608 -306 q 638 -85 608 -128 q 729 0 667 -42 l 703 0 l 619 275 l 256 275 l 174 0 l 3 0 l 3 10 l 306 1028 l 571 1028 l 874 10 l 874 -17 q 760 -87 794 -49 q 726 -158 726 -125 q 782 -201 726 -201 q 828 -197 803 -201 q 874 -185 853 -192 l 874 -289 q 822 -301 847 -297 q 769 -306 797 -306 m 582 419 l 492 726 l 446 892 l 431 892 l 385 726 l 293 419 l 582 419 z "},"˛":{"ha":394,"x_min":60,"x_max":325,"o":"m 221 -306 q 60 -176 60 -306 q 89 -85 60 -128 q 181 0 118 -42 l 325 0 l 325 -17 q 212 -87 246 -49 q 178 -158 178 -125 q 233 -201 178 -201 q 279 -197 254 -201 q 325 -185 304 -192 l 325 -289 q 274 -301 299 -297 q 221 -306 249 -306 z "},"Å":{"ha":878,"x_min":3,"x_max":874,"o":"m 3 10 l 306 1028 l 571 1028 l 874 10 l 874 0 l 703 0 l 619 275 l 256 275 l 174 0 l 3 0 l 3 10 m 582 419 l 492 726 l 446 892 l 431 892 l 385 726 l 293 419 l 582 419 m 438 1046 q 322 1089 367 1046 q 278 1197 278 1132 q 290 1258 278 1231 q 322 1307 301 1286 q 372 1340 343 1328 q 438 1351 401 1351 q 501 1340 472 1351 q 551 1307 531 1328 q 584 1258 572 1286 q 596 1197 596 1231 q 552 1089 596 1132 q 438 1046 508 1046 m 438 1117 q 519 1197 519 1117 q 438 1281 519 1281 q 374 1259 393 1281 q 356 1197 356 1238 q 374 1138 356 1158 q 438 1117 393 1117 z "},"Ǻ":{"ha":876,"x_min":3,"x_max":874,"o":"m 3 10 l 279 919 q 236 1035 236 963 q 276 1153 236 1104 q 389 1214 317 1201 l 461 1364 l 642 1364 l 533 1197 q 612 1134 583 1176 q 640 1035 640 1092 q 628 972 640 1001 q 597 921 617 943 l 874 10 l 874 0 l 703 0 l 621 272 l 256 272 l 174 0 l 3 0 l 3 10 m 436 944 q 507 969 481 944 q 533 1035 533 994 q 507 1101 533 1075 q 436 1126 481 1126 q 367 1101 392 1126 q 343 1035 343 1075 q 368 969 343 994 q 436 944 393 944 m 581 422 l 493 726 l 460 847 l 417 847 l 383 726 l 294 422 l 581 422 z "},"Ã":{"ha":878,"x_min":3,"x_max":874,"o":"m 3 10 l 306 1028 l 571 1028 l 874 10 l 874 0 l 703 0 l 619 275 l 256 275 l 174 0 l 3 0 l 3 10 m 582 419 l 492 726 l 446 892 l 431 892 l 385 726 l 293 419 l 582 419 m 185 1176 q 269 1276 221 1242 q 363 1311 317 1311 q 419 1302 392 1311 q 472 1283 446 1293 q 524 1263 497 1272 q 578 1254 550 1254 q 682 1308 629 1254 l 717 1275 q 634 1174 682 1208 q 539 1139 586 1139 q 483 1147 510 1139 q 431 1166 457 1156 q 378 1185 404 1176 q 325 1193 353 1193 q 271 1181 297 1193 q 217 1142 244 1169 l 185 1176 z "},"B":{"ha":854,"x_min":96,"x_max":807,"o":"m 399 -14 q 247 -9 326 -14 q 96 7 167 -4 l 96 1021 q 258 1036 190 1031 q 390 1042 326 1042 q 684 973 592 1042 q 776 757 776 904 q 735 607 776 665 q 615 529 694 549 l 615 524 q 757 443 707 507 q 807 276 807 379 q 399 -14 807 -14 m 415 121 q 625 288 625 122 q 575 415 625 376 q 408 454 525 454 l 263 454 l 263 131 q 323 124 282 126 q 415 121 364 121 m 403 582 q 551 619 508 582 q 594 746 594 656 q 549 867 594 829 q 406 906 504 906 q 333 903 367 906 q 263 896 299 901 l 263 582 l 403 582 z "},"C":{"ha":738,"x_min":54,"x_max":694,"o":"m 501 -14 q 164 115 274 -12 q 54 513 54 243 q 163 913 54 786 q 496 1040 272 1040 q 590 1036 540 1040 q 694 1021 639 1032 l 694 876 q 602 888 646 885 q 521 892 558 892 q 389 873 443 892 q 301 810 335 854 q 253 694 268 767 q 238 513 238 621 q 253 335 238 407 q 302 219 268 263 q 389 156 336 175 q 517 136 442 136 q 605 141 554 136 q 694 154 656 146 l 694 11 q 606 -7 658 0 q 501 -14 554 -14 z "},"Ć":{"ha":738,"x_min":54,"x_max":694,"o":"m 501 -14 q 164 115 274 -12 q 54 513 54 243 q 163 913 54 786 q 496 1040 272 1040 q 590 1036 540 1040 q 694 1021 639 1032 l 694 876 q 602 888 646 885 q 521 892 558 892 q 389 873 443 892 q 301 810 335 854 q 253 694 268 767 q 238 513 238 621 q 253 335 238 407 q 302 219 268 263 q 389 156 336 175 q 517 136 442 136 q 605 141 554 136 q 694 154 656 146 l 694 11 q 606 -7 658 0 q 501 -14 554 -14 m 358 1110 l 456 1331 l 636 1331 l 488 1100 l 358 1110 z "},"Č":{"ha":738,"x_min":54,"x_max":694,"o":"m 501 -14 q 164 115 274 -12 q 54 513 54 243 q 163 913 54 786 q 496 1040 272 1040 q 590 1036 540 1040 q 694 1021 639 1032 l 694 876 q 602 888 646 885 q 521 892 558 892 q 389 873 443 892 q 301 810 335 854 q 253 694 268 767 q 238 513 238 621 q 253 335 238 407 q 302 219 268 263 q 389 156 336 175 q 517 136 442 136 q 605 141 554 136 q 694 154 656 146 l 694 11 q 606 -7 658 0 q 501 -14 554 -14 m 214 1332 l 438 1231 l 661 1332 l 661 1206 l 438 1104 l 214 1206 l 214 1332 z "},"Ç":{"ha":738,"x_min":54,"x_max":694,"o":"m 399 -306 q 344 -301 374 -306 q 282 -289 314 -297 l 282 -181 q 330 -191 306 -187 q 371 -194 354 -194 q 442 -131 442 -194 q 396 -6 442 -79 q 138 149 222 22 q 54 513 54 275 q 163 913 54 786 q 496 1040 272 1040 q 590 1036 540 1040 q 694 1021 639 1032 l 694 876 q 602 888 646 885 q 521 892 558 892 q 389 873 443 892 q 301 810 335 854 q 253 694 268 767 q 238 513 238 621 q 253 335 238 407 q 302 219 268 263 q 389 156 336 175 q 517 136 442 136 q 605 141 554 136 q 694 154 656 146 l 694 11 q 613 -6 660 0 q 515 -14 565 -12 q 551 -87 540 -54 q 561 -156 561 -119 q 519 -266 561 -226 q 399 -306 478 -306 z "},"¸":{"ha":385,"x_min":39,"x_max":318,"o":"m 156 -306 q 101 -301 131 -306 q 39 -289 71 -297 l 39 -181 q 87 -191 63 -187 q 128 -194 111 -194 q 199 -131 199 -194 q 121 42 199 -64 l 235 42 q 299 -65 281 -21 q 318 -156 318 -108 q 276 -266 318 -226 q 156 -306 235 -306 z "},"Ĉ":{"ha":738,"x_min":54,"x_max":694,"o":"m 501 -14 q 164 115 274 -12 q 54 513 54 243 q 163 913 54 786 q 496 1040 272 1040 q 590 1036 540 1040 q 694 1021 639 1032 l 694 876 q 602 888 646 885 q 521 892 558 892 q 389 873 443 892 q 301 810 335 854 q 253 694 268 767 q 238 513 238 621 q 253 335 238 407 q 302 219 268 263 q 389 156 336 175 q 517 136 442 136 q 605 141 554 136 q 694 154 656 146 l 694 11 q 606 -7 658 0 q 501 -14 554 -14 m 207 1240 l 431 1342 l 654 1240 l 654 1114 l 431 1215 l 207 1114 l 207 1240 z "},"Ċ":{"ha":738,"x_min":54,"x_max":694,"o":"m 436 1113 q 335 1211 335 1113 q 359 1288 335 1264 q 436 1311 383 1311 q 513 1288 488 1311 q 538 1211 538 1264 q 436 1113 538 1113 m 501 -14 q 164 115 274 -12 q 54 513 54 243 q 163 913 54 786 q 496 1040 272 1040 q 590 1036 540 1040 q 694 1021 639 1032 l 694 876 q 602 888 646 885 q 521 892 558 892 q 389 873 443 892 q 301 810 335 854 q 253 694 268 767 q 238 513 238 621 q 253 335 238 407 q 302 219 268 263 q 389 156 336 175 q 517 136 442 136 q 605 141 554 136 q 694 154 656 146 l 694 11 q 606 -7 658 0 q 501 -14 554 -14 z "},"D":{"ha":917,"x_min":96,"x_max":864,"o":"m 332 -18 q 215 -15 274 -18 q 96 -3 157 -11 l 96 1024 q 246 1037 181 1032 q 364 1042 311 1042 q 591 1011 496 1042 q 747 917 686 981 q 835 752 807 853 q 864 513 864 651 q 834 271 864 371 q 740 106 804 171 q 575 12 676 42 q 332 -18 474 -18 m 392 128 q 524 148 469 128 q 614 214 579 168 q 665 333 649 260 q 681 513 681 407 q 665 691 681 618 q 615 810 650 764 q 525 876 581 856 q 390 896 469 896 q 331 894 360 896 q 272 886 301 892 l 272 136 q 336 130 308 132 q 392 128 364 128 z "},"Ď":{"ha":917,"x_min":96,"x_max":864,"o":"m 213 1332 l 436 1231 l 660 1332 l 660 1206 l 436 1104 l 213 1206 l 213 1332 m 332 -18 q 215 -15 274 -18 q 96 -3 157 -11 l 96 1024 q 246 1037 181 1032 q 364 1042 311 1042 q 591 1011 496 1042 q 747 917 686 981 q 835 752 807 853 q 864 513 864 651 q 834 271 864 371 q 740 106 804 171 q 575 12 676 42 q 332 -18 474 -18 m 392 128 q 524 148 469 128 q 614 214 579 168 q 665 333 649 260 q 681 513 681 407 q 665 691 681 618 q 615 810 650 764 q 525 876 581 856 q 390 896 469 896 q 331 894 360 896 q 272 886 301 892 l 272 136 q 336 130 308 132 q 392 128 364 128 z "},"Đ":{"ha":943,"x_min":0,"x_max":889,"o":"m 0 585 l 121 585 l 121 1024 q 271 1037 206 1032 q 389 1042 336 1042 q 616 1011 521 1042 q 772 917 711 981 q 860 752 832 853 q 889 513 889 651 q 859 271 889 371 q 765 106 829 171 q 600 12 701 42 q 357 -18 499 -18 q 240 -15 299 -18 q 121 -3 182 -11 l 121 447 l 0 447 l 0 585 m 417 128 q 549 148 494 128 q 639 214 604 168 q 690 333 674 260 q 706 513 706 407 q 690 691 706 618 q 640 810 675 764 q 550 876 606 856 q 415 896 494 896 q 356 894 385 896 q 297 886 326 892 l 297 585 l 469 585 l 469 447 l 297 447 l 297 136 q 361 130 333 132 q 417 128 389 128 z "},"Ḍ":{"ha":917,"x_min":96,"x_max":864,"o":"m 438 -269 q 373 -250 393 -269 q 353 -186 353 -231 q 373 -123 353 -142 q 438 -104 393 -104 q 502 -123 482 -104 q 522 -186 522 -142 q 502 -250 522 -231 q 438 -269 482 -269 m 332 -18 q 215 -15 274 -18 q 96 -3 157 -11 l 96 1024 q 246 1037 181 1032 q 364 1042 311 1042 q 591 1011 496 1042 q 747 917 686 981 q 835 752 807 853 q 864 513 864 651 q 834 271 864 371 q 740 106 804 171 q 575 12 676 42 q 332 -18 474 -18 m 392 128 q 524 148 469 128 q 614 214 579 168 q 665 333 649 260 q 681 513 681 407 q 665 691 681 618 q 615 810 650 764 q 525 876 581 856 q 390 896 469 896 q 331 894 360 896 q 272 886 301 892 l 272 136 q 336 130 308 132 q 392 128 364 128 z "},"∆":{"ha":974,"x_min":28,"x_max":946,"o":"m 375 1028 l 599 1028 l 946 0 l 28 0 l 375 1028 m 732 147 l 486 872 l 242 147 l 732 147 z "},"E":{"ha":783,"x_min":96,"x_max":735,"o":"m 96 1028 l 722 1028 l 722 879 l 274 879 l 274 592 l 678 592 l 678 443 l 274 443 l 274 149 l 735 149 l 735 0 l 96 0 l 96 1028 z "},"É":{"ha":783,"x_min":96,"x_max":735,"o":"m 338 1110 l 435 1331 l 615 1331 l 467 1100 l 338 1110 m 96 1028 l 722 1028 l 722 879 l 274 879 l 274 592 l 678 592 l 678 443 l 274 443 l 274 149 l 735 149 l 735 0 l 96 0 l 96 1028 z "},"Ĕ":{"ha":783,"x_min":96,"x_max":735,"o":"m 411 1117 q 225 1178 286 1117 q 164 1343 164 1239 l 286 1343 q 315 1241 286 1274 q 411 1208 344 1208 q 504 1241 475 1208 q 533 1343 533 1274 l 657 1343 q 595 1178 657 1239 q 411 1117 533 1117 m 96 1028 l 722 1028 l 722 879 l 274 879 l 274 592 l 678 592 l 678 443 l 274 443 l 274 149 l 735 149 l 735 0 l 96 0 l 96 1028 z "},"Ě":{"ha":783,"x_min":96,"x_max":735,"o":"m 194 1332 l 418 1231 l 642 1332 l 642 1206 l 418 1104 l 194 1206 l 194 1332 m 96 1028 l 722 1028 l 722 879 l 274 879 l 274 592 l 678 592 l 678 443 l 274 443 l 274 149 l 735 149 l 735 0 l 96 0 l 96 1028 z "},"Ê":{"ha":783,"x_min":96,"x_max":735,"o":"m 96 1028 l 722 1028 l 722 879 l 274 879 l 274 592 l 678 592 l 678 443 l 274 443 l 274 149 l 735 149 l 735 0 l 96 0 l 96 1028 m 192 1240 l 415 1342 l 639 1240 l 639 1114 l 415 1215 l 192 1114 l 192 1240 z "},"Ȅ":{"ha":783,"x_min":94,"x_max":735,"o":"m 96 1028 l 722 1028 l 722 879 l 274 879 l 274 592 l 678 592 l 678 443 l 274 443 l 274 149 l 735 149 l 735 0 l 96 0 l 96 1028 m 243 1099 l 94 1329 l 253 1329 l 350 1115 l 243 1099 m 485 1099 l 335 1329 l 494 1329 l 592 1115 l 485 1099 z "},"Ë":{"ha":783,"x_min":96,"x_max":735,"o":"m 246 1121 q 146 1219 146 1121 q 170 1295 146 1272 q 246 1318 194 1318 q 324 1295 299 1318 q 349 1219 349 1272 q 324 1144 349 1167 q 246 1121 299 1121 m 579 1121 q 478 1219 478 1121 q 502 1295 478 1272 q 579 1318 526 1318 q 656 1295 631 1318 q 681 1219 681 1272 q 656 1144 681 1167 q 579 1121 631 1121 m 96 1028 l 722 1028 l 722 879 l 274 879 l 274 592 l 678 592 l 678 443 l 274 443 l 274 149 l 735 149 l 735 0 l 96 0 l 96 1028 z "},"Ė":{"ha":783,"x_min":96,"x_max":735,"o":"m 410 1113 q 308 1211 308 1113 q 333 1288 308 1264 q 410 1311 357 1311 q 486 1288 461 1311 q 511 1211 511 1264 q 410 1113 511 1113 m 96 1028 l 722 1028 l 722 879 l 274 879 l 274 592 l 678 592 l 678 443 l 274 443 l 274 149 l 735 149 l 735 0 l 96 0 l 96 1028 z "},"Ẹ":{"ha":783,"x_min":96,"x_max":735,"o":"m 96 1028 l 722 1028 l 722 879 l 274 879 l 274 592 l 678 592 l 678 443 l 274 443 l 274 149 l 735 149 l 735 0 l 96 0 l 96 1028 m 429 -269 q 365 -250 385 -269 q 344 -186 344 -231 q 365 -123 344 -142 q 429 -104 385 -104 q 494 -123 474 -104 q 514 -186 514 -142 q 494 -250 514 -231 q 429 -269 474 -269 z "},"È":{"ha":783,"x_min":96,"x_max":735,"o":"m 350 1100 l 201 1331 l 382 1331 l 479 1117 l 350 1100 m 96 1028 l 722 1028 l 722 879 l 274 879 l 274 592 l 678 592 l 678 443 l 274 443 l 274 149 l 735 149 l 735 0 l 96 0 l 96 1028 z "},"Ȇ":{"ha":783,"x_min":96,"x_max":735,"o":"m 96 1028 l 722 1028 l 722 879 l 274 879 l 274 592 l 678 592 l 678 443 l 274 443 l 274 149 l 735 149 l 735 0 l 96 0 l 96 1028 m 536 1129 q 507 1233 536 1200 q 413 1265 478 1265 q 317 1233 346 1265 q 289 1129 289 1200 l 165 1129 q 227 1294 165 1233 q 413 1356 289 1356 q 597 1294 535 1356 q 660 1129 660 1233 l 536 1129 z "},"Ē":{"ha":783,"x_min":96,"x_max":735,"o":"m 192 1288 l 622 1288 l 622 1167 l 192 1167 l 192 1288 m 96 1028 l 722 1028 l 722 879 l 274 879 l 274 592 l 678 592 l 678 443 l 274 443 l 274 149 l 735 149 l 735 0 l 96 0 l 96 1028 z "},"Ŋ":{"ha":986,"x_min":96,"x_max":893,"o":"m 618 -236 q 707 54 686 -82 l 333 615 l 267 735 l 256 735 l 256 0 l 96 0 l 96 1028 l 244 1028 l 657 410 l 721 294 l 732 294 l 732 1028 l 893 1028 l 893 135 q 881 49 893 99 q 849 -57 869 -1 q 799 -169 828 -112 q 738 -275 771 -225 l 618 -236 z "},"Ę":{"ha":783,"x_min":96,"x_max":735,"o":"m 96 1028 l 722 1028 l 722 879 l 274 879 l 274 592 l 678 592 l 678 443 l 274 443 l 274 149 l 735 149 l 735 0 l 733 0 l 733 -17 q 620 -87 654 -49 q 586 -158 586 -125 q 642 -201 586 -201 q 688 -197 663 -201 q 733 -185 713 -192 l 733 -289 q 682 -301 707 -297 q 629 -306 657 -306 q 468 -176 468 -306 q 497 -85 468 -128 q 589 0 526 -42 l 96 0 l 96 1028 z "},"Ð":{"ha":943,"x_min":0,"x_max":889,"o":"m 0 585 l 121 585 l 121 1024 q 271 1037 206 1032 q 389 1042 336 1042 q 616 1011 521 1042 q 772 917 711 981 q 860 752 832 853 q 889 513 889 651 q 859 271 889 371 q 765 106 829 171 q 600 12 701 42 q 357 -18 499 -18 q 240 -15 299 -18 q 121 -3 182 -11 l 121 447 l 0 447 l 0 585 m 417 128 q 549 148 494 128 q 639 214 604 168 q 690 333 674 260 q 706 513 706 407 q 690 691 706 618 q 640 810 675 764 q 550 876 606 856 q 415 896 494 896 q 356 894 385 896 q 297 886 326 892 l 297 585 l 469 585 l 469 447 l 297 447 l 297 136 q 361 130 333 132 q 417 128 389 128 z "},"Ẽ":{"ha":783,"x_min":96,"x_max":735,"o":"m 156 1176 q 240 1276 192 1242 q 333 1311 288 1311 q 390 1302 363 1311 q 442 1283 417 1293 q 494 1263 468 1272 q 549 1254 521 1254 q 653 1308 600 1254 l 688 1275 q 605 1174 653 1208 q 510 1139 557 1139 q 454 1147 481 1139 q 401 1166 428 1156 q 349 1185 375 1176 q 296 1193 324 1193 q 242 1181 268 1193 q 188 1142 215 1169 l 156 1176 m 96 1028 l 722 1028 l 722 879 l 274 879 l 274 592 l 678 592 l 678 443 l 274 443 l 274 149 l 735 149 l 735 0 l 96 0 l 96 1028 z "},"€":{"ha":819,"x_min":47,"x_max":771,"o":"m 47 682 l 161 682 q 305 953 193 865 q 617 1040 417 1040 q 703 1035 665 1040 q 771 1022 740 1031 l 732 881 q 688 885 710 883 q 642 888 665 888 q 522 877 572 888 q 435 842 471 867 q 376 778 399 818 q 343 682 354 739 l 671 682 l 644 578 l 331 578 q 329 546 329 563 q 329 513 329 529 q 329 480 329 496 q 331 449 329 464 l 625 449 l 599 344 l 343 344 q 435 185 365 232 q 640 138 504 138 q 700 141 669 138 q 761 151 731 144 l 761 3 q 619 -14 707 -14 q 307 75 419 -12 q 163 344 194 163 l 47 344 l 47 449 l 150 449 q 149 480 149 464 q 149 513 149 496 q 149 546 149 529 q 150 578 149 563 l 47 578 l 47 682 z "},"F":{"ha":744,"x_min":96,"x_max":707,"o":"m 96 1028 l 707 1028 l 707 879 l 274 879 l 274 575 l 668 575 l 668 426 l 274 426 l 274 0 l 96 0 l 96 1028 z "},"G":{"ha":847,"x_min":53,"x_max":778,"o":"m 503 -14 q 163 116 272 -12 q 53 513 53 244 q 170 912 53 783 q 533 1040 288 1040 q 648 1033 586 1040 q 768 1013 710 1026 l 768 867 q 647 886 700 881 q 550 892 594 892 q 403 872 463 892 q 306 807 343 851 q 253 690 269 763 q 238 513 238 617 q 252 337 238 408 q 300 221 267 265 q 387 156 333 176 q 518 136 440 136 q 564 138 539 136 q 615 142 589 139 l 615 522 l 778 522 l 778 17 q 503 -14 617 -14 z "},"Ǵ":{"ha":847,"x_min":53,"x_max":778,"o":"m 404 1110 l 501 1331 l 682 1331 l 533 1100 l 404 1110 m 503 -14 q 163 116 272 -12 q 53 513 53 244 q 170 912 53 783 q 533 1040 288 1040 q 648 1033 586 1040 q 768 1013 710 1026 l 768 867 q 647 886 700 881 q 550 892 594 892 q 403 872 463 892 q 306 807 343 851 q 253 690 269 763 q 238 513 238 617 q 252 337 238 408 q 300 221 267 265 q 387 156 333 176 q 518 136 440 136 q 564 138 539 136 q 615 142 589 139 l 615 522 l 778 522 l 778 17 q 503 -14 617 -14 z "},"Ğ":{"ha":847,"x_min":53,"x_max":778,"o":"m 482 1117 q 296 1178 357 1117 q 235 1343 235 1239 l 357 1343 q 386 1241 357 1274 q 482 1208 415 1208 q 575 1241 546 1208 q 604 1343 604 1274 l 728 1343 q 666 1178 728 1239 q 482 1117 604 1117 m 503 -14 q 163 116 272 -12 q 53 513 53 244 q 170 912 53 783 q 533 1040 288 1040 q 648 1033 586 1040 q 768 1013 710 1026 l 768 867 q 647 886 700 881 q 550 892 594 892 q 403 872 463 892 q 306 807 343 851 q 253 690 269 763 q 238 513 238 617 q 252 337 238 408 q 300 221 267 265 q 387 156 333 176 q 518 136 440 136 q 564 138 539 136 q 615 142 589 139 l 615 522 l 778 522 l 778 17 q 503 -14 617 -14 z "},"Ĝ":{"ha":847,"x_min":53,"x_max":778,"o":"m 503 -14 q 163 116 272 -12 q 53 513 53 244 q 170 912 53 783 q 533 1040 288 1040 q 648 1033 586 1040 q 768 1013 710 1026 l 768 867 q 647 886 700 881 q 550 892 594 892 q 403 872 463 892 q 306 807 343 851 q 253 690 269 763 q 238 513 238 617 q 252 337 238 408 q 300 221 267 265 q 387 156 333 176 q 518 136 440 136 q 564 138 539 136 q 615 142 589 139 l 615 522 l 778 522 l 778 17 q 503 -14 617 -14 m 254 1240 l 478 1342 l 701 1240 l 701 1114 l 478 1215 l 254 1114 l 254 1240 z "},"Ģ":{"ha":847,"x_min":53,"x_max":778,"o":"m 403 -96 l 582 -96 l 475 -306 l 340 -306 l 403 -96 m 503 -14 q 163 116 272 -12 q 53 513 53 244 q 170 912 53 783 q 533 1040 288 1040 q 648 1033 586 1040 q 768 1013 710 1026 l 768 867 q 647 886 700 881 q 550 892 594 892 q 403 872 463 892 q 306 807 343 851 q 253 690 269 763 q 238 513 238 617 q 252 337 238 408 q 300 221 267 265 q 387 156 333 176 q 518 136 440 136 q 564 138 539 136 q 615 142 589 139 l 615 522 l 778 522 l 778 17 q 503 -14 617 -14 z "},"":{"ha":342,"x_min":56,"x_max":297,"o":"m 118 -96 l 297 -96 l 190 -306 l 56 -306 l 118 -96 z "},"Ġ":{"ha":847,"x_min":53,"x_max":778,"o":"m 481 1113 q 379 1211 379 1113 q 403 1288 379 1264 q 481 1311 428 1311 q 557 1288 532 1311 q 582 1211 582 1264 q 481 1113 582 1113 m 503 -14 q 163 116 272 -12 q 53 513 53 244 q 170 912 53 783 q 533 1040 288 1040 q 648 1033 586 1040 q 768 1013 710 1026 l 768 867 q 647 886 700 881 q 550 892 594 892 q 403 872 463 892 q 306 807 343 851 q 253 690 269 763 q 238 513 238 617 q 252 337 238 408 q 300 221 267 265 q 387 156 333 176 q 518 136 440 136 q 564 138 539 136 q 615 142 589 139 l 615 522 l 778 522 l 778 17 q 503 -14 617 -14 z "},"H":{"ha":971,"x_min":96,"x_max":875,"o":"m 96 1028 l 274 1028 l 274 600 l 697 600 l 697 1028 l 875 1028 l 875 0 l 697 0 l 697 451 l 274 451 l 274 0 l 96 0 l 96 1028 z "},"Ħ":{"ha":1006,"x_min":1,"x_max":1010,"o":"m 1 840 l 113 840 l 113 1028 l 290 1028 l 290 840 l 714 840 l 714 1028 l 892 1028 l 892 840 l 1010 840 l 1010 753 l 892 753 l 892 0 l 714 0 l 714 451 l 290 451 l 290 0 l 113 0 l 113 753 l 1 753 l 1 840 m 714 600 l 714 753 l 290 753 l 290 600 l 714 600 z "},"Ĥ":{"ha":971,"x_min":96,"x_max":875,"o":"m 96 1028 l 274 1028 l 274 600 l 697 600 l 697 1028 l 875 1028 l 875 0 l 697 0 l 697 451 l 274 451 l 274 0 l 96 0 l 96 1028 m 256 1240 l 479 1342 l 703 1240 l 703 1114 l 479 1215 l 256 1114 l 256 1240 z "},"Ḥ":{"ha":971,"x_min":96,"x_max":875,"o":"m 96 1028 l 274 1028 l 274 600 l 697 600 l 697 1028 l 875 1028 l 875 0 l 697 0 l 697 451 l 274 451 l 274 0 l 96 0 l 96 1028 m 490 -269 q 426 -250 446 -269 q 406 -186 406 -231 q 426 -123 406 -142 q 490 -104 446 -104 q 555 -123 535 -104 q 575 -186 575 -142 q 555 -250 575 -231 q 490 -269 535 -269 z "},"I":{"ha":369,"x_min":96,"x_max":274,"o":"m 96 1028 l 274 1028 l 274 0 l 96 0 l 96 1028 z "},"Ĳ":{"ha":740,"x_min":96,"x_max":647,"o":"m 96 1028 l 274 1028 l 274 0 l 96 0 l 96 1028 m 358 -221 q 411 -92 390 -150 q 444 22 432 -33 q 463 135 457 76 q 468 264 468 193 l 468 1028 l 647 1028 l 647 251 q 638 119 647 182 q 608 -7 629 56 q 554 -135 588 -69 q 474 -275 521 -200 l 358 -221 z "},"J":{"ha":369,"x_min":-11,"x_max":278,"o":"m -11 -221 q 42 -92 21 -150 q 75 22 63 -33 q 93 135 88 76 q 99 264 99 193 l 99 1028 l 278 1028 l 278 251 q 269 119 278 182 q 239 -7 260 56 q 185 -135 218 -69 q 104 -275 151 -200 l -11 -221 z "},"Í":{"ha":369,"x_min":96,"x_max":393,"o":"m 96 1028 l 274 1028 l 274 0 l 96 0 l 96 1028 m 115 1110 l 213 1331 l 393 1331 l 244 1100 l 115 1110 z "},"Ĭ":{"ha":369,"x_min":-60,"x_max":433,"o":"m 96 1028 l 274 1028 l 274 0 l 96 0 l 96 1028 m 188 1117 q 1 1178 63 1117 q -60 1343 -60 1239 l 63 1343 q 92 1241 63 1274 q 188 1208 121 1208 q 281 1241 251 1208 q 310 1343 310 1274 l 433 1343 q 372 1178 433 1239 q 188 1117 310 1117 z "},"Î":{"ha":369,"x_min":-36,"x_max":411,"o":"m 96 1028 l 274 1028 l 274 0 l 96 0 l 96 1028 m -36 1240 l 188 1342 l 411 1240 l 411 1114 l 188 1215 l -36 1114 l -36 1240 z "},"Ȉ":{"ha":369,"x_min":-125,"x_max":372,"o":"m 96 1028 l 274 1028 l 274 0 l 96 0 l 96 1028 m 24 1099 l -125 1329 l 33 1329 l 131 1115 l 24 1099 m 265 1099 l 115 1329 l 275 1329 l 372 1115 l 265 1099 z "},"Ï":{"ha":369,"x_min":-81,"x_max":454,"o":"m 96 1028 l 274 1028 l 274 0 l 96 0 l 96 1028 m 19 1121 q -81 1219 -81 1121 q -56 1295 -81 1272 q 19 1318 -32 1318 q 97 1295 72 1318 q 122 1219 122 1272 q 97 1144 122 1167 q 19 1121 72 1121 m 353 1121 q 251 1219 251 1121 q 276 1295 251 1272 q 353 1318 300 1318 q 429 1295 404 1318 q 454 1219 454 1272 q 429 1144 454 1167 q 353 1121 404 1121 z "},"İ":{"ha":369,"x_min":86,"x_max":289,"o":"m 96 1028 l 274 1028 l 274 0 l 96 0 l 96 1028 m 188 1113 q 86 1211 86 1113 q 110 1288 86 1264 q 188 1311 135 1311 q 264 1288 239 1311 q 289 1211 289 1264 q 188 1113 289 1113 z "},"Ị":{"ha":369,"x_min":96,"x_max":274,"o":"m 96 1028 l 274 1028 l 274 0 l 96 0 l 96 1028 m 186 -269 q 122 -250 142 -269 q 101 -186 101 -231 q 122 -123 101 -142 q 186 -104 142 -104 q 251 -123 231 -104 q 271 -186 271 -142 q 251 -250 271 -231 q 186 -269 231 -269 z "},"Ì":{"ha":369,"x_min":-25,"x_max":274,"o":"m 96 1028 l 274 1028 l 274 0 l 96 0 l 96 1028 m 124 1100 l -25 1331 l 156 1331 l 253 1117 l 124 1100 z "},"Ȋ":{"ha":369,"x_min":-60,"x_max":435,"o":"m 96 1028 l 274 1028 l 274 0 l 96 0 l 96 1028 m 311 1129 q 282 1233 311 1200 q 188 1265 253 1265 q 92 1233 121 1265 q 64 1129 64 1200 l -60 1129 q 2 1294 -60 1233 q 188 1356 64 1356 q 372 1294 310 1356 q 435 1129 435 1233 l 311 1129 z "},"Ī":{"ha":369,"x_min":-32,"x_max":399,"o":"m 96 1028 l 274 1028 l 274 0 l 96 0 l 96 1028 m -32 1288 l 399 1288 l 399 1167 l -32 1167 l -32 1288 z "},"Į":{"ha":369,"x_min":8,"x_max":274,"o":"m 96 1028 l 274 1028 l 274 -17 q 160 -87 194 -49 q 126 -158 126 -125 q 182 -201 126 -201 q 228 -197 203 -201 q 274 -185 253 -192 l 274 -289 q 222 -301 247 -297 q 169 -306 197 -306 q 8 -176 8 -306 q 38 -85 8 -128 q 129 0 67 -42 l 96 0 l 96 1028 z "},"Ĩ":{"ha":369,"x_min":-68,"x_max":464,"o":"m 96 1028 l 274 1028 l 274 0 l 96 0 l 96 1028 m -68 1176 q 16 1276 -32 1242 q 110 1311 64 1311 q 166 1302 139 1311 q 219 1283 193 1293 q 271 1263 244 1272 q 325 1254 297 1254 q 429 1308 376 1254 l 464 1275 q 381 1174 429 1208 q 286 1139 333 1139 q 231 1147 257 1139 q 178 1166 204 1156 q 126 1185 151 1176 q 72 1193 100 1193 q 18 1181 44 1193 q -36 1142 -8 1169 l -68 1176 z "},"Ĵ":{"ha":369,"x_min":-35,"x_max":413,"o":"m -11 -221 q 42 -92 21 -150 q 75 22 63 -33 q 93 135 88 76 q 99 264 99 193 l 99 1028 l 278 1028 l 278 251 q 269 119 278 182 q 239 -7 260 56 q 185 -135 218 -69 q 104 -275 151 -200 l -11 -221 m -35 1240 l 189 1342 l 413 1240 l 413 1114 l 189 1215 l -35 1114 l -35 1240 z "},"K":{"ha":876,"x_min":96,"x_max":881,"o":"m 96 1028 l 274 1028 l 274 597 l 401 597 l 653 1028 l 853 1028 l 579 568 l 518 531 l 518 522 l 582 486 l 881 0 l 679 0 l 406 449 l 274 449 l 274 0 l 96 0 l 96 1028 z "},"Ķ":{"ha":876,"x_min":96,"x_max":881,"o":"m 360 -96 l 539 -96 l 432 -306 l 297 -306 l 360 -96 m 96 1028 l 274 1028 l 274 597 l 401 597 l 653 1028 l 853 1028 l 579 568 l 518 531 l 518 522 l 582 486 l 881 0 l 679 0 l 406 449 l 274 449 l 274 0 l 96 0 l 96 1028 z "},"L":{"ha":663,"x_min":96,"x_max":646,"o":"m 96 1028 l 274 1028 l 274 147 l 646 147 l 646 0 l 96 0 l 96 1028 z "},"Ĺ":{"ha":663,"x_min":96,"x_max":646,"o":"m 125 1110 l 222 1331 l 403 1331 l 254 1100 l 125 1110 m 96 1028 l 274 1028 l 274 147 l 646 147 l 646 0 l 96 0 l 96 1028 z "},"Ľ":{"ha":693,"x_min":96,"x_max":656,"o":"m 514 1079 l 656 1079 l 606 763 l 514 763 l 514 1079 m 96 1028 l 274 1028 l 274 147 l 646 147 l 646 0 l 96 0 l 96 1028 z "},"Ļ":{"ha":663,"x_min":96,"x_max":646,"o":"m 286 -96 l 465 -96 l 358 -306 l 224 -306 l 286 -96 m 96 1028 l 274 1028 l 274 147 l 646 147 l 646 0 l 96 0 l 96 1028 z "},"Ŀ":{"ha":681,"x_min":96,"x_max":646,"o":"m 96 1028 l 274 1028 l 274 147 l 646 147 l 646 0 l 96 0 l 96 1028 m 533 422 q 456 445 481 422 q 432 521 432 468 q 456 597 432 574 q 533 621 481 621 q 610 597 586 621 q 635 521 635 574 q 610 445 635 468 q 533 422 586 422 z "},"·":{"ha":331,"x_min":63,"x_max":265,"o":"m 164 415 q 87 438 111 415 q 63 514 63 461 q 87 590 63 567 q 164 614 111 614 q 241 590 217 614 q 265 514 265 567 q 241 438 265 461 q 164 415 217 415 z "},"Ł":{"ha":690,"x_min":14,"x_max":674,"o":"m 14 450 l 124 519 l 124 1028 l 301 1028 l 301 632 l 461 733 l 461 594 l 301 493 l 301 147 l 674 147 l 674 0 l 124 0 l 124 381 l 14 311 l 14 450 z "},"M":{"ha":1225,"x_min":96,"x_max":1129,"o":"m 96 1028 l 344 1028 l 558 439 l 607 263 l 617 263 l 665 439 l 879 1028 l 1129 1028 l 1129 0 l 963 0 l 963 799 l 954 799 l 889 597 l 689 47 l 533 47 l 333 597 l 267 799 l 258 799 l 258 0 l 96 0 l 96 1028 z "},"N":{"ha":989,"x_min":96,"x_max":893,"o":"m 96 1028 l 247 1028 l 658 411 l 722 297 l 733 297 l 733 1028 l 893 1028 l 893 0 l 742 0 l 332 615 l 265 732 l 254 732 l 254 0 l 96 0 l 96 1028 z "},"A":{"ha":878,"x_min":3,"x_max":874,"o":"m 3 10 l 306 1028 l 571 1028 l 874 10 l 874 0 l 703 0 l 619 275 l 256 275 l 174 0 l 3 0 l 3 10 m 582 419 l 492 726 l 446 892 l 431 892 l 385 726 l 293 419 l 582 419 z "},"Ń":{"ha":989,"x_min":96,"x_max":893,"o":"m 413 1110 l 510 1331 l 690 1331 l 542 1100 l 413 1110 m 96 1028 l 247 1028 l 658 411 l 722 297 l 733 297 l 733 1028 l 893 1028 l 893 0 l 742 0 l 332 615 l 265 732 l 254 732 l 254 0 l 96 0 l 96 1028 z "},"Ň":{"ha":989,"x_min":96,"x_max":893,"o":"m 275 1332 l 499 1231 l 722 1332 l 722 1206 l 499 1104 l 275 1206 l 275 1332 m 96 1028 l 247 1028 l 658 411 l 722 297 l 733 297 l 733 1028 l 893 1028 l 893 0 l 742 0 l 332 615 l 265 732 l 254 732 l 254 0 l 96 0 l 96 1028 z "},"Ņ":{"ha":989,"x_min":96,"x_max":893,"o":"m 429 -96 l 608 -96 l 501 -306 l 367 -306 l 429 -96 m 96 1028 l 247 1028 l 658 411 l 722 297 l 733 297 l 733 1028 l 893 1028 l 893 0 l 742 0 l 332 615 l 265 732 l 254 732 l 254 0 l 96 0 l 96 1028 z "},"Ṅ":{"ha":989,"x_min":96,"x_max":893,"o":"m 492 1113 q 390 1211 390 1113 q 415 1288 390 1264 q 492 1311 439 1311 q 568 1288 543 1311 q 593 1211 593 1264 q 492 1113 593 1113 m 96 1028 l 247 1028 l 658 411 l 722 297 l 733 297 l 733 1028 l 893 1028 l 893 0 l 742 0 l 332 615 l 265 732 l 254 732 l 254 0 l 96 0 l 96 1028 z "},"Ñ":{"ha":989,"x_min":96,"x_max":893,"o":"m 235 1176 q 319 1276 271 1242 q 413 1311 367 1311 q 469 1302 442 1311 q 522 1283 496 1293 q 574 1263 547 1272 q 628 1254 600 1254 q 732 1308 679 1254 l 767 1275 q 684 1174 732 1208 q 589 1139 636 1139 q 533 1147 560 1139 q 481 1166 507 1156 q 428 1185 454 1176 q 375 1193 403 1193 q 321 1181 347 1193 q 267 1142 294 1169 l 235 1176 m 96 1028 l 247 1028 l 658 411 l 722 297 l 733 297 l 733 1028 l 893 1028 l 893 0 l 742 0 l 332 615 l 265 732 l 254 732 l 254 0 l 96 0 l 96 1028 z "},"O":{"ha":954,"x_min":54,"x_max":900,"o":"m 476 -14 q 54 513 54 -14 q 476 1042 54 1042 q 900 513 900 1042 q 476 -14 900 -14 m 476 135 q 586 156 540 135 q 661 222 632 176 q 704 338 690 267 q 718 513 718 410 q 661 806 718 717 q 476 894 604 894 q 367 873 413 894 q 292 806 321 851 q 249 688 263 760 q 236 513 236 615 q 249 340 236 411 q 292 222 263 268 q 367 156 321 176 q 476 135 413 135 z "},"Œ":{"ha":1282,"x_min":53,"x_max":1229,"o":"m 488 -10 q 165 121 276 -10 q 53 513 53 251 q 165 906 53 775 q 488 1038 276 1038 q 562 1035 525 1038 q 629 1028 599 1032 l 1217 1028 l 1217 881 l 806 881 l 806 593 l 1185 593 l 1185 451 l 806 451 l 806 147 l 1229 147 l 1229 0 l 629 0 q 562 -8 599 -6 q 488 -10 525 -10 m 503 140 q 567 142 535 140 q 628 149 600 143 l 628 878 q 565 885 597 883 q 501 888 533 888 q 377 867 428 888 q 294 801 326 846 q 248 684 263 756 q 233 513 233 613 q 248 340 233 411 q 294 225 263 269 q 378 160 326 181 q 503 140 429 140 z "},"Ó":{"ha":954,"x_min":54,"x_max":900,"o":"m 406 1110 l 503 1331 l 683 1331 l 535 1100 l 406 1110 m 476 -14 q 54 513 54 -14 q 476 1042 54 1042 q 900 513 900 1042 q 476 -14 900 -14 m 476 135 q 586 156 540 135 q 661 222 632 176 q 704 338 690 267 q 718 513 718 410 q 661 806 718 717 q 476 894 604 894 q 367 873 413 894 q 292 806 321 851 q 249 688 263 760 q 236 513 236 615 q 249 340 236 411 q 292 222 263 268 q 367 156 321 176 q 476 135 413 135 z "},"Ŏ":{"ha":954,"x_min":54,"x_max":900,"o":"m 478 1117 q 292 1178 353 1117 q 231 1343 231 1239 l 353 1343 q 382 1241 353 1274 q 478 1208 411 1208 q 571 1241 542 1208 q 600 1343 600 1274 l 724 1343 q 662 1178 724 1239 q 478 1117 600 1117 m 476 -14 q 54 513 54 -14 q 476 1042 54 1042 q 900 513 900 1042 q 476 -14 900 -14 m 476 135 q 586 156 540 135 q 661 222 632 176 q 704 338 690 267 q 718 513 718 410 q 661 806 718 717 q 476 894 604 894 q 367 873 413 894 q 292 806 321 851 q 249 688 263 760 q 236 513 236 615 q 249 340 236 411 q 292 222 263 268 q 367 156 321 176 q 476 135 413 135 z "},"Ô":{"ha":954,"x_min":54,"x_max":900,"o":"m 476 -14 q 54 513 54 -14 q 476 1042 54 1042 q 900 513 900 1042 q 476 -14 900 -14 m 476 135 q 586 156 540 135 q 661 222 632 176 q 704 338 690 267 q 718 513 718 410 q 661 806 718 717 q 476 894 604 894 q 367 873 413 894 q 292 806 321 851 q 249 688 263 760 q 236 513 236 615 q 249 340 236 411 q 292 222 263 268 q 367 156 321 176 q 476 135 413 135 m 253 1240 l 476 1342 l 700 1240 l 700 1114 l 476 1215 l 253 1114 l 253 1240 z "},"Ȍ":{"ha":954,"x_min":54,"x_max":900,"o":"m 476 -14 q 54 513 54 -14 q 476 1042 54 1042 q 900 513 900 1042 q 476 -14 900 -14 m 476 135 q 586 156 540 135 q 661 222 632 176 q 704 338 690 267 q 718 513 718 410 q 661 806 718 717 q 476 894 604 894 q 367 873 413 894 q 292 806 321 851 q 249 688 263 760 q 236 513 236 615 q 249 340 236 411 q 292 222 263 268 q 367 156 321 176 q 476 135 413 135 m 308 1099 l 160 1329 l 318 1329 l 415 1115 l 308 1099 m 550 1099 l 400 1329 l 560 1329 l 657 1115 l 550 1099 z "},"Ö":{"ha":954,"x_min":54,"x_max":900,"o":"m 307 1121 q 207 1219 207 1121 q 231 1295 207 1272 q 307 1318 256 1318 q 385 1295 360 1318 q 410 1219 410 1272 q 385 1144 410 1167 q 307 1121 360 1121 m 640 1121 q 539 1219 539 1121 q 563 1295 539 1272 q 640 1318 588 1318 q 717 1295 692 1318 q 742 1219 742 1272 q 717 1144 742 1167 q 640 1121 692 1121 m 476 -14 q 54 513 54 -14 q 476 1042 54 1042 q 900 513 900 1042 q 476 -14 900 -14 m 476 135 q 586 156 540 135 q 661 222 632 176 q 704 338 690 267 q 718 513 718 410 q 661 806 718 717 q 476 894 604 894 q 367 873 413 894 q 292 806 321 851 q 249 688 263 760 q 236 513 236 615 q 249 340 236 411 q 292 222 263 268 q 367 156 321 176 q 476 135 413 135 z "},"Ọ":{"ha":954,"x_min":54,"x_max":900,"o":"m 481 -269 q 416 -250 436 -269 q 396 -186 396 -231 q 416 -123 396 -142 q 481 -104 436 -104 q 545 -123 525 -104 q 565 -186 565 -142 q 545 -250 565 -231 q 481 -269 525 -269 m 476 -14 q 54 513 54 -14 q 476 1042 54 1042 q 900 513 900 1042 q 476 -14 900 -14 m 476 135 q 586 156 540 135 q 661 222 632 176 q 704 338 690 267 q 718 513 718 410 q 661 806 718 717 q 476 894 604 894 q 367 873 413 894 q 292 806 321 851 q 249 688 263 760 q 236 513 236 615 q 249 340 236 411 q 292 222 263 268 q 367 156 321 176 q 476 135 413 135 z "},"Ò":{"ha":954,"x_min":54,"x_max":900,"o":"m 406 1100 l 257 1331 l 438 1331 l 535 1117 l 406 1100 m 476 -14 q 54 513 54 -14 q 476 1042 54 1042 q 900 513 900 1042 q 476 -14 900 -14 m 476 135 q 586 156 540 135 q 661 222 632 176 q 704 338 690 267 q 718 513 718 410 q 661 806 718 717 q 476 894 604 894 q 367 873 413 894 q 292 806 321 851 q 249 688 263 760 q 236 513 236 615 q 249 340 236 411 q 292 222 263 268 q 367 156 321 176 q 476 135 413 135 z "},"Ő":{"ha":954,"x_min":54,"x_max":900,"o":"m 476 -14 q 54 513 54 -14 q 476 1042 54 1042 q 900 513 900 1042 q 476 -14 900 -14 m 476 135 q 586 156 540 135 q 661 222 632 176 q 704 338 690 267 q 718 513 718 410 q 661 806 718 717 q 476 894 604 894 q 367 873 413 894 q 292 806 321 851 q 249 688 263 760 q 236 513 236 615 q 249 340 236 411 q 292 222 263 268 q 367 156 321 176 q 476 135 413 135 m 283 1115 l 381 1329 l 539 1329 l 389 1099 l 283 1115 m 524 1115 l 621 1329 l 781 1329 l 632 1099 l 524 1115 z "},"Ȏ":{"ha":954,"x_min":54,"x_max":900,"o":"m 476 -14 q 54 513 54 -14 q 476 1042 54 1042 q 900 513 900 1042 q 476 -14 900 -14 m 476 135 q 586 156 540 135 q 661 222 632 176 q 704 338 690 267 q 718 513 718 410 q 661 806 718 717 q 476 894 604 894 q 367 873 413 894 q 292 806 321 851 q 249 688 263 760 q 236 513 236 615 q 249 340 236 411 q 292 222 263 268 q 367 156 321 176 q 476 135 413 135 m 600 1129 q 571 1233 600 1200 q 476 1265 542 1265 q 381 1233 410 1265 q 353 1129 353 1200 l 229 1129 q 291 1294 229 1233 q 476 1356 353 1356 q 661 1294 599 1356 q 724 1129 724 1233 l 600 1129 z "},"Ō":{"ha":954,"x_min":54,"x_max":900,"o":"m 257 1288 l 688 1288 l 688 1167 l 257 1167 l 257 1288 m 476 -14 q 54 513 54 -14 q 476 1042 54 1042 q 900 513 900 1042 q 476 -14 900 -14 m 476 135 q 586 156 540 135 q 661 222 632 176 q 704 338 690 267 q 718 513 718 410 q 661 806 718 717 q 476 894 604 894 q 367 873 413 894 q 292 806 321 851 q 249 688 263 760 q 236 513 236 615 q 249 340 236 411 q 292 222 263 268 q 367 156 321 176 q 476 135 413 135 z "},"Ω":{"ha":1044,"x_min":57,"x_max":988,"o":"m 57 146 l 325 133 q 233 202 278 161 q 152 299 188 243 q 94 425 117 354 q 72 583 72 496 q 104 772 72 688 q 195 916 136 856 q 337 1009 254 976 q 522 1042 419 1042 q 707 1009 624 1042 q 849 916 790 976 q 940 772 908 856 q 972 583 972 688 q 950 424 972 496 q 892 297 928 353 q 810 201 856 242 q 717 132 764 160 l 988 146 l 988 0 l 582 0 l 582 121 q 653 179 615 144 q 724 267 692 214 q 779 397 757 321 q 801 578 801 472 q 781 711 801 651 q 725 814 761 771 q 638 880 689 857 q 522 903 586 903 q 409 880 460 903 q 322 814 358 857 q 267 711 286 771 q 247 578 247 651 q 272 388 247 467 q 331 257 296 310 q 401 172 365 204 q 461 121 438 139 l 461 0 l 57 0 l 57 146 z "},"Ǫ":{"ha":953,"x_min":54,"x_max":900,"o":"m 469 -293 q 308 -164 308 -293 q 330 -83 308 -121 q 399 -8 351 -44 q 54 513 54 36 q 476 1042 54 1042 q 900 513 900 1042 q 567 -7 900 46 q 459 -76 492 -39 q 426 -146 426 -112 q 482 -189 426 -189 q 528 -184 503 -189 q 574 -172 553 -179 l 574 -276 q 522 -289 547 -285 q 469 -293 497 -293 m 476 135 q 586 156 540 135 q 661 222 632 176 q 704 338 690 267 q 718 513 718 410 q 661 806 718 717 q 476 894 604 894 q 367 873 413 894 q 292 806 321 851 q 249 688 263 760 q 236 513 236 615 q 249 340 236 411 q 292 222 263 268 q 367 156 321 176 q 476 135 413 135 z "},"Ø":{"ha":961,"x_min":21,"x_max":940,"o":"m 138 154 q 57 513 57 282 q 481 1042 57 1042 q 750 957 646 1042 l 804 1028 l 940 1028 l 822 874 q 904 513 904 742 q 481 -14 904 -14 q 211 69 313 -14 l 158 0 l 21 0 l 138 154 m 240 513 q 244 402 240 451 q 260 313 249 353 l 650 825 q 481 894 593 894 q 371 873 417 894 q 296 806 325 851 q 253 688 267 760 q 240 513 240 615 m 481 135 q 590 156 544 135 q 665 222 636 176 q 708 338 694 267 q 721 513 721 410 q 701 713 721 631 l 311 201 q 481 135 368 135 z "},"Ǿ":{"ha":961,"x_min":21,"x_max":940,"o":"m 138 154 q 57 513 57 282 q 481 1042 57 1042 q 750 957 646 1042 l 804 1028 l 940 1028 l 822 874 q 904 513 904 742 q 481 -14 904 -14 q 211 69 313 -14 l 158 0 l 21 0 l 138 154 m 240 513 q 244 402 240 451 q 260 313 249 353 l 650 825 q 481 894 593 894 q 371 873 417 894 q 296 806 325 851 q 253 688 267 760 q 240 513 240 615 m 481 135 q 590 156 544 135 q 665 222 636 176 q 708 338 694 267 q 721 513 721 410 q 701 713 721 631 l 311 201 q 481 135 368 135 m 407 1110 l 504 1331 l 685 1331 l 536 1100 l 407 1110 z "},"Õ":{"ha":954,"x_min":54,"x_max":900,"o":"m 222 1176 q 306 1276 258 1242 q 400 1311 354 1311 q 456 1302 429 1311 q 509 1283 483 1293 q 561 1263 535 1272 q 615 1254 588 1254 q 719 1308 667 1254 l 754 1275 q 672 1174 719 1208 q 576 1139 624 1139 q 521 1147 547 1139 q 468 1166 494 1156 q 416 1185 442 1176 q 363 1193 390 1193 q 308 1181 335 1193 q 254 1142 282 1169 l 222 1176 m 476 -14 q 54 513 54 -14 q 476 1042 54 1042 q 900 513 900 1042 q 476 -14 900 -14 m 476 135 q 586 156 540 135 q 661 222 632 176 q 704 338 690 267 q 718 513 718 410 q 661 806 718 717 q 476 894 604 894 q 367 873 413 894 q 292 806 321 851 q 249 688 263 760 q 236 513 236 615 q 249 340 236 411 q 292 222 263 268 q 367 156 321 176 q 476 135 413 135 z "},"P":{"ha":832,"x_min":96,"x_max":799,"o":"m 96 1021 q 226 1037 163 1032 q 351 1042 290 1042 q 553 1021 468 1042 q 692 956 638 1000 q 773 844 747 913 q 799 681 799 775 q 692 406 799 493 q 356 319 586 319 q 315 319 335 319 q 274 321 294 319 l 274 0 l 96 0 l 96 1021 m 381 464 q 490 476 444 464 q 563 513 535 488 q 603 581 590 539 q 617 681 617 622 q 564 847 617 797 q 383 896 511 896 q 327 893 357 896 q 274 888 297 890 l 274 471 q 326 466 296 468 q 381 464 356 464 z "},"Q":{"ha":950,"x_min":51,"x_max":906,"o":"m 828 -181 q 460 -78 608 -133 q 221 56 311 -22 q 91 245 131 135 q 51 513 51 356 q 474 1042 51 1042 q 899 513 899 1042 q 809 174 899 293 q 542 36 719 54 l 542 22 q 628 0 588 10 q 713 -17 669 -10 q 802 -28 756 -24 q 906 -37 849 -33 l 828 -181 m 474 132 q 660 220 603 132 q 718 513 718 308 q 704 688 718 615 q 661 807 690 761 q 585 874 632 853 q 474 896 539 896 q 363 874 408 896 q 288 807 317 853 q 245 688 258 761 q 232 513 232 615 q 245 338 232 410 q 288 219 258 265 q 363 153 317 174 q 474 132 408 132 z "},"R":{"ha":853,"x_min":96,"x_max":826,"o":"m 453 363 q 413 360 433 361 q 368 360 392 360 q 347 360 360 360 q 322 360 335 360 q 295 362 308 361 q 274 364 282 363 l 274 0 l 96 0 l 96 1021 q 351 1042 221 1042 q 692 960 586 1042 q 799 699 799 879 q 610 396 799 468 l 826 0 l 636 0 l 453 363 m 381 501 q 563 547 510 501 q 617 699 617 592 q 563 851 617 806 q 383 896 510 896 q 331 893 361 896 q 274 888 301 890 l 274 508 q 324 503 296 506 q 381 501 353 501 z "},"Ŕ":{"ha":853,"x_min":96,"x_max":826,"o":"m 453 363 q 413 360 433 361 q 368 360 392 360 q 347 360 360 360 q 322 360 335 360 q 295 362 308 361 q 274 364 282 363 l 274 0 l 96 0 l 96 1021 q 351 1042 221 1042 q 692 960 586 1042 q 799 699 799 879 q 610 396 799 468 l 826 0 l 636 0 l 453 363 m 381 501 q 563 547 510 501 q 617 699 617 592 q 563 851 617 806 q 383 896 510 896 q 331 893 361 896 q 274 888 301 890 l 274 508 q 324 503 296 506 q 381 501 353 501 m 358 1110 l 456 1331 l 636 1331 l 488 1100 l 358 1110 z "},"Ř":{"ha":853,"x_min":96,"x_max":826,"o":"m 214 1332 l 438 1231 l 661 1332 l 661 1206 l 438 1104 l 214 1206 l 214 1332 m 453 363 q 413 360 433 361 q 368 360 392 360 q 347 360 360 360 q 322 360 335 360 q 295 362 308 361 q 274 364 282 363 l 274 0 l 96 0 l 96 1021 q 351 1042 221 1042 q 692 960 586 1042 q 799 699 799 879 q 610 396 799 468 l 826 0 l 636 0 l 453 363 m 381 501 q 563 547 510 501 q 617 699 617 592 q 563 851 617 806 q 383 896 510 896 q 331 893 361 896 q 274 888 301 890 l 274 508 q 324 503 296 506 q 381 501 353 501 z "},"Ŗ":{"ha":853,"x_min":96,"x_max":826,"o":"m 364 -96 l 543 -96 l 436 -306 l 301 -306 l 364 -96 m 453 363 q 413 360 433 361 q 368 360 392 360 q 347 360 360 360 q 322 360 335 360 q 295 362 308 361 q 274 364 282 363 l 274 0 l 96 0 l 96 1021 q 351 1042 221 1042 q 692 960 586 1042 q 799 699 799 879 q 610 396 799 468 l 826 0 l 636 0 l 453 363 m 381 501 q 563 547 510 501 q 617 699 617 592 q 563 851 617 806 q 383 896 510 896 q 331 893 361 896 q 274 888 301 890 l 274 508 q 324 503 296 506 q 381 501 353 501 z "},"Ȑ":{"ha":853,"x_min":96,"x_max":826,"o":"m 453 363 q 413 360 433 361 q 368 360 392 360 q 347 360 360 360 q 322 360 335 360 q 295 362 308 361 q 274 364 282 363 l 274 0 l 96 0 l 96 1021 q 351 1042 221 1042 q 692 960 586 1042 q 799 699 799 879 q 610 396 799 468 l 826 0 l 636 0 l 453 363 m 381 501 q 563 547 510 501 q 617 699 617 592 q 563 851 617 806 q 383 896 510 896 q 331 893 361 896 q 274 888 301 890 l 274 508 q 324 503 296 506 q 381 501 353 501 m 265 1099 l 117 1329 l 275 1329 l 372 1115 l 265 1099 m 507 1099 l 357 1329 l 517 1329 l 614 1115 l 507 1099 z "},"Ṛ":{"ha":853,"x_min":96,"x_max":826,"o":"m 453 363 q 413 360 433 361 q 368 360 392 360 q 347 360 360 360 q 322 360 335 360 q 295 362 308 361 q 274 364 282 363 l 274 0 l 96 0 l 96 1021 q 351 1042 221 1042 q 692 960 586 1042 q 799 699 799 879 q 610 396 799 468 l 826 0 l 636 0 l 453 363 m 381 501 q 563 547 510 501 q 617 699 617 592 q 563 851 617 806 q 383 896 510 896 q 331 893 361 896 q 274 888 301 890 l 274 508 q 324 503 296 506 q 381 501 353 501 m 438 -269 q 373 -250 393 -269 q 353 -186 353 -231 q 373 -123 353 -142 q 438 -104 393 -104 q 502 -123 482 -104 q 522 -186 522 -142 q 502 -250 522 -231 q 438 -269 482 -269 z "},"Ȓ":{"ha":853,"x_min":96,"x_max":826,"o":"m 453 363 q 413 360 433 361 q 368 360 392 360 q 347 360 360 360 q 322 360 335 360 q 295 362 308 361 q 274 364 282 363 l 274 0 l 96 0 l 96 1021 q 351 1042 221 1042 q 692 960 586 1042 q 799 699 799 879 q 610 396 799 468 l 826 0 l 636 0 l 453 363 m 381 501 q 563 547 510 501 q 617 699 617 592 q 563 851 617 806 q 383 896 510 896 q 331 893 361 896 q 274 888 301 890 l 274 508 q 324 503 296 506 q 381 501 353 501 m 556 1129 q 526 1233 556 1200 q 432 1265 497 1265 q 337 1233 365 1265 q 308 1129 308 1200 l 185 1129 q 247 1294 185 1233 q 432 1356 308 1356 q 617 1294 554 1356 q 679 1129 679 1233 l 556 1129 z "},"S":{"ha":740,"x_min":47,"x_max":701,"o":"m 357 -17 q 204 -4 286 -17 q 47 32 122 8 l 51 182 q 118 162 82 171 q 192 146 154 153 q 265 135 229 139 q 332 132 301 132 q 521 275 521 132 q 507 335 521 310 q 468 380 493 361 q 407 414 443 399 q 325 444 371 429 q 213 487 263 463 q 130 547 164 511 q 78 632 96 582 q 60 753 60 682 q 151 965 60 888 q 403 1043 243 1043 q 522 1035 461 1043 q 657 1008 582 1028 l 654 863 q 528 888 592 879 q 418 897 465 897 q 288 860 333 897 q 242 754 242 822 q 254 697 242 721 q 292 653 267 672 q 356 617 318 633 q 443 583 393 600 q 551 538 503 563 q 632 479 599 514 q 683 397 665 444 q 701 283 701 350 q 611 62 701 140 q 357 -17 521 -17 z "},"Ś":{"ha":740,"x_min":47,"x_max":701,"o":"m 357 -17 q 204 -4 286 -17 q 47 32 122 8 l 51 182 q 118 162 82 171 q 192 146 154 153 q 265 135 229 139 q 332 132 301 132 q 521 275 521 132 q 507 335 521 310 q 468 380 493 361 q 407 414 443 399 q 325 444 371 429 q 213 487 263 463 q 130 547 164 511 q 78 632 96 582 q 60 753 60 682 q 151 965 60 888 q 403 1043 243 1043 q 522 1035 461 1043 q 657 1008 582 1028 l 654 863 q 528 888 592 879 q 418 897 465 897 q 288 860 333 897 q 242 754 242 822 q 254 697 242 721 q 292 653 267 672 q 356 617 318 633 q 443 583 393 600 q 551 538 503 563 q 632 479 599 514 q 683 397 665 444 q 701 283 701 350 q 611 62 701 140 q 357 -17 521 -17 m 304 1110 l 401 1331 l 582 1331 l 433 1100 l 304 1110 z "},"Š":{"ha":740,"x_min":47,"x_max":701,"o":"m 357 -17 q 204 -4 286 -17 q 47 32 122 8 l 51 182 q 118 162 82 171 q 192 146 154 153 q 265 135 229 139 q 332 132 301 132 q 521 275 521 132 q 507 335 521 310 q 468 380 493 361 q 407 414 443 399 q 325 444 371 429 q 213 487 263 463 q 130 547 164 511 q 78 632 96 582 q 60 753 60 682 q 151 965 60 888 q 403 1043 243 1043 q 522 1035 461 1043 q 657 1008 582 1028 l 654 863 q 528 888 592 879 q 418 897 465 897 q 288 860 333 897 q 242 754 242 822 q 254 697 242 721 q 292 653 267 672 q 356 617 318 633 q 443 583 393 600 q 551 538 503 563 q 632 479 599 514 q 683 397 665 444 q 701 283 701 350 q 611 62 701 140 q 357 -17 521 -17 m 161 1332 l 385 1231 l 608 1332 l 608 1206 l 385 1104 l 161 1206 l 161 1332 z "},"Ə":{"ha":888,"x_min":47,"x_max":836,"o":"m 47 443 q 49 513 47 481 q 54 579 51 544 l 656 579 q 633 726 651 667 q 582 824 615 786 q 498 877 549 861 q 376 893 447 893 q 244 881 314 893 q 96 844 174 869 q 94 869 96 847 q 91 918 93 892 q 88 966 89 944 q 86 990 86 988 q 235 1032 153 1017 q 393 1047 317 1047 q 724 916 611 1047 q 836 529 836 785 q 728 127 836 268 q 410 -14 621 -14 q 140 99 232 -14 q 47 443 47 211 m 417 129 q 590 206 532 129 q 656 453 647 282 l 221 453 q 231 303 221 365 q 263 203 240 242 q 324 147 286 164 q 417 129 361 129 z "},"Ŝ":{"ha":740,"x_min":47,"x_max":701,"o":"m 357 -17 q 204 -4 286 -17 q 47 32 122 8 l 51 182 q 118 162 82 171 q 192 146 154 153 q 265 135 229 139 q 332 132 301 132 q 521 275 521 132 q 507 335 521 310 q 468 380 493 361 q 407 414 443 399 q 325 444 371 429 q 213 487 263 463 q 130 547 164 511 q 78 632 96 582 q 60 753 60 682 q 151 965 60 888 q 403 1043 243 1043 q 522 1035 461 1043 q 657 1008 582 1028 l 654 863 q 528 888 592 879 q 418 897 465 897 q 288 860 333 897 q 242 754 242 822 q 254 697 242 721 q 292 653 267 672 q 356 617 318 633 q 443 583 393 600 q 551 538 503 563 q 632 479 599 514 q 683 397 665 444 q 701 283 701 350 q 611 62 701 140 q 357 -17 521 -17 m 156 1240 l 379 1342 l 603 1240 l 603 1114 l 379 1215 l 156 1114 l 156 1240 z "},"Ṣ":{"ha":740,"x_min":47,"x_max":701,"o":"m 357 -17 q 204 -4 286 -17 q 47 32 122 8 l 51 182 q 118 162 82 171 q 192 146 154 153 q 265 135 229 139 q 332 132 301 132 q 521 275 521 132 q 507 335 521 310 q 468 380 493 361 q 407 414 443 399 q 325 444 371 429 q 213 487 263 463 q 130 547 164 511 q 78 632 96 582 q 60 753 60 682 q 151 965 60 888 q 403 1043 243 1043 q 522 1035 461 1043 q 657 1008 582 1028 l 654 863 q 528 888 592 879 q 418 897 465 897 q 288 860 333 897 q 242 754 242 822 q 254 697 242 721 q 292 653 267 672 q 356 617 318 633 q 443 583 393 600 q 551 538 503 563 q 632 479 599 514 q 683 397 665 444 q 701 283 701 350 q 611 62 701 140 q 357 -17 521 -17 m 371 -269 q 306 -250 326 -269 q 286 -186 286 -231 q 306 -123 286 -142 q 371 -104 326 -104 q 435 -123 415 -104 q 456 -186 456 -142 q 435 -250 456 -231 q 371 -269 415 -269 z "},"T":{"ha":760,"x_min":22,"x_max":738,"o":"m 289 876 l 22 876 l 22 1028 l 738 1028 l 738 876 l 468 876 l 468 0 l 289 0 l 289 876 z "},"Ŧ":{"ha":771,"x_min":28,"x_max":743,"o":"m 129 575 l 294 575 l 294 876 l 28 876 l 28 1028 l 743 1028 l 743 876 l 474 876 l 474 575 l 639 575 l 639 471 l 474 471 l 474 0 l 294 0 l 294 471 l 129 471 l 129 575 z "},"Ť":{"ha":760,"x_min":22,"x_max":738,"o":"m 161 1332 l 385 1231 l 608 1332 l 608 1206 l 385 1104 l 161 1206 l 161 1332 m 289 876 l 22 876 l 22 1028 l 738 1028 l 738 876 l 468 876 l 468 0 l 289 0 l 289 876 z "},"Ṭ":{"ha":760,"x_min":22,"x_max":738,"o":"m 382 -269 q 317 -250 338 -269 q 297 -186 297 -231 q 317 -123 297 -142 q 382 -104 338 -104 q 447 -123 426 -104 q 467 -186 467 -142 q 447 -250 467 -231 q 382 -269 426 -269 m 289 876 l 22 876 l 22 1028 l 738 1028 l 738 876 l 468 876 l 468 0 l 289 0 l 289 876 z "},"Þ":{"ha":836,"x_min":96,"x_max":799,"o":"m 96 1028 l 274 1028 l 274 869 q 315 871 294 871 q 356 871 335 871 q 692 785 586 871 q 799 511 799 700 q 694 240 799 325 q 357 156 589 156 q 315 156 336 156 q 274 157 294 156 l 274 0 l 96 0 l 96 1028 m 378 303 q 490 314 444 303 q 564 349 536 325 q 604 413 592 374 q 617 511 617 453 q 604 609 617 569 q 564 674 592 649 q 490 710 536 699 q 378 721 444 721 q 356 721 369 721 q 326 719 342 721 q 297 717 311 718 q 274 714 283 715 l 274 307 q 296 305 282 306 q 325 303 310 304 q 355 303 340 303 q 378 303 369 303 z "},"U":{"ha":963,"x_min":88,"x_max":876,"o":"m 482 -14 q 299 11 374 -14 q 177 88 224 36 q 109 219 131 140 q 88 406 88 297 l 88 1028 l 265 1028 l 265 411 q 317 201 265 265 q 482 136 368 136 q 647 200 596 136 q 697 411 697 264 l 697 1028 l 876 1028 l 876 406 q 855 219 876 297 q 786 88 833 140 q 664 11 739 36 q 482 -14 589 -14 z "},"Ú":{"ha":963,"x_min":88,"x_max":876,"o":"m 401 1110 l 499 1331 l 679 1331 l 531 1100 l 401 1110 m 482 -14 q 299 11 374 -14 q 177 88 224 36 q 109 219 131 140 q 88 406 88 297 l 88 1028 l 265 1028 l 265 411 q 317 201 265 265 q 482 136 368 136 q 647 200 596 136 q 697 411 697 264 l 697 1028 l 876 1028 l 876 406 q 855 219 876 297 q 786 88 833 140 q 664 11 739 36 q 482 -14 589 -14 z "},"Ŭ":{"ha":963,"x_min":88,"x_max":876,"o":"m 478 1117 q 292 1178 353 1117 q 231 1343 231 1239 l 353 1343 q 382 1241 353 1274 q 478 1208 411 1208 q 571 1241 542 1208 q 600 1343 600 1274 l 724 1343 q 662 1178 724 1239 q 478 1117 600 1117 m 482 -14 q 299 11 374 -14 q 177 88 224 36 q 109 219 131 140 q 88 406 88 297 l 88 1028 l 265 1028 l 265 411 q 317 201 265 265 q 482 136 368 136 q 647 200 596 136 q 697 411 697 264 l 697 1028 l 876 1028 l 876 406 q 855 219 876 297 q 786 88 833 140 q 664 11 739 36 q 482 -14 589 -14 z "},"Û":{"ha":963,"x_min":88,"x_max":876,"o":"m 482 -14 q 299 11 374 -14 q 177 88 224 36 q 109 219 131 140 q 88 406 88 297 l 88 1028 l 265 1028 l 265 411 q 317 201 265 265 q 482 136 368 136 q 647 200 596 136 q 697 411 697 264 l 697 1028 l 876 1028 l 876 406 q 855 219 876 297 q 786 88 833 140 q 664 11 739 36 q 482 -14 589 -14 m 253 1240 l 476 1342 l 700 1240 l 700 1114 l 476 1215 l 253 1114 l 253 1240 z "},"Ȕ":{"ha":963,"x_min":88,"x_max":876,"o":"m 482 -14 q 299 11 374 -14 q 177 88 224 36 q 109 219 131 140 q 88 406 88 297 l 88 1028 l 265 1028 l 265 411 q 317 201 265 265 q 482 136 368 136 q 647 200 596 136 q 697 411 697 264 l 697 1028 l 876 1028 l 876 406 q 855 219 876 297 q 786 88 833 140 q 664 11 739 36 q 482 -14 589 -14 m 308 1099 l 160 1329 l 318 1329 l 415 1115 l 308 1099 m 550 1099 l 400 1329 l 560 1329 l 657 1115 l 550 1099 z "},"Ü":{"ha":963,"x_min":88,"x_max":876,"o":"m 308 1121 q 208 1219 208 1121 q 233 1295 208 1272 q 308 1318 257 1318 q 386 1295 361 1318 q 411 1219 411 1272 q 386 1144 411 1167 q 308 1121 361 1121 m 642 1121 q 540 1219 540 1121 q 565 1295 540 1272 q 642 1318 589 1318 q 718 1295 693 1318 q 743 1219 743 1272 q 718 1144 743 1167 q 642 1121 693 1121 m 482 -14 q 299 11 374 -14 q 177 88 224 36 q 109 219 131 140 q 88 406 88 297 l 88 1028 l 265 1028 l 265 411 q 317 201 265 265 q 482 136 368 136 q 647 200 596 136 q 697 411 697 264 l 697 1028 l 876 1028 l 876 406 q 855 219 876 297 q 786 88 833 140 q 664 11 739 36 q 482 -14 589 -14 z "},"Ụ":{"ha":963,"x_min":88,"x_max":876,"o":"m 482 -14 q 299 11 374 -14 q 177 88 224 36 q 109 219 131 140 q 88 406 88 297 l 88 1028 l 265 1028 l 265 411 q 317 201 265 265 q 482 136 368 136 q 647 200 596 136 q 697 411 697 264 l 697 1028 l 876 1028 l 876 406 q 855 219 876 297 q 786 88 833 140 q 664 11 739 36 q 482 -14 589 -14 m 481 -269 q 416 -250 436 -269 q 396 -186 396 -231 q 416 -123 396 -142 q 481 -104 436 -104 q 545 -123 525 -104 q 565 -186 565 -142 q 545 -250 565 -231 q 481 -269 525 -269 z "},"Ù":{"ha":963,"x_min":88,"x_max":876,"o":"m 408 1100 l 260 1331 l 440 1331 l 538 1117 l 408 1100 m 482 -14 q 299 11 374 -14 q 177 88 224 36 q 109 219 131 140 q 88 406 88 297 l 88 1028 l 265 1028 l 265 411 q 317 201 265 265 q 482 136 368 136 q 647 200 596 136 q 697 411 697 264 l 697 1028 l 876 1028 l 876 406 q 855 219 876 297 q 786 88 833 140 q 664 11 739 36 q 482 -14 589 -14 z "},"Ű":{"ha":963,"x_min":88,"x_max":876,"o":"m 482 -14 q 299 11 374 -14 q 177 88 224 36 q 109 219 131 140 q 88 406 88 297 l 88 1028 l 265 1028 l 265 411 q 317 201 265 265 q 482 136 368 136 q 647 200 596 136 q 697 411 697 264 l 697 1028 l 876 1028 l 876 406 q 855 219 876 297 q 786 88 833 140 q 664 11 739 36 q 482 -14 589 -14 m 286 1115 l 383 1329 l 542 1329 l 392 1099 l 286 1115 m 526 1115 l 624 1329 l 783 1329 l 635 1099 l 526 1115 z "},"Ȗ":{"ha":963,"x_min":88,"x_max":876,"o":"m 482 -14 q 299 11 374 -14 q 177 88 224 36 q 109 219 131 140 q 88 406 88 297 l 88 1028 l 265 1028 l 265 411 q 317 201 265 265 q 482 136 368 136 q 647 200 596 136 q 697 411 697 264 l 697 1028 l 876 1028 l 876 406 q 855 219 876 297 q 786 88 833 140 q 664 11 739 36 q 482 -14 589 -14 m 599 1129 q 569 1233 599 1200 q 475 1265 540 1265 q 380 1233 408 1265 q 351 1129 351 1200 l 228 1129 q 290 1294 228 1233 q 475 1356 351 1356 q 660 1294 597 1356 q 722 1129 722 1233 l 599 1129 z "},"Ū":{"ha":963,"x_min":88,"x_max":876,"o":"m 256 1288 l 686 1288 l 686 1167 l 256 1167 l 256 1288 m 482 -14 q 299 11 374 -14 q 177 88 224 36 q 109 219 131 140 q 88 406 88 297 l 88 1028 l 265 1028 l 265 411 q 317 201 265 265 q 482 136 368 136 q 647 200 596 136 q 697 411 697 264 l 697 1028 l 876 1028 l 876 406 q 855 219 876 297 q 786 88 833 140 q 664 11 739 36 q 482 -14 589 -14 z "},"Ų":{"ha":963,"x_min":88,"x_max":876,"o":"m 476 -296 q 315 -167 315 -296 q 407 -10 315 -81 q 160 108 233 6 q 88 406 88 210 l 88 1028 l 265 1028 l 265 411 q 317 201 265 265 q 482 136 368 136 q 647 200 596 136 q 697 411 697 264 l 697 1028 l 876 1028 l 876 406 q 808 114 876 215 q 578 -8 739 13 q 467 -78 500 -40 q 433 -149 433 -115 q 489 -192 433 -192 q 535 -187 510 -192 q 581 -175 560 -182 l 581 -279 q 529 -292 554 -287 q 476 -296 504 -296 z "},"Ů":{"ha":963,"x_min":88,"x_max":876,"o":"m 482 -14 q 299 11 374 -14 q 177 88 224 36 q 109 219 131 140 q 88 406 88 297 l 88 1028 l 265 1028 l 265 411 q 317 201 265 265 q 482 136 368 136 q 647 200 596 136 q 697 411 697 264 l 697 1028 l 876 1028 l 876 406 q 855 219 876 297 q 786 88 833 140 q 664 11 739 36 q 482 -14 589 -14 m 475 1082 q 360 1125 404 1082 q 315 1233 315 1168 q 327 1294 315 1267 q 360 1343 339 1322 q 410 1376 381 1364 q 475 1388 439 1388 q 539 1376 510 1388 q 589 1343 568 1364 q 622 1294 610 1322 q 633 1233 633 1267 q 590 1125 633 1168 q 475 1082 546 1082 m 475 1153 q 557 1233 557 1153 q 475 1317 557 1317 q 412 1295 431 1317 q 393 1233 393 1274 q 412 1174 393 1194 q 475 1153 431 1153 z "},"Ũ":{"ha":963,"x_min":88,"x_max":876,"o":"m 221 1176 q 305 1276 257 1242 q 399 1311 353 1311 q 455 1302 428 1311 q 508 1283 482 1293 q 560 1263 533 1272 q 614 1254 586 1254 q 718 1308 665 1254 l 753 1275 q 670 1174 718 1208 q 575 1139 622 1139 q 519 1147 546 1139 q 467 1166 493 1156 q 415 1185 440 1176 q 361 1193 389 1193 q 307 1181 333 1193 q 253 1142 281 1169 l 221 1176 m 482 -14 q 299 11 374 -14 q 177 88 224 36 q 109 219 131 140 q 88 406 88 297 l 88 1028 l 265 1028 l 265 411 q 317 201 265 265 q 482 136 368 136 q 647 200 596 136 q 697 411 697 264 l 697 1028 l 876 1028 l 876 406 q 855 219 876 297 q 786 88 833 140 q 664 11 739 36 q 482 -14 589 -14 z "},"V":{"ha":879,"x_min":1,"x_max":876,"o":"m 1 1028 l 182 1028 l 385 367 l 433 165 l 447 165 l 497 367 l 699 1028 l 876 1028 l 561 0 l 318 0 l 1 1028 z "},"W":{"ha":1328,"x_min":14,"x_max":1318,"o":"m 14 1028 l 208 1028 l 343 369 l 371 208 l 383 208 l 418 369 l 578 1028 l 758 1028 l 911 369 l 943 208 l 957 208 l 986 369 l 1126 1028 l 1318 1028 l 1064 0 l 843 0 l 697 600 l 671 783 l 660 783 l 632 600 l 481 0 l 260 0 l 14 1028 z "},"Ẃ":{"ha":1328,"x_min":14,"x_max":1318,"o":"m 592 1110 l 689 1331 l 869 1331 l 721 1100 l 592 1110 m 14 1028 l 208 1028 l 343 369 l 371 208 l 383 208 l 418 369 l 578 1028 l 758 1028 l 911 369 l 943 208 l 957 208 l 986 369 l 1126 1028 l 1318 1028 l 1064 0 l 843 0 l 697 600 l 671 783 l 660 783 l 632 600 l 481 0 l 260 0 l 14 1028 z "},"Ŵ":{"ha":1328,"x_min":14,"x_max":1318,"o":"m 14 1028 l 208 1028 l 343 369 l 371 208 l 383 208 l 418 369 l 578 1028 l 758 1028 l 911 369 l 943 208 l 957 208 l 986 369 l 1126 1028 l 1318 1028 l 1064 0 l 843 0 l 697 600 l 671 783 l 660 783 l 632 600 l 481 0 l 260 0 l 14 1028 m 440 1240 l 664 1342 l 888 1240 l 888 1114 l 664 1215 l 440 1114 l 440 1240 z "},"Ẅ":{"ha":1328,"x_min":14,"x_max":1318,"o":"m 496 1121 q 396 1219 396 1121 q 420 1295 396 1272 q 496 1318 444 1318 q 574 1295 549 1318 q 599 1219 599 1272 q 574 1144 599 1167 q 496 1121 549 1121 m 829 1121 q 728 1219 728 1121 q 752 1295 728 1272 q 829 1318 776 1318 q 906 1295 881 1318 q 931 1219 931 1272 q 906 1144 931 1167 q 829 1121 881 1121 m 14 1028 l 208 1028 l 343 369 l 371 208 l 383 208 l 418 369 l 578 1028 l 758 1028 l 911 369 l 943 208 l 957 208 l 986 369 l 1126 1028 l 1318 1028 l 1064 0 l 843 0 l 697 600 l 671 783 l 660 783 l 632 600 l 481 0 l 260 0 l 14 1028 z "},"Ẁ":{"ha":1328,"x_min":14,"x_max":1318,"o":"m 592 1100 l 443 1331 l 624 1331 l 721 1117 l 592 1100 m 14 1028 l 208 1028 l 343 369 l 371 208 l 383 208 l 418 369 l 578 1028 l 758 1028 l 911 369 l 943 208 l 957 208 l 986 369 l 1126 1028 l 1318 1028 l 1064 0 l 843 0 l 697 600 l 671 783 l 660 783 l 632 600 l 481 0 l 260 0 l 14 1028 z "},"X":{"ha":878,"x_min":-6,"x_max":885,"o":"m 325 528 l 15 1028 l 218 1028 l 425 678 l 440 644 l 447 644 l 463 678 l 668 1028 l 863 1028 l 550 532 l 885 0 l 685 0 l 451 381 l 438 411 l 431 411 l 417 381 l 190 0 l -6 0 l 325 528 z "},"Y":{"ha":868,"x_min":-7,"x_max":874,"o":"m 346 343 l -7 1028 l 192 1028 l 399 596 l 428 513 l 440 513 l 471 596 l 678 1028 l 874 1028 l 524 347 l 524 0 l 346 0 l 346 343 z "},"Ý":{"ha":868,"x_min":-7,"x_max":874,"o":"m 346 343 l -7 1028 l 192 1028 l 399 596 l 428 513 l 440 513 l 471 596 l 678 1028 l 874 1028 l 524 347 l 524 0 l 346 0 l 346 343 m 365 1110 l 463 1331 l 643 1331 l 494 1100 l 365 1110 z "},"Ŷ":{"ha":868,"x_min":-7,"x_max":874,"o":"m 346 343 l -7 1028 l 192 1028 l 399 596 l 428 513 l 440 513 l 471 596 l 678 1028 l 874 1028 l 524 347 l 524 0 l 346 0 l 346 343 m 213 1240 l 436 1342 l 660 1240 l 660 1114 l 436 1215 l 213 1114 l 213 1240 z "},"Ÿ":{"ha":868,"x_min":-7,"x_max":874,"o":"m 346 343 l -7 1028 l 192 1028 l 399 596 l 428 513 l 440 513 l 471 596 l 678 1028 l 874 1028 l 524 347 l 524 0 l 346 0 l 346 343 m 268 1121 q 168 1219 168 1121 q 192 1295 168 1272 q 268 1318 217 1318 q 346 1295 321 1318 q 371 1219 371 1272 q 346 1144 371 1167 q 268 1121 321 1121 m 601 1121 q 500 1219 500 1121 q 524 1295 500 1272 q 601 1318 549 1318 q 678 1295 653 1318 q 703 1219 703 1272 q 678 1144 703 1167 q 601 1121 653 1121 z "},"Ỳ":{"ha":868,"x_min":-7,"x_max":874,"o":"m 346 343 l -7 1028 l 192 1028 l 399 596 l 428 513 l 440 513 l 471 596 l 678 1028 l 874 1028 l 524 347 l 524 0 l 346 0 l 346 343 m 367 1100 l 218 1331 l 399 1331 l 496 1117 l 367 1100 z "},"Ỹ":{"ha":868,"x_min":-7,"x_max":874,"o":"m 346 343 l -7 1028 l 192 1028 l 399 596 l 428 513 l 440 513 l 471 596 l 678 1028 l 874 1028 l 524 347 l 524 0 l 346 0 l 346 343 m 181 1176 q 265 1276 217 1242 q 358 1311 313 1311 q 415 1302 388 1311 q 467 1283 442 1293 q 519 1263 493 1272 q 574 1254 546 1254 q 678 1308 625 1254 l 713 1275 q 630 1174 678 1208 q 535 1139 582 1139 q 479 1147 506 1139 q 426 1166 453 1156 q 374 1185 400 1176 q 321 1193 349 1193 q 267 1181 293 1193 q 213 1142 240 1169 l 181 1176 z "},"Z":{"ha":761,"x_min":39,"x_max":724,"o":"m 39 149 l 499 868 l 499 878 l 56 878 l 56 1028 l 706 1028 l 706 881 l 246 160 l 246 149 l 724 149 l 724 0 l 39 0 l 39 149 z "},"Ź":{"ha":761,"x_min":39,"x_max":724,"o":"m 39 149 l 499 868 l 499 878 l 56 878 l 56 1028 l 706 1028 l 706 881 l 246 160 l 246 149 l 724 149 l 724 0 l 39 0 l 39 149 m 319 1110 l 417 1331 l 597 1331 l 449 1100 l 319 1110 z "},"Ž":{"ha":761,"x_min":39,"x_max":724,"o":"m 171 1332 l 394 1231 l 618 1332 l 618 1206 l 394 1104 l 171 1206 l 171 1332 m 39 149 l 499 868 l 499 878 l 56 878 l 56 1028 l 706 1028 l 706 881 l 246 160 l 246 149 l 724 149 l 724 0 l 39 0 l 39 149 z "},"Ż":{"ha":761,"x_min":39,"x_max":724,"o":"m 388 1113 q 286 1211 286 1113 q 310 1288 286 1264 q 388 1311 335 1311 q 464 1288 439 1311 q 489 1211 489 1264 q 388 1113 489 1113 m 39 149 l 499 868 l 499 878 l 56 878 l 56 1028 l 706 1028 l 706 881 l 246 160 l 246 149 l 724 149 l 724 0 l 39 0 l 39 149 z "},"Ẓ":{"ha":761,"x_min":39,"x_max":724,"o":"m 39 149 l 499 868 l 499 878 l 56 878 l 56 1028 l 706 1028 l 706 881 l 246 160 l 246 149 l 724 149 l 724 0 l 39 0 l 39 149 m 379 -269 q 315 -250 335 -269 q 294 -186 294 -231 q 315 -123 294 -142 q 379 -104 335 -104 q 444 -123 424 -104 q 464 -186 464 -142 q 444 -250 464 -231 q 379 -269 424 -269 z "},"a":{"ha":704,"x_min":38,"x_max":629,"o":"m 236 -7 q 90 49 143 -7 q 38 203 38 106 q 103 368 38 311 q 308 436 169 425 l 454 446 l 454 481 q 448 552 454 524 q 425 598 442 581 q 380 622 408 615 q 308 629 351 629 q 263 628 289 629 q 210 623 238 626 q 153 615 182 619 q 103 607 125 611 l 90 735 q 218 754 156 747 q 336 761 281 761 q 558 703 488 761 q 629 519 629 644 l 629 0 l 485 0 l 469 92 l 458 92 q 356 21 413 49 q 236 -7 299 -7 m 304 122 q 381 143 340 122 q 454 185 422 164 l 454 342 l 351 332 q 244 299 276 325 q 213 219 213 272 q 304 122 213 122 z "},"á":{"ha":704,"x_min":38,"x_max":629,"o":"m 236 -7 q 90 49 143 -7 q 38 203 38 106 q 103 368 38 311 q 308 436 169 425 l 454 446 l 454 481 q 448 552 454 524 q 425 598 442 581 q 380 622 408 615 q 308 629 351 629 q 263 628 289 629 q 210 623 238 626 q 153 615 182 619 q 103 607 125 611 l 90 735 q 218 754 156 747 q 336 761 281 761 q 558 703 488 761 q 629 519 629 644 l 629 0 l 485 0 l 469 92 l 458 92 q 356 21 413 49 q 236 -7 299 -7 m 304 122 q 381 143 340 122 q 454 185 422 164 l 454 342 l 351 332 q 244 299 276 325 q 213 219 213 272 q 304 122 213 122 m 293 858 l 388 1117 l 568 1117 l 418 847 l 293 858 z "},"´":{"ha":351,"x_min":47,"x_max":322,"o":"m 47 858 l 142 1117 l 322 1117 l 172 847 l 47 858 z "},"ă":{"ha":704,"x_min":38,"x_max":629,"o":"m 236 -7 q 90 49 143 -7 q 38 203 38 106 q 103 368 38 311 q 308 436 169 425 l 454 446 l 454 481 q 448 552 454 524 q 425 598 442 581 q 380 622 408 615 q 308 629 351 629 q 263 628 289 629 q 210 623 238 626 q 153 615 182 619 q 103 607 125 611 l 90 735 q 218 754 156 747 q 336 761 281 761 q 558 703 488 761 q 629 519 629 644 l 629 0 l 485 0 l 469 92 l 458 92 q 356 21 413 49 q 236 -7 299 -7 m 304 122 q 381 143 340 122 q 454 185 422 164 l 454 342 l 351 332 q 244 299 276 325 q 213 219 213 272 q 304 122 213 122 m 357 854 q 174 911 235 854 q 110 1071 114 968 l 233 1071 q 357 950 233 950 q 481 1071 478 950 l 603 1071 q 540 911 600 968 q 357 854 479 854 z "},"˘":{"ha":608,"x_min":56,"x_max":549,"o":"m 303 854 q 120 911 181 854 q 56 1071 60 968 l 179 1071 q 303 950 179 950 q 426 1071 424 950 l 549 1071 q 485 911 546 968 q 303 854 425 854 z "},"â":{"ha":704,"x_min":38,"x_max":629,"o":"m 236 -7 q 90 49 143 -7 q 38 203 38 106 q 103 368 38 311 q 308 436 169 425 l 454 446 l 454 481 q 448 552 454 524 q 425 598 442 581 q 380 622 408 615 q 308 629 351 629 q 263 628 289 629 q 210 623 238 626 q 153 615 182 619 q 103 607 125 611 l 90 735 q 218 754 156 747 q 336 761 281 761 q 558 703 488 761 q 629 519 629 644 l 629 0 l 485 0 l 469 92 l 458 92 q 356 21 413 49 q 236 -7 299 -7 m 304 122 q 381 143 340 122 q 454 185 422 164 l 454 342 l 351 332 q 244 299 276 325 q 213 219 213 272 q 304 122 213 122 m 140 988 l 364 1089 l 588 988 l 588 863 l 364 964 l 140 863 l 140 988 z "},"ˆ":{"ha":563,"x_min":51,"x_max":499,"o":"m 51 988 l 275 1089 l 499 988 l 499 863 l 275 964 l 51 863 l 51 988 z "},"ȁ":{"ha":704,"x_min":38,"x_max":629,"o":"m 236 -7 q 90 49 143 -7 q 38 203 38 106 q 103 368 38 311 q 308 436 169 425 l 454 446 l 454 481 q 448 552 454 524 q 425 598 442 581 q 380 622 408 615 q 308 629 351 629 q 263 628 289 629 q 210 623 238 626 q 153 615 182 619 q 103 607 125 611 l 90 735 q 218 754 156 747 q 336 761 281 761 q 558 703 488 761 q 629 519 629 644 l 629 0 l 485 0 l 469 92 l 458 92 q 356 21 413 49 q 236 -7 299 -7 m 304 122 q 381 143 340 122 q 454 185 422 164 l 454 342 l 351 332 q 244 299 276 325 q 213 219 213 272 q 304 122 213 122 m 193 849 l 42 1118 l 203 1118 l 297 863 l 193 849 m 449 849 l 297 1118 l 457 1118 l 551 863 l 449 849 z "},"̏":{"ha":596,"x_min":28,"x_max":538,"o":"m 179 849 l 28 1118 l 189 1118 l 283 863 l 179 849 m 435 849 l 283 1118 l 443 1118 l 538 863 l 435 849 z "},"ä":{"ha":704,"x_min":38,"x_max":629,"o":"m 236 -7 q 90 49 143 -7 q 38 203 38 106 q 103 368 38 311 q 308 436 169 425 l 454 446 l 454 481 q 448 552 454 524 q 425 598 442 581 q 380 622 408 615 q 308 629 351 629 q 263 628 289 629 q 210 623 238 626 q 153 615 182 619 q 103 607 125 611 l 90 735 q 218 754 156 747 q 336 761 281 761 q 558 703 488 761 q 629 519 629 644 l 629 0 l 485 0 l 469 92 l 458 92 q 356 21 413 49 q 236 -7 299 -7 m 304 122 q 381 143 340 122 q 454 185 422 164 l 454 342 l 351 332 q 244 299 276 325 q 213 219 213 272 q 304 122 213 122 m 203 868 q 111 958 111 868 q 133 1025 111 1004 q 203 1046 156 1046 q 294 958 294 1046 q 203 868 294 868 m 513 868 q 421 958 421 868 q 443 1025 421 1004 q 513 1046 465 1046 q 604 958 604 1046 q 513 868 604 868 z "},"¨":{"ha":643,"x_min":68,"x_max":561,"o":"m 160 868 q 68 958 68 868 q 90 1025 68 1004 q 160 1046 113 1046 q 251 958 251 1046 q 160 868 251 868 m 469 868 q 378 958 378 868 q 400 1025 378 1004 q 469 1046 422 1046 q 561 958 561 1046 q 469 868 561 868 z "},"æ":{"ha":1113,"x_min":38,"x_max":1064,"o":"m 792 -14 q 538 111 614 -14 l 528 113 q 369 22 436 50 q 236 -7 301 -7 q 90 49 143 -7 q 38 203 38 106 q 104 368 38 311 q 310 436 171 425 l 454 446 l 454 501 q 447 562 454 538 q 422 601 439 586 q 376 623 404 617 q 306 629 347 629 q 206 623 265 629 q 103 607 147 617 l 90 735 q 223 754 161 747 q 339 761 285 761 q 549 653 499 761 l 558 653 q 789 761 635 761 q 1064 424 1064 761 q 1063 363 1064 386 q 1057 318 1061 340 l 631 318 q 676 167 635 214 q 804 121 717 121 q 909 131 850 121 q 1031 161 968 142 l 1038 29 q 919 -2 985 10 q 792 -14 853 -14 m 304 122 q 377 141 338 122 q 464 192 417 160 q 460 219 461 199 q 457 263 458 239 q 455 309 456 288 q 454 342 454 331 l 353 332 q 244 299 276 325 q 213 219 213 272 q 304 122 213 122 m 908 424 q 876 583 904 536 q 783 631 849 631 q 631 424 640 631 l 908 424 z "},"ǽ":{"ha":1113,"x_min":38,"x_max":1064,"o":"m 506 858 l 600 1117 l 781 1117 l 631 847 l 506 858 m 792 -14 q 538 111 614 -14 l 528 113 q 369 22 436 50 q 236 -7 301 -7 q 90 49 143 -7 q 38 203 38 106 q 104 368 38 311 q 310 436 171 425 l 454 446 l 454 501 q 447 562 454 538 q 422 601 439 586 q 376 623 404 617 q 306 629 347 629 q 206 623 265 629 q 103 607 147 617 l 90 735 q 223 754 161 747 q 339 761 285 761 q 549 653 499 761 l 558 653 q 789 761 635 761 q 1064 424 1064 761 q 1063 363 1064 386 q 1057 318 1061 340 l 631 318 q 676 167 635 214 q 804 121 717 121 q 909 131 850 121 q 1031 161 968 142 l 1038 29 q 919 -2 985 10 q 792 -14 853 -14 m 304 122 q 377 141 338 122 q 464 192 417 160 q 460 219 461 199 q 457 263 458 239 q 455 309 456 288 q 454 342 454 331 l 353 332 q 244 299 276 325 q 213 219 213 272 q 304 122 213 122 m 908 424 q 876 583 904 536 q 783 631 849 631 q 631 424 640 631 l 908 424 z "},"à":{"ha":704,"x_min":38,"x_max":629,"o":"m 236 -7 q 90 49 143 -7 q 38 203 38 106 q 103 368 38 311 q 308 436 169 425 l 454 446 l 454 481 q 448 552 454 524 q 425 598 442 581 q 380 622 408 615 q 308 629 351 629 q 263 628 289 629 q 210 623 238 626 q 153 615 182 619 q 103 607 125 611 l 90 735 q 218 754 156 747 q 336 761 281 761 q 558 703 488 761 q 629 519 629 644 l 629 0 l 485 0 l 469 92 l 458 92 q 356 21 413 49 q 236 -7 299 -7 m 304 122 q 381 143 340 122 q 454 185 422 164 l 454 342 l 351 332 q 244 299 276 325 q 213 219 213 272 q 304 122 213 122 m 296 849 l 144 1118 l 326 1118 l 421 863 l 296 849 z "},"`":{"ha":363,"x_min":28,"x_max":304,"o":"m 179 849 l 28 1118 l 210 1118 l 304 863 l 179 849 z "},"ȃ":{"ha":704,"x_min":38,"x_max":629,"o":"m 236 -7 q 90 49 143 -7 q 38 203 38 106 q 103 368 38 311 q 308 436 169 425 l 454 446 l 454 481 q 448 552 454 524 q 425 598 442 581 q 380 622 408 615 q 308 629 351 629 q 263 628 289 629 q 210 623 238 626 q 153 615 182 619 q 103 607 125 611 l 90 735 q 218 754 156 747 q 336 761 281 761 q 558 703 488 761 q 629 519 629 644 l 629 0 l 485 0 l 469 92 l 458 92 q 356 21 413 49 q 236 -7 299 -7 m 304 122 q 381 143 340 122 q 454 185 422 164 l 454 342 l 351 332 q 244 299 276 325 q 213 219 213 272 q 304 122 213 122 m 119 864 q 183 1024 122 967 q 365 1081 243 1081 q 548 1024 488 1081 q 611 864 608 968 l 489 864 q 365 985 488 985 q 274 956 306 985 q 242 864 243 926 l 119 864 z "},"̑":{"ha":606,"x_min":56,"x_max":547,"o":"m 56 864 q 119 1024 58 967 q 301 1081 179 1081 q 484 1024 424 1081 q 547 864 544 968 l 425 864 q 301 985 424 985 q 210 956 242 985 q 178 864 179 926 l 56 864 l 56 864 z "},"ā":{"ha":704,"x_min":38,"x_max":629,"o":"m 236 -7 q 90 49 143 -7 q 38 203 38 106 q 103 368 38 311 q 308 436 169 425 l 454 446 l 454 481 q 448 552 454 524 q 425 598 442 581 q 380 622 408 615 q 308 629 351 629 q 263 628 289 629 q 210 623 238 626 q 153 615 182 619 q 103 607 125 611 l 90 735 q 218 754 156 747 q 336 761 281 761 q 558 703 488 761 q 629 519 629 644 l 629 0 l 485 0 l 469 92 l 458 92 q 356 21 413 49 q 236 -7 299 -7 m 304 122 q 381 143 340 122 q 454 185 422 164 l 454 342 l 351 332 q 244 299 276 325 q 213 219 213 272 q 304 122 213 122 m 139 1000 l 579 1000 l 579 885 l 139 885 l 139 1000 z "},"¯":{"ha":592,"x_min":69,"x_max":510,"o":"m 69 1000 l 510 1000 l 510 885 l 69 885 l 69 1000 z "},"&":{"ha":938,"x_min":56,"x_max":931,"o":"m 418 -14 q 267 7 335 -14 q 153 67 200 28 q 81 161 106 106 q 56 286 56 217 q 101 450 56 382 q 232 550 147 518 q 165 662 185 607 q 146 779 146 717 q 228 976 146 907 q 463 1044 310 1044 q 579 1033 521 1044 q 706 999 638 1022 l 707 992 l 685 864 l 676 864 q 572 896 624 885 q 478 907 521 907 q 319 758 319 907 q 334 684 319 719 q 379 613 349 649 q 457 540 410 578 q 569 461 504 503 l 676 393 q 681 475 681 432 l 681 578 l 836 585 l 836 476 q 831 387 836 429 q 818 306 826 344 l 931 236 l 931 228 l 865 90 l 856 90 l 758 156 q 418 -14 653 -14 m 501 329 q 406 397 449 365 q 326 458 363 428 q 231 296 231 410 q 284 167 231 215 q 428 119 338 119 q 636 238 576 119 l 501 329 z "},"ą":{"ha":704,"x_min":38,"x_max":629,"o":"m 525 -306 q 364 -176 364 -306 q 393 -85 364 -128 q 485 0 422 -42 l 469 92 l 458 92 q 356 21 413 49 q 236 -7 299 -7 q 90 49 143 -7 q 38 203 38 106 q 103 368 38 311 q 308 436 169 425 l 454 446 l 454 481 q 448 552 454 524 q 425 598 442 581 q 380 622 408 615 q 308 629 351 629 q 263 628 289 629 q 210 623 238 626 q 153 615 182 619 q 103 607 125 611 l 90 735 q 218 754 156 747 q 336 761 281 761 q 558 703 488 761 q 629 519 629 644 l 629 -17 q 516 -87 550 -49 q 482 -158 482 -125 q 538 -201 482 -201 q 583 -197 558 -201 q 629 -185 608 -192 l 629 -289 q 578 -301 603 -297 q 525 -306 553 -306 m 304 122 q 381 143 340 122 q 454 185 422 164 l 454 342 l 351 332 q 244 299 276 325 q 213 219 213 272 q 304 122 213 122 z "},"ʼ":{"ha":292,"x_min":82,"x_max":224,"o":"m 224 1122 l 224 1117 l 172 806 l 82 806 l 82 1122 l 224 1122 z "},"≈":{"ha":721,"x_min":78,"x_max":646,"o":"m 78 671 q 158 702 118 686 q 246 718 197 718 q 306 710 278 718 q 363 693 335 703 q 420 676 392 683 q 481 668 449 668 q 568 680 529 668 q 646 711 607 692 l 646 597 q 569 562 608 579 q 481 544 529 544 q 420 553 449 544 q 363 570 392 561 q 306 588 335 579 q 246 596 278 596 q 158 584 197 596 q 78 553 118 572 l 78 671 m 78 390 q 158 422 118 406 q 246 438 197 438 q 306 430 278 438 q 363 413 335 422 q 420 395 392 403 q 481 388 449 388 q 568 399 529 388 q 646 431 607 411 l 646 317 q 569 283 608 300 q 481 265 529 265 q 420 273 449 265 q 363 290 392 281 q 306 308 335 300 q 246 315 278 315 q 158 304 197 315 q 78 274 118 293 l 78 390 z "},"å":{"ha":704,"x_min":38,"x_max":629,"o":"m 236 -7 q 90 49 143 -7 q 38 203 38 106 q 103 368 38 311 q 308 436 169 425 l 454 446 l 454 481 q 448 552 454 524 q 425 598 442 581 q 380 622 408 615 q 308 629 351 629 q 263 628 289 629 q 210 623 238 626 q 153 615 182 619 q 103 607 125 611 l 90 735 q 218 754 156 747 q 336 761 281 761 q 558 703 488 761 q 629 519 629 644 l 629 0 l 485 0 l 469 92 l 458 92 q 356 21 413 49 q 236 -7 299 -7 m 304 122 q 381 143 340 122 q 454 185 422 164 l 454 342 l 351 332 q 244 299 276 325 q 213 219 213 272 q 304 122 213 122 m 354 832 q 237 874 281 832 q 193 983 193 917 q 237 1093 193 1050 q 354 1136 281 1136 q 473 1093 429 1136 q 517 983 517 1050 q 472 874 517 917 q 354 832 428 832 m 354 903 q 414 925 393 903 q 435 983 435 947 q 414 1042 435 1019 q 354 1064 393 1064 q 297 1042 317 1064 q 276 983 276 1019 q 297 925 276 947 q 354 903 317 903 z "},"˚":{"ha":435,"x_min":51,"x_max":375,"o":"m 213 832 q 95 874 139 832 q 51 983 51 917 q 95 1093 51 1050 q 213 1136 139 1136 q 331 1093 288 1136 q 375 983 375 1050 q 331 874 375 917 q 213 832 286 832 m 213 903 q 272 925 251 903 q 293 983 293 947 q 272 1042 293 1019 q 213 1064 251 1064 q 155 1042 175 1064 q 135 983 135 1019 q 155 925 135 947 q 213 903 175 903 z "},"ǻ":{"ha":704,"x_min":38,"x_max":629,"o":"m 236 -7 q 90 49 143 -7 q 38 203 38 106 q 103 368 38 311 q 308 436 169 425 l 454 446 l 454 481 q 448 552 454 524 q 425 598 442 581 q 380 622 408 615 q 308 629 351 629 q 263 628 289 629 q 210 623 238 626 q 153 615 182 619 q 103 607 125 611 l 90 735 q 218 754 156 747 q 336 761 281 761 q 558 703 488 761 q 629 519 629 644 l 629 0 l 485 0 l 469 92 l 458 92 q 356 21 413 49 q 236 -7 299 -7 m 360 832 q 242 874 286 832 q 199 983 199 917 q 233 1083 199 1042 q 328 1133 268 1124 l 411 1361 l 592 1361 l 453 1111 q 503 1058 485 1092 q 522 983 522 1025 q 478 874 522 917 q 360 832 433 832 m 304 122 q 381 143 340 122 q 454 185 422 164 l 454 342 l 351 332 q 244 299 276 325 q 213 219 213 272 q 304 122 213 122 m 360 903 q 419 925 399 903 q 440 983 440 947 q 419 1042 440 1019 q 360 1064 399 1064 q 302 1042 322 1064 q 282 983 282 1019 q 302 925 282 947 q 360 903 322 903 z "},"↓":{"ha":931,"x_min":33,"x_max":897,"o":"m 33 576 l 135 678 l 394 396 l 390 949 l 540 949 l 536 396 l 796 678 l 897 576 l 490 171 l 439 171 l 33 576 z "},"←":{"ha":865,"x_min":33,"x_max":811,"o":"m 33 539 l 33 590 l 439 997 l 542 896 l 258 636 l 811 639 l 811 489 l 258 493 l 542 233 l 439 132 l 33 539 z "},"→":{"ha":865,"x_min":54,"x_max":832,"o":"m 325 233 l 607 493 l 54 489 l 54 639 l 607 636 l 325 896 l 426 997 l 832 590 l 832 539 l 426 132 l 325 233 z "},"↑":{"ha":935,"x_min":35,"x_max":900,"o":"m 396 724 l 136 442 l 35 543 l 442 949 l 493 949 l 900 543 l 799 442 l 539 724 l 542 171 l 392 171 l 396 724 z "},"^":{"ha":599,"x_min":47,"x_max":551,"o":"m 224 1096 l 375 1096 l 551 668 l 426 668 l 303 982 l 297 982 l 172 668 l 47 668 l 224 1096 z "},"~":{"ha":821,"x_min":60,"x_max":761,"o":"m 60 382 q 126 463 97 431 q 181 513 156 494 q 231 540 207 532 q 283 547 256 547 q 353 531 322 547 q 413 496 385 515 q 469 460 442 476 q 526 444 496 444 q 597 471 563 444 q 657 544 632 497 l 761 483 q 722 423 744 454 q 672 367 700 392 q 612 325 644 342 q 542 308 579 308 q 469 324 501 308 q 409 360 438 340 q 354 397 381 381 q 300 413 328 413 q 232 388 264 413 q 161 311 200 364 l 60 382 z "},"*":{"ha":678,"x_min":46,"x_max":631,"o":"m 122 669 l 185 757 l 296 858 l 147 874 l 46 907 l 81 1014 l 183 981 l 314 906 l 283 1054 l 283 1163 l 394 1163 l 394 1054 l 364 906 l 494 981 l 597 1014 l 631 907 l 529 874 l 381 858 l 492 757 l 554 669 l 465 604 l 401 692 l 338 832 l 276 692 l 213 604 l 122 669 z "},"@":{"ha":1147,"x_min":53,"x_max":1086,"o":"m 560 -189 q 367 -159 460 -189 q 206 -63 275 -129 q 94 108 136 3 q 53 363 53 213 q 92 610 53 503 q 203 791 132 718 q 374 901 274 864 q 594 939 474 939 q 816 903 724 939 q 969 800 908 867 q 1058 638 1029 733 q 1086 425 1086 543 q 1071 278 1086 343 q 1024 166 1056 213 q 947 94 993 119 q 839 69 900 69 q 741 97 779 69 q 694 190 703 125 l 689 190 q 592 104 650 131 q 482 78 535 78 q 397 97 433 78 q 338 150 361 117 q 304 228 315 183 q 293 322 293 272 q 316 467 293 401 q 381 582 339 533 q 485 658 424 631 q 621 685 546 685 q 832 633 708 685 l 782 346 q 774 298 778 322 q 769 250 769 274 q 785 190 769 214 q 844 167 801 167 q 940 235 907 167 q 972 425 972 304 q 951 594 972 518 q 883 722 929 669 q 766 803 838 775 q 594 832 694 832 q 419 801 499 832 q 284 712 340 771 q 197 565 228 653 q 167 363 167 476 q 199 155 167 240 q 286 16 232 69 q 411 -62 340 -37 q 560 -86 482 -86 q 685 -72 618 -86 q 824 -35 753 -58 l 860 -132 q 706 -173 782 -157 q 560 -189 629 -189 m 503 175 q 553 185 526 175 q 606 217 581 196 q 650 274 631 239 q 678 363 669 310 l 713 572 q 665 584 688 581 q 621 588 642 588 q 532 567 572 588 q 464 512 492 547 q 421 428 436 476 q 406 322 406 379 q 410 267 406 293 q 427 219 415 240 q 457 187 439 199 q 503 175 475 175 z "},"ã":{"ha":704,"x_min":38,"x_max":629,"o":"m 236 -7 q 90 49 143 -7 q 38 203 38 106 q 103 368 38 311 q 308 436 169 425 l 454 446 l 454 481 q 448 552 454 524 q 425 598 442 581 q 380 622 408 615 q 308 629 351 629 q 263 628 289 629 q 210 623 238 626 q 153 615 182 619 q 103 607 125 611 l 90 735 q 218 754 156 747 q 336 761 281 761 q 558 703 488 761 q 629 519 629 644 l 629 0 l 485 0 l 469 92 l 458 92 q 356 21 413 49 q 236 -7 299 -7 m 304 122 q 381 143 340 122 q 454 185 422 164 l 454 342 l 351 332 q 244 299 276 325 q 213 219 213 272 q 304 122 213 122 m 97 919 q 181 1015 133 982 q 275 1047 229 1047 q 331 1037 304 1047 q 384 1013 358 1026 q 435 990 410 1000 q 489 979 461 979 q 540 992 517 979 q 588 1036 564 1006 l 629 992 q 547 894 594 926 q 451 863 499 863 q 396 873 422 863 q 343 896 369 883 q 290 919 317 908 q 238 929 264 929 q 136 875 185 929 l 97 919 z "},"˜":{"ha":622,"x_min":36,"x_max":568,"o":"m 36 919 q 120 1015 72 982 q 214 1047 168 1047 q 270 1037 243 1047 q 323 1013 297 1026 q 374 990 349 1000 q 428 979 400 979 q 479 992 456 979 q 526 1036 503 1006 l 568 992 q 485 894 533 926 q 390 863 438 863 q 335 873 361 863 q 282 896 308 883 q 229 919 256 908 q 176 929 203 929 q 75 875 124 929 l 36 919 z "},"b":{"ha":771,"x_min":79,"x_max":721,"o":"m 360 -14 q 232 -3 300 -14 q 79 31 164 7 l 79 1122 l 254 1122 l 254 674 q 342 740 290 717 q 457 763 393 763 q 721 394 721 763 q 700 228 721 303 q 635 101 679 154 q 523 18 592 49 q 360 -14 454 -12 m 363 108 q 445 122 411 108 q 501 168 479 136 q 533 251 524 200 q 543 376 543 303 q 510 575 543 518 q 400 632 476 632 q 295 588 336 632 q 254 443 254 544 l 254 122 q 306 112 278 115 q 363 108 335 108 z "},"\\":{"ha":482,"x_min":36,"x_max":446,"o":"m 36 1028 l 185 1028 l 446 -167 l 297 -167 l 36 1028 z "},"|":{"ha":363,"x_min":99,"x_max":264,"o":"m 264 1122 l 264 -306 l 99 -306 l 99 1122 l 264 1122 z "},"{":{"ha":468,"x_min":31,"x_max":431,"o":"m 31 561 q 105 596 82 561 q 128 697 128 631 l 128 1042 q 163 1169 128 1132 q 281 1206 197 1206 q 317 1205 294 1206 q 363 1203 340 1204 q 406 1201 386 1201 q 431 1199 425 1200 l 431 1088 l 340 1088 q 286 1072 301 1088 q 271 1021 271 1057 l 271 661 q 243 552 271 597 q 169 494 215 507 q 243 438 215 483 q 271 331 271 393 l 271 -32 q 286 -83 271 -68 q 340 -99 301 -99 l 431 -99 l 431 -210 q 406 -212 425 -211 q 363 -215 386 -214 q 317 -216 340 -215 q 281 -217 294 -217 q 163 -180 197 -217 q 128 -51 128 -143 l 128 296 q 105 396 128 363 q 31 429 82 429 l 31 561 z "},"}":{"ha":468,"x_min":38,"x_max":438,"o":"m 438 429 q 363 396 386 429 q 340 296 340 363 l 340 -51 q 306 -180 340 -143 q 188 -217 272 -217 q 152 -216 175 -217 q 106 -215 129 -215 q 63 -212 82 -214 q 38 -210 43 -211 l 38 -99 l 129 -99 q 183 -83 168 -99 q 199 -32 199 -68 l 199 331 q 226 438 199 393 q 300 494 253 483 q 226 552 253 507 q 199 661 199 597 l 199 1021 q 183 1072 199 1057 q 129 1088 168 1088 l 38 1088 l 38 1199 q 63 1201 43 1200 q 106 1203 82 1201 q 152 1205 129 1204 q 188 1206 175 1206 q 306 1169 272 1206 q 340 1042 340 1132 l 340 697 q 363 596 340 631 q 438 561 386 561 l 438 429 z "},"[":{"ha":456,"x_min":99,"x_max":421,"o":"m 99 1206 l 421 1206 l 421 1088 l 238 1088 l 238 -104 l 421 -104 l 421 -222 l 99 -222 l 99 1206 z "},"]":{"ha":454,"x_min":33,"x_max":356,"o":"m 33 -222 l 33 -104 l 217 -104 l 217 1088 l 33 1088 l 33 1206 l 356 1206 l 356 -222 l 33 -222 z "},"¦":{"ha":357,"x_min":96,"x_max":261,"o":"m 96 283 l 261 283 l 261 -306 l 96 -306 l 96 283 m 96 1122 l 261 1122 l 261 533 l 96 533 l 96 1122 z "},"•":{"ha":453,"x_min":88,"x_max":365,"o":"m 226 379 q 126 411 165 379 q 88 514 88 443 q 126 617 88 585 q 226 650 165 650 q 326 617 288 650 q 365 514 365 585 q 326 411 365 443 q 226 379 288 379 z "},"c":{"ha":606,"x_min":49,"x_max":557,"o":"m 397 -12 q 135 82 222 -12 q 49 375 49 176 q 135 667 49 572 q 397 763 222 763 q 557 743 479 763 l 557 603 q 483 615 518 611 q 415 618 447 618 q 271 562 315 618 q 226 376 226 506 q 270 189 226 247 q 414 131 314 131 q 484 134 450 131 q 557 147 518 138 l 557 8 q 482 -7 525 -1 q 397 -12 439 -12 z "},"ć":{"ha":606,"x_min":49,"x_max":557,"o":"m 279 858 l 374 1117 l 554 1117 l 404 847 l 279 858 m 397 -12 q 135 82 222 -12 q 49 375 49 176 q 135 667 49 572 q 397 763 222 763 q 557 743 479 763 l 557 603 q 483 615 518 611 q 415 618 447 618 q 271 562 315 618 q 226 376 226 506 q 270 189 226 247 q 414 131 314 131 q 484 134 450 131 q 557 147 518 138 l 557 8 q 482 -7 525 -1 q 397 -12 439 -12 z "},"ˇ":{"ha":549,"x_min":47,"x_max":494,"o":"m 47 1092 l 271 990 l 494 1092 l 494 967 l 271 865 l 47 967 l 47 1092 z "},"č":{"ha":606,"x_min":49,"x_max":565,"o":"m 118 1092 l 342 990 l 565 1092 l 565 967 l 342 865 l 118 967 l 118 1092 m 397 -12 q 135 82 222 -12 q 49 375 49 176 q 135 667 49 572 q 397 763 222 763 q 557 743 479 763 l 557 603 q 483 615 518 611 q 415 618 447 618 q 271 562 315 618 q 226 376 226 506 q 270 189 226 247 q 414 131 314 131 q 484 134 450 131 q 557 147 518 138 l 557 8 q 482 -7 525 -1 q 397 -12 439 -12 z "},"ç":{"ha":606,"x_min":49,"x_max":557,"o":"m 299 -306 q 244 -301 274 -306 q 182 -289 214 -297 l 182 -181 q 230 -191 206 -187 q 271 -194 254 -194 q 342 -131 342 -194 q 294 -3 342 -81 q 110 115 171 22 q 49 375 49 207 q 135 667 49 572 q 397 763 222 763 q 557 743 479 763 l 557 603 q 483 615 518 611 q 415 618 447 618 q 271 562 315 618 q 226 376 226 506 q 270 189 226 247 q 414 131 314 131 q 484 134 450 131 q 557 147 518 138 l 557 8 q 490 -6 528 0 q 414 -12 453 -11 q 450 -86 439 -53 q 461 -156 461 -119 q 419 -266 461 -226 q 299 -306 378 -306 z "},"ĉ":{"ha":606,"x_min":49,"x_max":569,"o":"m 122 988 l 346 1089 l 569 988 l 569 863 l 346 964 l 122 863 l 122 988 m 397 -12 q 135 82 222 -12 q 49 375 49 176 q 135 667 49 572 q 397 763 222 763 q 557 743 479 763 l 557 603 q 483 615 518 611 q 415 618 447 618 q 271 562 315 618 q 226 376 226 506 q 270 189 226 247 q 414 131 314 131 q 484 134 450 131 q 557 147 518 138 l 557 8 q 482 -7 525 -1 q 397 -12 439 -12 z "},"ċ":{"ha":606,"x_min":49,"x_max":557,"o":"m 397 -12 q 135 82 222 -12 q 49 375 49 176 q 135 667 49 572 q 397 763 222 763 q 557 743 479 763 l 557 603 q 483 615 518 611 q 415 618 447 618 q 271 562 315 618 q 226 376 226 506 q 270 189 226 247 q 414 131 314 131 q 484 134 450 131 q 557 147 518 138 l 557 8 q 482 -7 525 -1 q 397 -12 439 -12 m 339 858 q 263 882 288 858 q 239 958 239 906 q 263 1033 239 1010 q 339 1056 288 1056 q 416 1033 390 1056 q 442 958 442 1010 q 416 882 442 906 q 339 858 390 858 z "},"˙":{"ha":353,"x_min":68,"x_max":271,"o":"m 168 858 q 92 882 117 858 q 68 958 68 906 q 92 1033 68 1010 q 168 1056 117 1056 q 245 1033 219 1056 q 271 958 271 1010 q 245 882 271 906 q 168 858 219 858 z "},"¢":{"ha":625,"x_min":49,"x_max":557,"o":"m 326 -8 q 118 103 188 10 q 49 375 49 197 q 326 758 49 721 l 326 917 l 440 917 l 440 761 q 499 754 469 758 q 557 743 529 750 l 557 603 q 483 615 518 611 q 415 618 447 618 q 271 562 315 618 q 226 376 226 506 q 270 189 226 247 q 414 131 314 131 q 484 134 450 131 q 557 147 518 138 l 557 8 q 503 -3 533 1 q 440 -11 472 -8 l 440 -167 l 326 -167 l 326 -8 z "},":":{"ha":344,"x_min":69,"x_max":275,"o":"m 171 -7 q 69 92 69 -7 q 171 190 69 190 q 275 92 275 190 q 171 -7 275 -7 m 171 561 q 69 660 69 561 q 171 758 69 758 q 275 660 275 758 q 171 561 275 561 z "},".":{"ha":326,"x_min":61,"x_max":267,"o":"m 163 -7 q 61 92 61 -7 q 163 190 61 190 q 267 92 267 190 q 163 -7 267 -7 z "},"₡":{"ha":750,"x_min":56,"x_max":696,"o":"m 503 -14 q 399 -6 446 -14 l 385 -72 l 281 -72 l 300 19 q 115 189 175 68 q 56 513 56 310 q 165 913 56 786 q 497 1040 274 1040 l 519 1040 l 538 1124 l 643 1124 l 624 1032 q 659 1026 642 1029 q 696 1021 676 1024 l 696 876 q 642 884 668 881 q 592 889 615 888 l 432 143 q 473 138 451 140 q 518 136 494 136 q 606 141 556 136 q 696 154 657 146 l 696 11 q 608 -7 660 0 q 503 -14 556 -14 m 239 513 q 262 303 239 382 q 336 185 285 225 l 488 890 q 372 865 419 886 q 295 800 325 844 q 252 685 265 756 q 239 513 239 614 z "},",":{"ha":329,"x_min":26,"x_max":267,"o":"m 26 -201 l 88 186 l 267 186 l 158 -215 l 26 -201 z "},"©":{"ha":1138,"x_min":53,"x_max":1083,"o":"m 590 226 q 398 297 465 226 q 331 510 331 368 q 398 724 331 653 q 590 796 465 796 q 654 792 622 796 q 713 782 686 789 l 713 682 q 653 691 681 688 q 603 694 626 694 q 487 650 524 694 q 450 511 450 606 q 487 372 450 415 q 601 329 524 329 q 651 332 622 329 q 714 342 681 335 l 714 242 q 655 231 688 235 q 590 226 622 226 m 569 -15 q 358 23 453 -15 q 194 131 263 61 q 90 299 126 201 q 53 514 53 396 q 90 729 53 632 q 194 897 126 826 q 358 1005 263 967 q 569 1043 453 1043 q 781 1005 686 1043 q 942 897 875 967 q 1047 729 1010 826 q 1083 514 1083 632 q 1047 299 1083 396 q 942 131 1010 201 q 781 23 875 61 q 569 -15 686 -15 m 569 82 q 742 113 665 82 q 872 201 818 144 q 953 337 925 257 q 982 514 982 417 q 953 691 982 611 q 872 827 925 771 q 742 915 818 883 q 569 946 665 946 q 397 915 474 946 q 267 827 321 883 q 184 691 213 771 q 156 514 156 611 q 184 337 156 417 q 267 201 213 257 q 397 113 321 144 q 569 82 474 82 z "},"¤":{"ha":810,"x_min":58,"x_max":750,"o":"m 58 239 l 133 315 l 203 365 q 164 514 164 428 q 203 663 164 600 l 133 714 l 58 789 l 129 860 l 206 785 l 253 718 q 322 754 283 742 q 406 767 361 767 q 554 717 493 767 l 604 785 l 679 860 l 750 789 l 675 714 l 603 661 q 642 514 642 599 q 632 433 642 469 q 604 365 622 396 l 675 315 l 750 239 l 679 168 l 604 243 l 556 310 q 404 260 493 260 q 251 308 313 260 l 206 243 l 129 168 l 58 239 m 276 514 q 311 399 276 439 q 404 358 346 358 q 497 399 463 358 q 531 514 531 439 q 497 628 531 589 q 404 668 463 668 q 311 628 346 668 q 276 514 276 589 z "},"d":{"ha":772,"x_min":49,"x_max":690,"o":"m 315 -12 q 115 78 181 -12 q 49 360 49 169 q 141 661 49 560 q 407 763 233 763 q 459 760 433 763 q 517 754 485 758 l 517 1122 l 690 1122 l 690 0 l 533 0 l 521 81 l 515 81 q 315 -12 446 -12 m 371 117 q 475 161 435 117 q 517 308 515 206 l 517 625 q 461 636 489 632 q 403 640 433 640 q 269 581 310 640 q 228 376 228 522 q 261 176 228 236 q 371 117 294 117 z "},"†":{"ha":688,"x_min":38,"x_max":650,"o":"m 263 368 l 263 479 l 301 704 l 63 675 l 38 675 l 38 817 l 63 817 l 301 788 l 263 1013 l 263 1122 l 424 1122 l 424 1013 l 385 788 l 625 817 l 650 817 l 650 675 l 625 675 l 385 704 l 424 479 l 424 368 l 385 90 l 301 90 l 263 368 z "},"‡":{"ha":733,"x_min":60,"x_max":672,"o":"m 286 -165 l 325 60 l 90 32 l 60 32 l 60 172 l 90 172 l 325 143 l 285 368 l 285 479 l 325 704 l 90 675 l 60 675 l 60 817 l 90 817 l 325 788 l 285 1013 l 285 1122 l 446 1122 l 446 1013 l 408 788 l 642 817 l 672 817 l 672 675 l 642 675 l 408 704 l 446 479 l 446 368 l 408 143 l 642 172 l 672 172 l 672 32 l 642 32 l 408 60 l 446 -165 l 446 -275 l 286 -275 l 286 -165 z "},"ď":{"ha":772,"x_min":49,"x_max":904,"o":"m 763 1122 l 904 1122 l 854 806 l 763 806 l 763 1122 m 315 -12 q 115 78 181 -12 q 49 360 49 169 q 141 661 49 560 q 407 763 233 763 q 459 760 433 763 q 517 754 485 758 l 517 1122 l 690 1122 l 690 0 l 533 0 l 521 81 l 515 81 q 315 -12 446 -12 m 371 117 q 475 161 435 117 q 517 308 515 206 l 517 625 q 461 636 489 632 q 403 640 433 640 q 269 581 310 640 q 228 376 228 522 q 261 176 228 236 q 371 117 294 117 z "},"đ":{"ha":772,"x_min":49,"x_max":786,"o":"m 306 989 l 517 989 l 517 1122 l 690 1122 l 690 989 l 786 989 l 786 882 l 690 882 l 690 0 l 533 0 l 521 81 l 515 81 q 315 -12 446 -12 q 115 78 181 -12 q 49 360 49 169 q 141 661 49 560 q 407 763 233 763 q 459 760 433 763 q 517 754 485 758 l 517 882 l 306 882 l 306 989 m 371 117 q 475 161 435 117 q 517 308 515 206 l 517 625 q 461 636 489 632 q 403 640 433 640 q 269 581 310 640 q 228 376 228 522 q 261 176 228 236 q 371 117 294 117 z "},"ḍ":{"ha":772,"x_min":49,"x_max":690,"o":"m 386 -269 q 322 -250 342 -269 q 301 -186 301 -231 q 322 -123 301 -142 q 386 -104 342 -104 q 451 -123 431 -104 q 471 -186 471 -142 q 451 -250 471 -231 q 386 -269 431 -269 m 315 -12 q 115 78 181 -12 q 49 360 49 169 q 141 661 49 560 q 407 763 233 763 q 459 760 433 763 q 517 754 485 758 l 517 1122 l 690 1122 l 690 0 l 533 0 l 521 81 l 515 81 q 315 -12 446 -12 m 371 117 q 475 161 435 117 q 517 308 515 206 l 517 625 q 461 636 489 632 q 403 640 433 640 q 269 581 310 640 q 228 376 228 522 q 261 176 228 236 q 371 117 294 117 z "},"°":{"ha":588,"x_min":44,"x_max":543,"o":"m 294 517 q 193 536 239 517 q 114 590 147 556 q 63 673 81 625 q 44 778 44 721 q 63 883 44 835 q 114 966 81 931 q 193 1021 147 1001 q 294 1040 239 1040 q 394 1021 349 1040 q 474 966 440 1001 q 525 883 507 931 q 543 778 543 835 q 525 673 543 721 q 474 590 507 625 q 394 536 440 556 q 294 517 349 517 m 294 615 q 401 660 365 615 q 438 778 438 704 q 401 897 438 851 q 294 942 365 942 q 186 897 224 942 q 149 778 149 851 q 186 660 149 704 q 294 615 224 615 z "},"÷":{"ha":713,"x_min":61,"x_max":651,"o":"m 360 188 q 300 208 324 188 q 276 272 276 229 q 300 335 276 314 q 360 356 324 356 q 419 335 396 356 q 443 272 443 314 q 419 208 443 229 q 360 188 396 188 m 61 576 l 651 576 l 651 451 l 61 451 l 61 576 m 360 667 q 300 688 324 667 q 276 750 276 710 q 300 815 276 793 q 360 836 324 836 q 419 814 396 836 q 443 750 443 792 q 419 688 443 710 q 360 667 396 667 z "},"$":{"ha":746,"x_min":50,"x_max":704,"o":"m 317 -15 q 183 0 253 -12 q 50 32 113 13 l 54 182 q 121 162 85 171 q 194 146 157 153 q 268 135 232 139 q 335 132 304 132 q 524 275 524 132 q 510 335 524 310 q 471 381 496 361 q 410 415 446 400 q 328 444 374 429 q 216 488 265 464 q 133 548 167 513 q 81 633 99 583 q 63 753 63 682 q 127 939 63 865 q 308 1035 192 1013 l 308 1225 l 461 1225 l 461 1042 q 554 1031 506 1039 q 660 1008 603 1022 l 657 863 q 531 888 594 879 q 421 897 468 897 q 290 860 336 897 q 244 754 244 822 q 257 697 244 721 q 295 653 269 672 q 358 617 321 633 q 446 583 396 600 q 553 538 506 563 q 635 479 601 514 q 686 397 668 444 q 704 283 704 350 q 642 92 704 165 q 468 -6 581 18 l 468 -197 l 317 -197 l 317 -15 z "},"ı":{"ha":338,"x_min":82,"x_max":256,"o":"m 82 750 l 256 750 l 256 0 l 82 0 l 82 750 z "},"ȷ":{"ha":335,"x_min":3,"x_max":254,"o":"m 3 -278 q 40 -167 25 -219 q 65 -59 56 -115 q 80 63 75 -3 q 85 214 85 129 q 85 297 85 233 q 84 440 85 360 q 83 605 83 521 q 81 750 82 689 l 254 750 l 254 110 q 217 -103 247 0 q 129 -306 188 -206 l 3 -278 z "},"e":{"ha":704,"x_min":49,"x_max":657,"o":"m 383 -12 q 134 83 219 -12 q 49 365 49 179 q 133 662 49 561 q 381 763 217 763 q 657 424 657 763 q 655 364 657 388 q 649 317 653 340 l 225 317 q 271 166 231 210 q 396 122 311 122 q 503 132 443 122 q 622 161 563 142 l 629 31 q 512 -1 578 11 q 383 -12 446 -12 m 375 632 q 268 583 304 632 q 225 428 232 535 l 500 428 q 468 585 497 538 q 375 632 439 632 z "},"é":{"ha":704,"x_min":49,"x_max":657,"o":"m 306 858 l 400 1117 l 581 1117 l 431 847 l 306 858 m 383 -12 q 134 83 219 -12 q 49 365 49 179 q 133 662 49 561 q 381 763 217 763 q 657 424 657 763 q 655 364 657 388 q 649 317 653 340 l 225 317 q 271 166 231 210 q 396 122 311 122 q 503 132 443 122 q 622 161 563 142 l 629 31 q 512 -1 578 11 q 383 -12 446 -12 m 375 632 q 268 583 304 632 q 225 428 232 535 l 500 428 q 468 585 497 538 q 375 632 439 632 z "},"ĕ":{"ha":704,"x_min":49,"x_max":657,"o":"m 383 -12 q 134 83 219 -12 q 49 365 49 179 q 133 662 49 561 q 381 763 217 763 q 657 424 657 763 q 655 364 657 388 q 649 317 653 340 l 225 317 q 271 166 231 210 q 396 122 311 122 q 503 132 443 122 q 622 161 563 142 l 629 31 q 512 -1 578 11 q 383 -12 446 -12 m 375 632 q 268 583 304 632 q 225 428 232 535 l 500 428 q 468 585 497 538 q 375 632 439 632 m 361 854 q 178 911 239 854 q 114 1071 118 968 l 238 1071 q 361 950 238 950 q 485 1071 482 950 l 607 1071 q 544 911 604 968 q 361 854 483 854 z "},"ě":{"ha":704,"x_min":49,"x_max":657,"o":"m 139 1092 l 363 990 l 586 1092 l 586 967 l 363 865 l 139 967 l 139 1092 m 383 -12 q 134 83 219 -12 q 49 365 49 179 q 133 662 49 561 q 381 763 217 763 q 657 424 657 763 q 655 364 657 388 q 649 317 653 340 l 225 317 q 271 166 231 210 q 396 122 311 122 q 503 132 443 122 q 622 161 563 142 l 629 31 q 512 -1 578 11 q 383 -12 446 -12 m 375 632 q 268 583 304 632 q 225 428 232 535 l 500 428 q 468 585 497 538 q 375 632 439 632 z "},"ê":{"ha":704,"x_min":49,"x_max":657,"o":"m 144 988 l 368 1089 l 592 988 l 592 863 l 368 964 l 144 863 l 144 988 m 383 -12 q 134 83 219 -12 q 49 365 49 179 q 133 662 49 561 q 381 763 217 763 q 657 424 657 763 q 655 364 657 388 q 649 317 653 340 l 225 317 q 271 166 231 210 q 396 122 311 122 q 503 132 443 122 q 622 161 563 142 l 629 31 q 512 -1 578 11 q 383 -12 446 -12 m 375 632 q 268 583 304 632 q 225 428 232 535 l 500 428 q 468 585 497 538 q 375 632 439 632 z "},"ȅ":{"ha":704,"x_min":38,"x_max":657,"o":"m 189 849 l 38 1118 l 199 1118 l 293 863 l 189 849 m 444 849 l 293 1118 l 453 1118 l 547 863 l 444 849 m 383 -12 q 134 83 219 -12 q 49 365 49 179 q 133 662 49 561 q 381 763 217 763 q 657 424 657 763 q 655 364 657 388 q 649 317 653 340 l 225 317 q 271 166 231 210 q 396 122 311 122 q 503 132 443 122 q 622 161 563 142 l 629 31 q 512 -1 578 11 q 383 -12 446 -12 m 375 632 q 268 583 304 632 q 225 428 232 535 l 500 428 q 468 585 497 538 q 375 632 439 632 z "},"ë":{"ha":704,"x_min":49,"x_max":657,"o":"m 207 868 q 115 958 115 868 q 138 1025 115 1004 q 207 1046 160 1046 q 299 958 299 1046 q 207 868 299 868 m 517 868 q 425 958 425 868 q 447 1025 425 1004 q 517 1046 469 1046 q 608 958 608 1046 q 517 868 608 868 m 383 -12 q 134 83 219 -12 q 49 365 49 179 q 133 662 49 561 q 381 763 217 763 q 657 424 657 763 q 655 364 657 388 q 649 317 653 340 l 225 317 q 271 166 231 210 q 396 122 311 122 q 503 132 443 122 q 622 161 563 142 l 629 31 q 512 -1 578 11 q 383 -12 446 -12 m 375 632 q 268 583 304 632 q 225 428 232 535 l 500 428 q 468 585 497 538 q 375 632 439 632 z "},"ė":{"ha":704,"x_min":49,"x_max":657,"o":"m 383 -12 q 134 83 219 -12 q 49 365 49 179 q 133 662 49 561 q 381 763 217 763 q 657 424 657 763 q 655 364 657 388 q 649 317 653 340 l 225 317 q 271 166 231 210 q 396 122 311 122 q 503 132 443 122 q 622 161 563 142 l 629 31 q 512 -1 578 11 q 383 -12 446 -12 m 375 632 q 268 583 304 632 q 225 428 232 535 l 500 428 q 468 585 497 538 q 375 632 439 632 m 361 858 q 285 882 310 858 q 261 958 261 906 q 285 1033 261 1010 q 361 1056 310 1056 q 438 1033 413 1056 q 464 958 464 1010 q 438 882 464 906 q 361 858 413 858 z "},"ẹ":{"ha":704,"x_min":49,"x_max":657,"o":"m 383 -12 q 134 83 219 -12 q 49 365 49 179 q 133 662 49 561 q 381 763 217 763 q 657 424 657 763 q 655 364 657 388 q 649 317 653 340 l 225 317 q 271 166 231 210 q 396 122 311 122 q 503 132 443 122 q 622 161 563 142 l 629 31 q 512 -1 578 11 q 383 -12 446 -12 m 375 632 q 268 583 304 632 q 225 428 232 535 l 500 428 q 468 585 497 538 q 375 632 439 632 m 372 -269 q 308 -250 328 -269 q 288 -186 288 -231 q 308 -123 288 -142 q 372 -104 328 -104 q 437 -123 417 -104 q 457 -186 457 -142 q 437 -250 457 -231 q 372 -269 417 -269 z "},"è":{"ha":704,"x_min":49,"x_max":657,"o":"m 383 -12 q 134 83 219 -12 q 49 365 49 179 q 133 662 49 561 q 381 763 217 763 q 657 424 657 763 q 655 364 657 388 q 649 317 653 340 l 225 317 q 271 166 231 210 q 396 122 311 122 q 503 132 443 122 q 622 161 563 142 l 629 31 q 512 -1 578 11 q 383 -12 446 -12 m 375 632 q 268 583 304 632 q 225 428 232 535 l 500 428 q 468 585 497 538 q 375 632 439 632 m 294 849 l 143 1118 l 325 1118 l 419 863 l 294 849 z "},"₈":{"ha":614,"x_min":44,"x_max":569,"o":"m 308 -143 q 113 -91 182 -143 q 44 57 44 -39 q 72 172 44 125 q 153 250 100 218 q 63 425 63 307 q 129 575 63 521 q 308 629 196 629 q 485 575 419 629 q 550 425 550 521 q 528 322 550 361 q 464 257 507 282 q 543 183 517 228 q 569 72 569 139 q 501 -87 569 -31 q 308 -143 433 -143 m 308 -32 q 399 -5 367 -32 q 432 74 432 22 q 401 147 432 121 q 303 196 371 174 l 272 206 q 205 152 228 182 q 182 75 182 122 q 216 -3 182 25 q 308 -32 250 -32 m 335 294 q 393 341 371 311 q 415 418 415 371 q 386 492 415 467 q 308 517 357 517 q 227 490 257 517 q 197 417 197 464 q 227 342 197 368 q 317 299 257 315 q 326 297 318 299 q 335 294 333 294 z "},"⁸":{"ha":614,"x_min":44,"x_max":569,"o":"m 308 413 q 113 465 182 413 q 44 613 44 517 q 72 727 44 681 q 153 806 100 774 q 63 981 63 863 q 129 1131 63 1076 q 308 1185 196 1185 q 485 1131 419 1185 q 550 981 550 1076 q 528 877 550 917 q 464 813 507 838 q 543 739 517 783 q 569 628 569 694 q 501 469 569 525 q 308 413 433 413 m 308 524 q 399 551 367 524 q 432 629 432 578 q 401 703 432 676 q 303 751 371 729 l 272 761 q 205 708 228 738 q 182 631 182 678 q 216 552 182 581 q 308 524 250 524 m 335 850 q 393 897 371 867 q 415 974 415 926 q 386 1047 415 1022 q 308 1072 357 1072 q 227 1046 257 1072 q 197 972 197 1019 q 227 897 197 924 q 317 854 257 871 l 335 850 z "},"ȇ":{"ha":704,"x_min":49,"x_max":657,"o":"m 119 864 q 183 1024 122 967 q 365 1081 243 1081 q 548 1024 488 1081 q 611 864 608 968 l 489 864 q 365 985 488 985 q 274 956 306 985 q 242 864 243 926 l 119 864 m 383 -12 q 134 83 219 -12 q 49 365 49 179 q 133 662 49 561 q 381 763 217 763 q 657 424 657 763 q 655 364 657 388 q 649 317 653 340 l 225 317 q 271 166 231 210 q 396 122 311 122 q 503 132 443 122 q 622 161 563 142 l 629 31 q 512 -1 578 11 q 383 -12 446 -12 m 375 632 q 268 583 304 632 q 225 428 232 535 l 500 428 q 468 585 497 538 q 375 632 439 632 z "},"…":{"ha":1011,"x_min":61,"x_max":950,"o":"m 163 -7 q 61 92 61 -7 q 163 190 61 190 q 267 92 267 190 q 163 -7 267 -7 m 508 -7 q 407 92 407 -7 q 508 190 407 190 q 613 92 613 190 q 508 -7 613 -7 m 846 -7 q 744 92 744 -7 q 846 190 744 190 q 950 92 950 190 q 846 -7 950 -7 z "},"ē":{"ha":704,"x_min":49,"x_max":657,"o":"m 383 -12 q 134 83 219 -12 q 49 365 49 179 q 133 662 49 561 q 381 763 217 763 q 657 424 657 763 q 655 364 657 388 q 649 317 653 340 l 225 317 q 271 166 231 210 q 396 122 311 122 q 503 132 443 122 q 622 161 563 142 l 629 31 q 512 -1 578 11 q 383 -12 446 -12 m 375 632 q 268 583 304 632 q 225 428 232 535 l 500 428 q 468 585 497 538 q 375 632 439 632 m 138 1000 l 578 1000 l 578 885 l 138 885 l 138 1000 z "},"—":{"ha":1021,"x_min":78,"x_max":944,"o":"m 78 456 l 944 456 l 944 322 l 78 322 l 78 456 z "},"–":{"ha":783,"x_min":78,"x_max":707,"o":"m 78 456 l 707 456 l 707 322 l 78 322 l 78 456 z "},"ŋ":{"ha":767,"x_min":81,"x_max":690,"o":"m 442 -278 q 472 -182 458 -233 q 496 -77 486 -131 q 511 31 506 -24 q 517 138 517 85 l 517 493 q 497 582 517 556 q 433 608 478 608 q 256 551 358 608 l 256 0 l 81 0 l 81 750 l 229 750 l 239 668 l 244 668 q 325 713 289 694 q 393 742 361 731 q 454 758 425 753 q 513 764 483 764 q 645 713 600 764 q 690 563 690 663 l 690 108 q 680 2 689 58 q 656 -109 671 -54 q 619 -214 640 -164 q 575 -303 599 -264 l 442 -278 z "},"ę":{"ha":704,"x_min":49,"x_max":657,"o":"m 383 -12 q 134 83 219 -12 q 49 365 49 179 q 133 662 49 561 q 381 763 217 763 q 657 424 657 763 q 655 364 657 388 q 649 317 653 340 l 225 317 q 271 166 231 210 q 396 122 311 122 q 503 132 443 122 q 622 161 563 142 l 629 31 l 629 14 q 516 -56 550 -18 q 482 -128 482 -94 q 538 -171 482 -171 q 583 -166 558 -171 q 629 -154 608 -161 l 629 -258 q 578 -271 603 -267 q 525 -275 553 -275 q 364 -146 364 -275 q 431 -10 364 -72 q 407 -12 419 -11 q 383 -12 394 -12 m 375 632 q 268 583 304 632 q 225 428 232 535 l 500 428 q 468 585 497 538 q 375 632 439 632 z "},"=":{"ha":722,"x_min":78,"x_max":644,"o":"m 78 403 l 644 403 l 644 275 l 78 275 l 78 403 m 78 704 l 644 704 l 644 578 l 78 578 l 78 704 z "},"℮":{"ha":904,"x_min":61,"x_max":860,"o":"m 460 1 q 301 34 374 1 q 175 125 228 67 q 92 263 122 183 q 61 435 61 342 q 90 610 61 531 q 172 748 119 690 q 299 838 225 806 q 460 869 372 869 q 619 839 547 869 q 742 751 690 808 q 825 615 794 694 q 860 435 856 535 l 239 435 l 239 150 q 460 58 328 58 q 763 247 654 58 l 818 214 q 654 52 740 103 q 460 1 568 1 m 682 492 l 682 719 q 458 814 583 814 q 239 719 329 814 l 239 492 l 682 492 z "},"ð":{"ha":774,"x_min":49,"x_max":742,"o":"m 265 961 l 400 976 q 351 1051 376 1015 q 297 1122 326 1088 l 476 1122 q 558 994 521 1063 l 742 1017 l 742 906 l 611 890 q 687 658 658 783 q 715 389 715 533 q 631 88 715 190 q 382 -14 546 -14 q 133 85 218 -14 q 49 375 49 185 q 133 665 49 565 q 376 764 217 764 q 456 749 421 764 q 519 701 492 735 q 491 788 507 746 q 456 872 475 831 l 265 850 l 265 961 m 382 124 q 455 137 425 124 q 503 181 485 150 q 531 260 522 211 q 540 378 540 308 q 533 481 540 435 q 507 559 525 526 q 458 609 489 592 q 382 626 428 626 q 309 613 339 626 q 260 570 279 600 q 233 492 242 540 q 225 375 225 444 q 233 256 225 304 q 260 179 242 208 q 309 137 279 150 q 382 124 339 124 z "},"ẽ":{"ha":704,"x_min":49,"x_max":657,"o":"m 383 -12 q 134 83 219 -12 q 49 365 49 179 q 133 662 49 561 q 381 763 217 763 q 657 424 657 763 q 655 364 657 388 q 649 317 653 340 l 225 317 q 271 166 231 210 q 396 122 311 122 q 503 132 443 122 q 622 161 563 142 l 629 31 q 512 -1 578 11 q 383 -12 446 -12 m 375 632 q 268 583 304 632 q 225 428 232 535 l 500 428 q 468 585 497 538 q 375 632 439 632 m 99 919 q 183 1015 135 982 q 276 1047 231 1047 q 333 1037 306 1047 q 385 1013 360 1026 q 437 990 411 1000 q 490 979 463 979 q 542 992 518 979 q 589 1036 565 1006 l 631 992 q 548 894 596 926 q 453 863 500 863 q 397 873 424 863 q 344 896 371 883 q 292 919 318 908 q 239 929 265 929 q 138 875 186 929 l 99 919 z "},"!":{"ha":356,"x_min":81,"x_max":281,"o":"m 179 -4 q 106 21 132 -4 q 81 92 81 46 q 106 162 81 136 q 179 188 132 188 q 254 162 228 188 q 281 92 281 136 q 254 21 281 46 q 179 -4 228 -4 m 124 321 l 88 1014 l 88 1028 l 268 1028 l 268 1014 l 233 321 l 233 304 l 124 304 l 124 321 z "},"¡":{"ha":336,"x_min":71,"x_max":271,"o":"m 169 754 q 244 729 218 754 q 271 658 271 704 q 244 588 271 614 q 169 563 218 563 q 97 588 122 563 q 71 658 71 614 q 97 729 71 704 q 169 754 122 754 m 114 446 l 224 446 l 224 429 l 258 -264 l 258 -278 l 78 -278 l 78 -264 l 114 429 l 114 446 z "},"f":{"ha":496,"x_min":19,"x_max":511,"o":"m 142 603 l 19 603 l 19 750 l 143 750 l 143 792 q 161 948 143 885 q 221 1050 179 1011 q 331 1108 263 1089 q 503 1131 400 1126 l 511 997 q 415 983 453 993 q 356 952 378 974 q 326 896 335 931 q 317 807 317 861 l 317 750 l 479 750 l 479 603 l 317 603 l 317 0 l 142 0 l 142 603 z "},"ﬀ":{"ha":975,"x_min":19,"x_max":992,"o":"m 142 603 l 19 603 l 19 750 l 143 750 l 143 792 q 161 948 143 885 q 221 1050 179 1011 q 331 1108 263 1089 q 503 1131 400 1126 l 511 997 q 415 983 453 993 q 356 952 378 974 q 326 896 335 931 q 317 807 317 861 l 317 750 l 479 750 l 479 603 l 317 603 l 317 0 l 142 0 l 142 603 m 622 603 l 500 603 l 500 750 l 624 750 l 624 792 q 642 948 624 885 q 701 1050 660 1011 q 812 1108 743 1089 q 983 1131 881 1126 l 992 997 q 896 983 933 993 q 837 952 858 974 q 806 896 815 931 q 797 807 797 861 l 797 750 l 960 750 l 960 603 l 797 603 l 797 0 l 622 0 l 622 603 z "},"h":{"ha":768,"x_min":81,"x_max":690,"o":"m 81 1122 l 256 1122 l 256 672 q 332 715 297 697 q 397 743 367 732 q 456 759 428 754 q 513 764 485 764 q 645 713 600 764 q 690 563 690 663 l 690 0 l 517 0 l 517 506 q 496 590 517 564 q 432 615 475 615 q 256 556 358 615 l 256 0 l 81 0 l 81 1122 z "},"ﬃ":{"ha":1318,"x_min":19,"x_max":1250,"o":"m 1149 881 q 1072 904 1096 881 q 1049 979 1049 928 q 1072 1054 1049 1031 q 1149 1078 1096 1078 q 1250 979 1250 1078 q 1226 905 1250 929 q 1149 881 1201 881 m 1061 750 l 1235 750 l 1235 0 l 1061 0 l 1061 750 m 617 603 l 494 603 l 494 750 l 618 750 l 618 792 q 636 948 618 885 q 696 1050 654 1011 q 806 1108 738 1089 q 978 1131 875 1126 l 986 997 q 890 983 928 993 q 831 952 853 974 q 801 896 810 931 q 792 807 792 861 l 792 750 l 954 750 l 954 603 l 792 603 l 792 0 l 617 0 l 617 603 m 142 603 l 19 603 l 19 750 l 143 750 l 143 792 q 161 948 143 885 q 221 1050 179 1011 q 331 1108 263 1089 q 503 1131 400 1126 l 511 997 q 415 983 453 993 q 356 952 378 974 q 326 896 335 931 q 317 807 317 861 l 317 750 l 479 750 l 479 603 l 317 603 l 317 0 l 142 0 l 142 603 z "},"i":{"ha":338,"x_min":69,"x_max":271,"o":"m 169 881 q 93 904 117 881 q 69 979 69 928 q 93 1054 69 1031 q 169 1078 117 1078 q 271 979 271 1078 q 247 905 271 929 q 169 881 222 881 m 82 750 l 256 750 l 256 0 l 82 0 l 82 750 z "},"j":{"ha":336,"x_min":7,"x_max":269,"o":"m 168 881 q 92 904 115 881 q 68 979 68 928 q 92 1054 68 1031 q 168 1078 115 1078 q 245 1053 221 1078 q 269 979 269 1029 q 245 905 269 929 q 168 881 221 881 m 7 -269 q 64 -70 44 -178 q 83 169 83 38 q 83 214 83 172 q 83 317 83 256 q 83 451 83 379 q 82 585 82 522 q 82 694 82 649 q 82 750 82 740 l 257 750 l 257 111 q 246 3 256 58 q 219 -106 236 -51 q 180 -210 203 -160 q 128 -306 157 -261 l 7 -269 z "},"k":{"ha":725,"x_min":81,"x_max":736,"o":"m 81 1122 l 256 1122 l 256 449 l 336 449 l 521 750 l 711 750 l 481 400 l 451 388 l 451 383 l 482 371 l 736 0 l 544 0 l 335 324 l 256 324 l 256 0 l 81 0 l 81 1122 z "},"ﬄ":{"ha":1319,"x_min":19,"x_max":1236,"o":"m 617 603 l 494 603 l 494 750 l 618 750 l 618 792 q 636 948 618 885 q 696 1050 654 1011 q 806 1108 738 1089 q 978 1131 875 1126 l 986 997 q 890 983 928 993 q 831 952 853 974 q 801 896 810 931 q 792 807 792 861 l 792 750 l 954 750 l 954 603 l 792 603 l 792 0 l 617 0 l 617 603 m 1061 1122 l 1236 1122 l 1236 0 l 1061 0 l 1061 1122 m 142 603 l 19 603 l 19 750 l 143 750 l 143 792 q 161 948 143 885 q 221 1050 179 1011 q 331 1108 263 1089 q 503 1131 400 1126 l 511 997 q 415 983 453 993 q 356 952 378 974 q 326 896 335 931 q 317 807 317 861 l 317 750 l 479 750 l 479 603 l 317 603 l 317 0 l 142 0 l 142 603 z "},"l":{"ha":340,"x_min":83,"x_max":258,"o":"m 83 1122 l 258 1122 l 258 0 l 83 0 l 83 1122 z "},"t":{"ha":525,"x_min":18,"x_max":497,"o":"m 374 -10 q 146 204 146 -10 l 146 601 l 18 601 l 18 750 l 156 750 l 181 953 l 319 971 l 319 750 l 497 750 l 497 601 l 319 601 l 319 244 q 344 153 319 181 q 421 125 369 125 q 457 127 436 125 q 497 136 478 129 l 497 4 q 438 -6 469 -3 q 374 -10 406 -10 z "},"ﬁ":{"ha":843,"x_min":19,"x_max":775,"o":"m 674 881 q 597 904 621 881 q 574 979 574 928 q 597 1054 574 1031 q 674 1078 621 1078 q 775 979 775 1078 q 751 905 775 929 q 674 881 726 881 m 586 750 l 760 750 l 760 0 l 586 0 l 586 750 m 142 603 l 19 603 l 19 750 l 143 750 l 143 792 q 161 948 143 885 q 221 1050 179 1011 q 331 1108 263 1089 q 503 1131 400 1126 l 511 997 q 415 983 453 993 q 356 952 378 974 q 326 896 335 931 q 317 807 317 861 l 317 750 l 479 750 l 479 603 l 317 603 l 317 0 l 142 0 l 142 603 z "},"ﬂ":{"ha":844,"x_min":19,"x_max":761,"o":"m 142 603 l 19 603 l 19 750 l 143 750 l 143 792 q 161 948 143 885 q 221 1050 179 1011 q 331 1108 263 1089 q 503 1131 400 1126 l 511 997 q 415 983 453 993 q 356 952 378 974 q 326 896 335 931 q 317 807 317 861 l 317 750 l 479 750 l 479 603 l 317 603 l 317 0 l 142 0 l 142 603 m 586 1122 l 761 1122 l 761 0 l 586 0 l 586 1122 z "},"⅝":{"ha":1436,"x_min":61,"x_max":1390,"o":"m 217 267 q 145 271 183 267 q 61 282 107 275 l 61 404 l 96 404 q 204 392 156 392 q 350 510 350 392 q 308 601 350 575 q 163 628 267 628 l 83 628 l 69 640 l 99 1036 l 464 1036 l 464 910 l 217 910 l 204 736 q 435 681 365 733 q 504 508 504 628 q 426 326 504 386 q 217 267 347 267 m 810 1028 l 957 1028 l 557 0 l 410 0 l 810 1028 m 1129 -4 q 934 48 1003 -4 q 865 196 865 100 q 893 310 865 264 q 974 389 921 357 q 883 564 883 446 q 950 714 883 660 q 1129 768 1017 768 q 1306 714 1240 768 q 1371 564 1371 660 q 1349 460 1371 500 q 1285 396 1328 421 q 1364 322 1338 367 q 1390 211 1390 278 q 1322 52 1390 108 q 1129 -4 1254 -4 m 1129 107 q 1220 134 1188 107 q 1253 213 1253 161 q 1222 286 1253 260 q 1124 335 1192 313 l 1093 344 q 1026 291 1049 321 q 1003 214 1003 261 q 1037 135 1003 164 q 1129 107 1071 107 m 1156 433 q 1214 480 1192 450 q 1236 557 1236 510 q 1207 631 1236 606 q 1129 656 1178 656 q 1048 629 1078 656 q 1018 556 1018 603 q 1048 481 1018 507 q 1138 438 1078 454 q 1147 435 1139 438 q 1156 433 1154 433 z "},"⁄":{"ha":340,"x_min":-104,"x_max":443,"o":"m 296 1028 l 443 1028 l 43 0 l -104 0 l 296 1028 z "},"₅":{"ha":529,"x_min":49,"x_max":492,"o":"m 204 -150 q 133 -146 171 -150 q 49 -135 94 -142 l 49 -12 l 83 -12 q 192 -25 143 -25 q 338 93 338 -25 q 296 185 338 158 q 150 211 254 211 l 71 211 l 57 224 l 86 619 l 451 619 l 451 493 l 204 493 l 192 319 q 422 264 353 317 q 492 92 492 211 q 413 -90 492 -31 q 204 -150 335 -150 z "},"⁵":{"ha":529,"x_min":49,"x_max":492,"o":"m 204 406 q 133 410 171 406 q 49 421 94 414 l 49 543 l 83 543 q 192 531 143 531 q 338 649 338 531 q 296 740 338 714 q 150 767 254 767 l 71 767 l 57 779 l 86 1175 l 451 1175 l 451 1049 l 204 1049 l 192 875 q 422 819 353 872 q 492 647 492 767 q 413 465 492 525 q 204 406 335 406 z "},"ƒ":{"ha":544,"x_min":40,"x_max":532,"o":"m 163 603 l 40 603 l 40 750 l 163 750 l 163 792 q 181 948 163 885 q 240 1050 199 1011 q 351 1108 282 1089 q 522 1131 419 1126 l 532 997 q 436 983 474 993 q 377 952 399 974 q 347 896 356 931 q 338 807 338 861 l 338 750 l 500 750 l 500 603 l 338 603 l 338 -243 l 163 -306 l 163 603 z "},"₄":{"ha":604,"x_min":17,"x_max":578,"o":"m 336 24 l 39 24 l 17 115 l 263 617 l 278 624 l 404 611 l 414 590 l 169 139 l 349 139 l 390 365 l 489 365 l 489 139 l 578 139 l 578 24 l 489 24 l 489 -139 l 336 -139 l 336 24 z "},"⁴":{"ha":604,"x_min":17,"x_max":578,"o":"m 336 579 l 39 579 l 17 671 l 263 1172 l 278 1179 l 404 1167 l 414 1146 l 169 694 l 349 694 l 390 921 l 489 921 l 489 694 l 578 694 l 578 579 l 489 579 l 489 417 l 336 417 l 336 579 z "},"₣":{"ha":839,"x_min":38,"x_max":790,"o":"m 38 254 l 179 254 l 179 1028 l 790 1028 l 790 879 l 357 879 l 357 592 l 750 592 l 750 443 l 357 443 l 357 254 l 513 254 l 513 142 l 357 142 l 357 0 l 179 0 l 179 142 l 38 142 l 38 254 z "},"g":{"ha":771,"x_min":50,"x_max":692,"o":"m 336 -306 q 217 -297 278 -306 q 104 -274 157 -289 l 117 -142 q 219 -165 169 -157 q 315 -172 268 -172 q 470 -120 418 -172 q 524 60 522 -68 l 524 103 l 517 103 q 318 11 447 11 q 117 97 183 11 q 50 363 50 183 q 143 662 50 561 q 407 763 236 763 q 537 753 471 763 q 692 719 603 743 l 692 92 q 667 -88 692 -12 q 597 -212 643 -164 q 485 -283 551 -260 q 336 -306 419 -306 m 371 135 q 476 178 436 135 q 517 317 517 221 l 517 625 q 461 636 489 632 q 403 640 433 640 q 269 581 311 640 q 228 379 228 522 q 261 191 228 247 q 371 135 294 135 z "},"ǵ":{"ha":771,"x_min":50,"x_max":692,"o":"m 340 858 l 435 1117 l 615 1117 l 465 847 l 340 858 m 336 -306 q 217 -297 278 -306 q 104 -274 157 -289 l 117 -142 q 219 -165 169 -157 q 315 -172 268 -172 q 470 -120 418 -172 q 524 60 522 -68 l 524 103 l 517 103 q 318 11 447 11 q 117 97 183 11 q 50 363 50 183 q 143 662 50 561 q 407 763 236 763 q 537 753 471 763 q 692 719 603 743 l 692 92 q 667 -88 692 -12 q 597 -212 643 -164 q 485 -283 551 -260 q 336 -306 419 -306 m 371 135 q 476 178 436 135 q 517 317 517 221 l 517 625 q 461 636 489 632 q 403 640 433 640 q 269 581 311 640 q 228 379 228 522 q 261 191 228 247 q 371 135 294 135 z "},"ğ":{"ha":771,"x_min":50,"x_max":692,"o":"m 336 -306 q 217 -297 278 -306 q 104 -274 157 -289 l 117 -142 q 219 -165 169 -157 q 315 -172 268 -172 q 470 -120 418 -172 q 524 60 522 -68 l 524 103 l 517 103 q 318 11 447 11 q 117 97 183 11 q 50 363 50 183 q 143 662 50 561 q 407 763 236 763 q 537 753 471 763 q 692 719 603 743 l 692 92 q 667 -88 692 -12 q 597 -212 643 -164 q 485 -283 551 -260 q 336 -306 419 -306 m 371 135 q 476 178 436 135 q 517 317 517 221 l 517 625 q 461 636 489 632 q 403 640 433 640 q 269 581 311 640 q 228 379 228 522 q 261 191 228 247 q 371 135 294 135 m 401 854 q 219 911 279 854 q 154 1071 158 968 l 278 1071 q 401 950 278 950 q 525 1071 522 950 l 647 1071 q 584 911 644 968 q 401 854 524 854 z "},"ĝ":{"ha":771,"x_min":50,"x_max":692,"o":"m 186 988 l 410 1089 l 633 988 l 633 863 l 410 964 l 186 863 l 186 988 m 336 -306 q 217 -297 278 -306 q 104 -274 157 -289 l 117 -142 q 219 -165 169 -157 q 315 -172 268 -172 q 470 -120 418 -172 q 524 60 522 -68 l 524 103 l 517 103 q 318 11 447 11 q 117 97 183 11 q 50 363 50 183 q 143 662 50 561 q 407 763 236 763 q 537 753 471 763 q 692 719 603 743 l 692 92 q 667 -88 692 -12 q 597 -212 643 -164 q 485 -283 551 -260 q 336 -306 419 -306 m 371 135 q 476 178 436 135 q 517 317 517 221 l 517 625 q 461 636 489 632 q 403 640 433 640 q 269 581 311 640 q 228 379 228 522 q 261 191 228 247 q 371 135 294 135 z "},"ģ":{"ha":771,"x_min":50,"x_max":692,"o":"m 588 1096 l 525 888 l 349 888 l 456 1096 l 588 1096 m 336 -306 q 217 -297 278 -306 q 104 -274 157 -289 l 117 -142 q 219 -165 169 -157 q 315 -172 268 -172 q 470 -120 418 -172 q 524 60 522 -68 l 524 103 l 517 103 q 318 11 447 11 q 117 97 183 11 q 50 363 50 183 q 143 662 50 561 q 407 763 236 763 q 537 753 471 763 q 692 719 603 743 l 692 92 q 667 -88 692 -12 q 597 -212 643 -164 q 485 -283 551 -260 q 336 -306 419 -306 m 371 135 q 476 178 436 135 q 517 317 517 221 l 517 625 q 461 636 489 632 q 403 640 433 640 q 269 581 311 640 q 228 379 228 522 q 261 191 228 247 q 371 135 294 135 z "},"ġ":{"ha":771,"x_min":50,"x_max":692,"o":"m 336 -306 q 217 -297 278 -306 q 104 -274 157 -289 l 117 -142 q 219 -165 169 -157 q 315 -172 268 -172 q 470 -120 418 -172 q 524 60 522 -68 l 524 103 l 517 103 q 318 11 447 11 q 117 97 183 11 q 50 363 50 183 q 143 662 50 561 q 407 763 236 763 q 537 753 471 763 q 692 719 603 743 l 692 92 q 667 -88 692 -12 q 597 -212 643 -164 q 485 -283 551 -260 q 336 -306 419 -306 m 371 135 q 476 178 436 135 q 517 317 517 221 l 517 625 q 461 636 489 632 q 403 640 433 640 q 269 581 311 640 q 228 379 228 522 q 261 191 228 247 q 371 135 294 135 m 403 858 q 327 882 351 858 q 303 958 303 906 q 327 1033 303 1010 q 403 1056 351 1056 q 480 1033 454 1056 q 506 958 506 1010 q 480 882 506 906 q 403 858 454 858 z "},"ß":{"ha":890,"x_min":81,"x_max":861,"o":"m 81 810 q 164 1051 81 975 q 425 1128 247 1128 q 687 1051 603 1128 q 771 810 771 975 l 771 633 l 640 633 q 548 607 581 631 q 515 542 515 583 q 549 473 515 492 q 636 443 582 454 q 722 421 681 435 q 794 383 763 407 q 843 319 825 358 q 861 218 861 279 q 788 47 861 108 q 579 -15 714 -15 q 471 -6 528 -15 q 347 19 414 3 l 347 149 q 461 123 403 132 q 572 114 519 114 q 693 207 693 114 q 666 273 693 250 q 581 307 639 296 q 504 322 544 313 q 430 355 464 332 q 374 420 396 378 q 351 536 351 463 q 417 697 351 636 q 596 764 482 757 l 596 810 q 557 948 596 907 q 426 989 518 989 q 295 949 335 989 q 256 810 256 908 l 256 0 l 81 0 l 81 810 z "},">":{"ha":726,"x_min":81,"x_max":678,"o":"m 82 322 l 503 506 l 81 690 l 81 828 l 678 567 l 678 447 l 82 186 l 82 322 z "},"≥":{"ha":754,"x_min":78,"x_max":683,"o":"m 85 847 l 683 625 l 683 504 l 88 282 l 88 419 l 515 564 l 85 711 l 85 847 m 78 221 l 675 221 l 675 96 l 78 96 l 78 221 z "},"«":{"ha":789,"x_min":42,"x_max":742,"o":"m 42 372 l 42 378 l 211 708 l 389 708 l 219 378 l 219 372 l 389 42 l 211 42 l 42 372 m 394 372 l 394 378 l 564 708 l 742 708 l 572 378 l 572 372 l 742 42 l 564 42 l 394 372 z "},"‹":{"ha":435,"x_min":42,"x_max":389,"o":"m 42 372 l 42 378 l 211 708 l 389 708 l 219 378 l 219 372 l 389 42 l 211 42 l 42 372 z "},"»":{"ha":789,"x_min":47,"x_max":749,"o":"m 224 42 l 47 42 l 217 372 l 217 378 l 47 708 l 224 708 l 394 378 l 394 372 l 224 42 m 578 42 l 401 42 l 571 372 l 571 378 l 401 708 l 578 708 l 749 378 l 749 372 l 578 42 z "},"›":{"ha":435,"x_min":47,"x_max":394,"o":"m 224 42 l 47 42 l 217 372 l 217 378 l 47 708 l 224 708 l 394 378 l 394 372 l 224 42 z "},"ħ":{"ha":768,"x_min":-33,"x_max":690,"o":"m -33 989 l 81 989 l 81 1122 l 256 1122 l 256 989 l 446 989 l 446 882 l 256 882 l 256 672 q 332 715 297 697 q 397 743 367 732 q 456 759 428 754 q 513 764 485 764 q 645 713 600 764 q 690 563 690 663 l 690 0 l 517 0 l 517 506 q 496 590 517 564 q 432 615 475 615 q 256 556 358 615 l 256 0 l 81 0 l 81 882 l -33 882 l -33 989 z "},"ĥ":{"ha":768,"x_min":81,"x_max":690,"o":"m 179 1265 l 403 1367 l 626 1265 l 626 1140 l 403 1242 l 179 1140 l 179 1265 m 81 1122 l 256 1122 l 256 672 q 332 715 297 697 q 397 743 367 732 q 456 759 428 754 q 513 764 485 764 q 645 713 600 764 q 690 563 690 663 l 690 0 l 517 0 l 517 506 q 496 590 517 564 q 432 615 475 615 q 256 556 358 615 l 256 0 l 81 0 l 81 1122 z "},"ḥ":{"ha":768,"x_min":81,"x_max":690,"o":"m 81 1122 l 256 1122 l 256 672 q 332 715 297 697 q 397 743 367 732 q 456 759 428 754 q 513 764 485 764 q 645 713 600 764 q 690 563 690 663 l 690 0 l 517 0 l 517 506 q 496 590 517 564 q 432 615 475 615 q 256 556 358 615 l 256 0 l 81 0 l 81 1122 m 389 -269 q 324 -250 344 -269 q 304 -186 304 -231 q 324 -123 304 -142 q 389 -104 344 -104 q 453 -123 433 -104 q 474 -186 474 -142 q 453 -250 474 -231 q 389 -269 433 -269 z "},"˝":{"ha":586,"x_min":47,"x_max":557,"o":"m 47 863 l 143 1118 l 303 1118 l 151 849 l 47 863 m 303 863 l 397 1118 l 557 1118 l 407 849 l 303 863 z "},"-":{"ha":568,"x_min":74,"x_max":494,"o":"m 74 456 l 494 456 l 494 322 l 74 322 l 74 456 z "},"í":{"ha":339,"x_min":82,"x_max":386,"o":"m 111 858 l 206 1117 l 386 1117 l 236 847 l 111 858 m 82 750 l 256 750 l 256 0 l 82 0 l 82 750 z "},"ĭ":{"ha":340,"x_min":-58,"x_max":407,"o":"m 175 854 q 3 911 61 854 q -58 1071 -56 968 l 57 1071 q 175 950 57 950 q 292 1071 292 950 l 407 1071 q 346 911 403 968 q 175 854 289 854 m 83 750 l 257 750 l 257 0 l 83 0 l 83 750 z "},"î":{"ha":340,"x_min":-39,"x_max":400,"o":"m -39 988 l 181 1089 l 400 988 l 400 863 l 181 964 l -39 863 l -39 988 m 83 750 l 257 750 l 257 0 l 83 0 l 83 750 z "},"ȉ":{"ha":340,"x_min":-146,"x_max":364,"o":"m 6 849 l -146 1118 l 15 1118 l 110 863 l 6 849 m 261 849 l 110 1118 l 269 1118 l 364 863 l 261 849 m 83 750 l 257 750 l 257 0 l 83 0 l 83 750 z "},"ï":{"ha":340,"x_min":-68,"x_max":417,"o":"m 24 868 q -68 958 -68 868 q -46 1025 -68 1004 q 24 1046 -24 1046 q 115 958 115 1046 q 24 868 115 868 m 325 868 q 233 958 233 868 q 256 1025 233 1004 q 325 1046 278 1046 q 417 958 417 1046 q 325 868 417 868 m 83 750 l 257 750 l 257 0 l 83 0 l 83 750 z "},"ị":{"ha":338,"x_min":69,"x_max":271,"o":"m 169 881 q 93 904 117 881 q 69 979 69 928 q 93 1054 69 1031 q 169 1078 117 1078 q 271 979 271 1078 q 247 905 271 929 q 169 881 222 881 m 82 750 l 256 750 l 256 0 l 82 0 l 82 750 m 169 -269 q 105 -250 125 -269 q 85 -186 85 -231 q 105 -123 85 -142 q 169 -104 125 -104 q 234 -123 214 -104 q 254 -186 254 -142 q 234 -250 254 -231 q 169 -269 214 -269 z "},"ì":{"ha":339,"x_min":-43,"x_max":256,"o":"m 82 750 l 256 750 l 256 0 l 82 0 l 82 750 m 108 849 l -43 1118 l 139 1118 l 233 863 l 108 849 z "},"ȋ":{"ha":340,"x_min":-51,"x_max":415,"o":"m -51 864 q 10 1024 -49 967 q 182 1081 68 1081 q 353 1024 296 1081 q 415 864 411 968 l 300 864 q 269 956 299 926 q 182 985 239 985 q 95 956 125 985 q 64 864 65 926 l -51 864 m 83 750 l 257 750 l 257 0 l 83 0 l 83 750 z "},"ĳ":{"ha":675,"x_min":69,"x_max":607,"o":"m 169 881 q 93 904 117 881 q 69 979 69 928 q 93 1054 69 1031 q 169 1078 117 1078 q 271 979 271 1078 q 247 905 271 929 q 169 881 222 881 m 82 750 l 256 750 l 256 0 l 82 0 l 82 750 m 506 881 q 429 904 453 881 q 406 979 406 928 q 429 1054 406 1031 q 506 1078 453 1078 q 583 1053 558 1078 q 607 979 607 1029 q 583 905 607 929 q 506 881 558 881 m 344 -269 q 401 -70 382 -178 q 421 169 421 38 q 421 214 421 172 q 421 317 421 256 q 420 451 421 379 q 419 585 419 522 q 419 694 419 649 q 419 750 419 740 l 594 750 l 594 111 q 583 3 593 58 q 557 -106 574 -51 q 517 -210 540 -160 q 465 -306 494 -261 l 344 -269 z "},"ī":{"ha":340,"x_min":-46,"x_max":394,"o":"m 83 750 l 257 750 l 257 0 l 83 0 l 83 750 m -46 1000 l 394 1000 l 394 885 l -46 885 l -46 1000 z "},"∞":{"ha":1268,"x_min":53,"x_max":1215,"o":"m 338 179 q 223 198 275 179 q 133 251 171 217 q 74 332 94 285 q 53 436 53 379 q 74 534 53 489 q 134 613 96 579 q 224 665 172 646 q 338 683 276 683 q 497 646 421 683 q 633 538 572 608 q 768 642 697 600 q 931 683 839 683 q 1045 665 993 683 q 1135 613 1097 646 q 1194 533 1172 579 q 1215 433 1215 488 q 1194 333 1215 379 q 1134 252 1172 286 q 1044 199 1096 218 q 931 179 992 179 q 778 215 849 179 q 633 336 708 251 q 569 277 601 306 q 503 227 538 249 q 428 192 468 206 q 338 179 388 179 m 358 294 q 456 327 407 294 q 567 438 506 360 q 464 538 517 506 q 353 569 411 569 q 251 533 290 569 q 211 436 211 496 q 252 334 211 374 q 358 294 293 294 m 915 294 q 1018 332 979 294 q 1057 433 1057 369 q 1015 531 1057 492 q 911 569 974 569 q 800 535 854 569 q 701 435 746 501 q 814 326 765 357 q 915 294 863 294 z "},"∫":{"ha":476,"x_min":13,"x_max":464,"o":"m 142 -286 q 78 -280 110 -286 q 13 -264 46 -274 l 33 -158 q 74 -164 56 -161 q 113 -167 93 -167 q 172 -151 149 -167 q 196 -89 196 -135 l 196 -75 l 125 856 q 124 870 124 863 q 124 885 124 878 q 171 1026 124 982 q 296 1069 218 1069 q 376 1063 336 1069 q 464 1046 417 1057 q 460 1027 464 1043 q 453 992 457 1011 q 447 958 450 974 q 444 942 444 943 q 403 951 422 947 q 364 954 383 954 q 307 937 331 954 q 283 872 283 919 q 283 864 283 869 q 285 856 283 858 l 356 -83 q 356 -96 356 -89 q 357 -108 357 -103 q 340 -191 357 -157 q 295 -246 324 -225 q 227 -276 267 -267 q 142 -286 188 -286 z "},"į":{"ha":338,"x_min":-10,"x_max":271,"o":"m 82 750 l 256 750 l 256 -17 q 142 -87 176 -49 q 108 -158 108 -125 q 164 -201 108 -201 q 210 -197 185 -201 q 256 -185 235 -192 l 256 -289 q 204 -301 229 -297 q 151 -306 179 -306 q -10 -176 -10 -306 q 19 -85 -10 -128 q 111 0 49 -42 l 82 0 l 82 750 m 169 881 q 93 904 117 881 q 69 979 69 928 q 93 1054 69 1031 q 169 1078 117 1078 q 271 979 271 1078 q 247 905 271 929 q 169 881 222 881 z "},"ĩ":{"ha":340,"x_min":-82,"x_max":440,"o":"m -82 919 q 1 1015 -46 982 q 93 1047 47 1047 q 148 1037 122 1047 q 199 1013 174 1026 q 251 990 225 1000 q 304 979 276 979 q 353 992 329 979 q 400 1036 376 1006 l 440 992 q 360 894 407 926 q 267 863 313 863 q 213 873 239 863 q 160 896 186 883 q 109 919 135 908 q 57 929 83 929 q -43 875 6 929 l -82 919 m 83 750 l 257 750 l 257 0 l 83 0 l 83 750 z "},"ĵ":{"ha":336,"x_min":-50,"x_max":389,"o":"m -50 988 l 169 1090 l 389 988 l 389 864 l 169 964 l -50 864 l -50 988 m 3 -278 q 40 -167 25 -219 q 65 -59 56 -115 q 80 63 75 -3 q 85 214 85 129 q 85 297 85 233 q 84 440 85 360 q 83 605 83 521 q 81 750 82 689 l 254 750 l 254 110 q 217 -103 247 0 q 129 -306 188 -206 l 3 -278 z "},"ķ":{"ha":725,"x_min":81,"x_max":736,"o":"m 308 -96 l 488 -96 l 381 -306 l 246 -306 l 308 -96 m 81 1122 l 256 1122 l 256 449 l 336 449 l 521 750 l 711 750 l 481 400 l 451 388 l 451 383 l 482 371 l 736 0 l 544 0 l 335 324 l 256 324 l 256 0 l 81 0 l 81 1122 z "},"ĸ":{"ha":719,"x_min":81,"x_max":726,"o":"m 81 750 l 256 750 l 256 449 l 347 449 l 513 750 l 703 750 l 490 399 l 463 388 l 463 383 l 492 372 l 726 0 l 536 0 l 346 324 l 256 324 l 256 0 l 81 0 l 81 750 z "},"ĺ":{"ha":340,"x_min":83,"x_max":382,"o":"m 107 1172 l 201 1431 l 382 1431 l 232 1161 l 107 1172 m 83 1122 l 258 1122 l 258 0 l 83 0 l 83 1122 z "},"ľ":{"ha":342,"x_min":83,"x_max":472,"o":"m 331 1122 l 472 1122 l 422 806 l 331 806 l 331 1122 m 83 1122 l 258 1122 l 258 0 l 83 0 l 83 1122 z "},"ļ":{"ha":340,"x_min":28,"x_max":269,"o":"m 90 -96 l 269 -96 l 163 -306 l 28 -306 l 90 -96 m 83 1122 l 258 1122 l 258 0 l 83 0 l 83 1122 z "},"ŀ":{"ha":506,"x_min":83,"x_max":524,"o":"m 83 1122 l 258 1122 l 258 0 l 83 0 l 83 1122 m 422 415 q 345 438 369 415 q 321 514 321 461 q 345 590 321 567 q 422 614 369 614 q 499 590 475 614 q 524 514 524 567 q 499 438 524 461 q 422 415 475 415 z "},"<":{"ha":726,"x_min":49,"x_max":646,"o":"m 49 447 l 49 567 l 646 828 l 646 690 l 222 506 l 644 322 l 644 186 l 49 447 z "},"≤":{"ha":754,"x_min":74,"x_max":674,"o":"m 75 625 l 674 847 l 674 711 l 243 564 l 672 419 l 672 282 l 75 504 l 75 625 m 74 221 l 672 221 l 672 96 l 74 96 l 74 221 z "},"₤":{"ha":835,"x_min":64,"x_max":785,"o":"m 64 679 l 233 679 l 233 732 q 306 963 233 889 q 539 1038 379 1038 q 651 1029 592 1038 q 785 1001 710 1021 l 775 858 q 666 881 722 874 q 568 889 610 889 q 447 853 482 889 q 411 729 411 817 l 411 679 l 663 679 l 639 583 l 411 583 l 411 449 l 625 449 l 600 351 l 411 351 l 411 151 l 765 151 l 765 0 l 64 0 l 64 154 l 233 154 l 233 351 l 64 351 l 64 449 l 233 449 l 233 583 l 64 583 l 64 679 z "},"¬":{"ha":1061,"x_min":65,"x_max":979,"o":"m 65 601 l 979 601 l 979 147 l 808 147 l 808 458 l 65 458 l 65 601 z "},"◊":{"ha":754,"x_min":40,"x_max":714,"o":"m 40 506 l 40 525 l 272 1028 l 481 1028 l 714 525 l 714 506 l 481 0 l 272 0 l 40 506 m 549 514 l 376 914 l 204 514 l 376 115 l 549 514 z "},"ł":{"ha":474,"x_min":25,"x_max":454,"o":"m 25 465 l 147 542 l 147 1122 l 322 1122 l 322 653 l 454 736 l 454 606 l 322 522 l 322 0 l 147 0 l 147 411 l 25 333 l 25 465 z "},"m":{"ha":1161,"x_min":81,"x_max":1083,"o":"m 81 750 l 225 750 l 235 668 l 242 668 q 376 742 319 719 q 490 764 433 764 q 650 667 608 764 l 657 667 q 789 742 732 719 q 904 764 846 764 q 1038 713 992 764 q 1083 563 1083 663 l 1083 0 l 911 0 l 911 504 q 890 588 911 563 q 825 614 869 614 q 753 599 793 614 q 668 558 713 585 l 668 0 l 496 0 l 496 504 q 475 588 496 563 q 410 614 454 614 q 336 599 376 614 q 253 557 296 585 l 253 0 l 81 0 l 81 750 z "},"−":{"ha":744,"x_min":78,"x_max":668,"o":"m 78 576 l 668 576 l 668 451 l 78 451 l 78 576 z "},"µ":{"ha":808,"x_min":97,"x_max":707,"o":"m 97 750 l 271 750 l 271 229 q 294 154 271 178 q 361 131 318 131 q 440 145 399 131 q 532 190 481 160 l 532 750 l 707 750 l 707 0 l 560 0 l 549 82 l 543 82 q 467 38 500 56 q 404 8 433 19 q 348 -9 375 -4 q 290 -14 321 -14 q 271 -12 276 -14 l 271 -306 l 97 -306 l 97 750 z "},"×":{"ha":663,"x_min":57,"x_max":606,"o":"m 57 328 l 243 514 l 57 700 l 144 789 l 331 603 l 517 789 l 606 700 l 419 514 l 606 328 l 518 240 l 331 426 l 144 240 l 57 328 z "},"n":{"ha":768,"x_min":81,"x_max":690,"o":"m 81 750 l 229 750 l 239 668 l 246 668 q 394 742 335 719 q 513 764 454 764 q 645 713 600 764 q 690 563 690 663 l 690 0 l 517 0 l 517 506 q 495 590 517 565 q 432 615 474 615 q 349 599 394 615 q 256 556 304 583 l 256 0 l 81 0 l 81 750 z "},"ń":{"ha":768,"x_min":81,"x_max":690,"o":"m 329 858 l 424 1117 l 604 1117 l 454 847 l 329 858 m 81 750 l 229 750 l 239 668 l 246 668 q 394 742 335 719 q 513 764 454 764 q 645 713 600 764 q 690 563 690 663 l 690 0 l 517 0 l 517 506 q 495 590 517 565 q 432 615 474 615 q 349 599 394 615 q 256 556 304 583 l 256 0 l 81 0 l 81 750 z "},"ŉ":{"ha":869,"x_min":33,"x_max":790,"o":"m 175 1122 l 175 1117 l 124 806 l 33 806 l 33 1122 l 175 1122 m 181 750 l 329 750 l 339 668 l 346 668 q 494 742 435 719 q 613 764 554 764 q 745 713 700 764 q 790 563 790 663 l 790 0 l 617 0 l 617 506 q 595 590 617 565 q 532 615 574 615 q 449 599 494 615 q 356 556 404 583 l 356 0 l 181 0 l 181 750 z "},"ň":{"ha":768,"x_min":81,"x_max":690,"o":"m 167 1092 l 390 990 l 614 1092 l 614 967 l 390 865 l 167 967 l 167 1092 m 81 750 l 229 750 l 239 668 l 246 668 q 394 742 335 719 q 513 764 454 764 q 645 713 600 764 q 690 563 690 663 l 690 0 l 517 0 l 517 506 q 495 590 517 565 q 432 615 474 615 q 349 599 394 615 q 256 556 304 583 l 256 0 l 81 0 l 81 750 z "},"ņ":{"ha":768,"x_min":81,"x_max":690,"o":"m 307 -96 l 486 -96 l 379 -306 l 244 -306 l 307 -96 m 81 750 l 229 750 l 239 668 l 246 668 q 394 742 335 719 q 513 764 454 764 q 645 713 600 764 q 690 563 690 663 l 690 0 l 517 0 l 517 506 q 495 590 517 565 q 432 615 474 615 q 349 599 394 615 q 256 556 304 583 l 256 0 l 81 0 l 81 750 z "},"ṅ":{"ha":768,"x_min":81,"x_max":690,"o":"m 390 858 q 315 882 339 858 q 290 958 290 906 q 315 1033 290 1010 q 390 1056 339 1056 q 467 1033 442 1056 q 493 958 493 1010 q 467 882 493 906 q 390 858 442 858 m 81 750 l 229 750 l 239 668 l 246 668 q 394 742 335 719 q 513 764 454 764 q 645 713 600 764 q 690 563 690 663 l 690 0 l 517 0 l 517 506 q 495 590 517 565 q 432 615 474 615 q 349 599 394 615 q 256 556 304 583 l 256 0 l 81 0 l 81 750 z "},"₉":{"ha":617,"x_min":35,"x_max":571,"o":"m 222 -149 q 78 -131 160 -149 l 94 -10 q 165 -24 136 -19 q 218 -28 193 -28 q 360 28 310 -28 q 425 197 411 85 q 349 158 390 172 q 268 144 308 144 q 98 204 161 144 q 35 368 35 264 q 53 476 35 428 q 106 559 72 525 q 190 612 140 593 q 300 631 239 631 q 502 542 433 631 q 571 281 571 453 q 483 -40 571 69 q 222 -149 394 -149 m 300 246 q 367 261 332 246 q 429 303 401 276 q 300 506 424 506 q 211 469 242 506 q 181 371 181 433 q 300 246 181 246 z "},"⁹":{"ha":617,"x_min":35,"x_max":571,"o":"m 222 407 q 156 411 192 407 q 78 426 121 415 l 94 546 q 165 532 136 536 q 218 528 193 528 q 360 584 310 528 q 425 753 411 640 q 349 714 390 728 q 268 700 308 700 q 98 760 161 700 q 35 924 35 819 q 53 1032 35 983 q 106 1115 72 1081 q 190 1167 140 1149 q 300 1186 239 1186 q 502 1097 433 1186 q 571 836 571 1008 q 483 516 571 625 q 222 407 394 407 m 300 801 q 367 817 332 801 q 429 858 401 832 q 300 1061 424 1061 q 211 1025 242 1061 q 181 926 181 989 q 300 801 181 801 z "},"≠":{"ha":694,"x_min":64,"x_max":631,"o":"m 64 704 l 338 704 l 374 840 l 493 810 l 464 704 l 631 704 l 631 578 l 431 578 l 385 403 l 631 403 l 631 275 l 350 275 l 310 122 l 189 153 l 221 275 l 64 275 l 64 403 l 256 403 l 303 578 l 64 578 l 64 704 z "},"ñ":{"ha":768,"x_min":81,"x_max":690,"o":"m 81 750 l 229 750 l 239 668 l 246 668 q 394 742 335 719 q 513 764 454 764 q 645 713 600 764 q 690 563 690 663 l 690 0 l 517 0 l 517 506 q 495 590 517 565 q 432 615 474 615 q 349 599 394 615 q 256 556 304 583 l 256 0 l 81 0 l 81 750 m 132 919 q 216 1015 168 982 q 310 1047 264 1047 q 366 1037 339 1047 q 419 1013 393 1026 q 470 990 444 1000 q 524 979 496 979 q 575 992 551 979 q 622 1036 599 1006 l 664 992 q 581 894 629 926 q 486 863 533 863 q 431 873 457 863 q 378 896 404 883 q 325 919 351 908 q 272 929 299 929 q 171 875 219 929 l 132 919 z "},"#":{"ha":747,"x_min":57,"x_max":690,"o":"m 422 296 l 282 296 l 258 0 l 136 0 l 160 296 l 57 296 l 57 410 l 169 410 l 186 618 l 57 618 l 57 732 l 194 732 l 219 1028 l 342 1028 l 317 732 l 457 732 l 482 1028 l 606 1028 l 581 732 l 690 732 l 690 618 l 572 618 l 556 410 l 689 410 l 689 296 l 546 296 l 522 0 l 399 0 l 422 296 m 292 410 l 432 410 l 449 618 l 308 618 l 292 410 z "},"o":{"ha":764,"x_min":49,"x_max":715,"o":"m 382 -14 q 133 85 218 -14 q 49 375 49 185 q 133 665 49 567 q 382 764 218 764 q 631 665 546 764 q 715 375 715 567 q 631 85 715 183 q 382 -14 546 -14 m 382 124 q 456 137 425 124 q 505 179 486 150 q 532 256 524 208 q 540 375 540 304 q 531 494 540 446 q 503 571 522 542 q 455 613 485 600 q 382 626 425 626 q 309 613 339 626 q 260 571 279 600 q 233 494 242 542 q 225 375 225 446 q 233 258 225 306 q 260 180 242 210 q 309 137 279 150 q 382 124 339 124 z "},"ó":{"ha":764,"x_min":49,"x_max":715,"o":"m 314 858 l 408 1117 l 589 1117 l 439 847 l 314 858 m 382 -14 q 133 85 218 -14 q 49 375 49 185 q 133 665 49 567 q 382 764 218 764 q 631 665 546 764 q 715 375 715 567 q 631 85 715 183 q 382 -14 546 -14 m 382 124 q 456 137 425 124 q 505 179 486 150 q 532 256 524 208 q 540 375 540 304 q 531 494 540 446 q 503 571 522 542 q 455 613 485 600 q 382 626 425 626 q 309 613 339 626 q 260 571 279 600 q 233 494 242 542 q 225 375 225 446 q 233 258 225 306 q 260 180 242 210 q 309 137 279 150 q 382 124 339 124 z "},"ŏ":{"ha":764,"x_min":49,"x_max":715,"o":"m 382 -14 q 133 85 218 -14 q 49 375 49 185 q 133 665 49 567 q 382 764 218 764 q 631 665 546 764 q 715 375 715 567 q 631 85 715 183 q 382 -14 546 -14 m 382 124 q 456 137 425 124 q 505 179 486 150 q 532 256 524 208 q 540 375 540 304 q 531 494 540 446 q 503 571 522 542 q 455 613 485 600 q 382 626 425 626 q 309 613 339 626 q 260 571 279 600 q 233 494 242 542 q 225 375 225 446 q 233 258 225 306 q 260 180 242 210 q 309 137 279 150 q 382 124 339 124 m 379 854 q 197 911 257 854 q 132 1071 136 968 l 256 1071 q 379 950 256 950 q 503 1071 500 950 l 625 1071 q 562 911 622 968 q 379 854 501 854 z "},"ô":{"ha":764,"x_min":49,"x_max":715,"o":"m 161 988 l 385 1089 l 608 988 l 608 863 l 385 964 l 161 863 l 161 988 m 382 -14 q 133 85 218 -14 q 49 375 49 185 q 133 665 49 567 q 382 764 218 764 q 631 665 546 764 q 715 375 715 567 q 631 85 715 183 q 382 -14 546 -14 m 382 124 q 456 137 425 124 q 505 179 486 150 q 532 256 524 208 q 540 375 540 304 q 531 494 540 446 q 503 571 522 542 q 455 613 485 600 q 382 626 425 626 q 309 613 339 626 q 260 571 279 600 q 233 494 242 542 q 225 375 225 446 q 233 258 225 306 q 260 180 242 210 q 309 137 279 150 q 382 124 339 124 z "},"ȍ":{"ha":764,"x_min":49,"x_max":715,"o":"m 208 849 l 57 1118 l 218 1118 l 313 863 l 208 849 m 464 849 l 313 1118 l 472 1118 l 567 863 l 464 849 m 382 -14 q 133 85 218 -14 q 49 375 49 185 q 133 665 49 567 q 382 764 218 764 q 631 665 546 764 q 715 375 715 567 q 631 85 715 183 q 382 -14 546 -14 m 382 124 q 456 137 425 124 q 505 179 486 150 q 532 256 524 208 q 540 375 540 304 q 531 494 540 446 q 503 571 522 542 q 455 613 485 600 q 382 626 425 626 q 309 613 339 626 q 260 571 279 600 q 233 494 242 542 q 225 375 225 446 q 233 258 225 306 q 260 180 242 210 q 309 137 279 150 q 382 124 339 124 z "},"ö":{"ha":764,"x_min":49,"x_max":715,"o":"m 224 868 q 132 958 132 868 q 154 1025 132 1004 q 224 1046 176 1046 q 315 958 315 1046 q 224 868 315 868 m 533 868 q 442 958 442 868 q 464 1025 442 1004 q 533 1046 486 1046 q 625 958 625 1046 q 533 868 625 868 m 382 -14 q 133 85 218 -14 q 49 375 49 185 q 133 665 49 567 q 382 764 218 764 q 631 665 546 764 q 715 375 715 567 q 631 85 715 183 q 382 -14 546 -14 m 382 124 q 456 137 425 124 q 505 179 486 150 q 532 256 524 208 q 540 375 540 304 q 531 494 540 446 q 503 571 522 542 q 455 613 485 600 q 382 626 425 626 q 309 613 339 626 q 260 571 279 600 q 233 494 242 542 q 225 375 225 446 q 233 258 225 306 q 260 180 242 210 q 309 137 279 150 q 382 124 339 124 z "},"ọ":{"ha":764,"x_min":49,"x_max":715,"o":"m 383 -269 q 319 -250 339 -269 q 299 -186 299 -231 q 319 -123 299 -142 q 383 -104 339 -104 q 448 -123 428 -104 q 468 -186 468 -142 q 448 -250 468 -231 q 383 -269 428 -269 m 382 -14 q 133 85 218 -14 q 49 375 49 185 q 133 665 49 567 q 382 764 218 764 q 631 665 546 764 q 715 375 715 567 q 631 85 715 183 q 382 -14 546 -14 m 382 124 q 456 137 425 124 q 505 179 486 150 q 532 256 524 208 q 540 375 540 304 q 531 494 540 446 q 503 571 522 542 q 455 613 485 600 q 382 626 425 626 q 309 613 339 626 q 260 571 279 600 q 233 494 242 542 q 225 375 225 446 q 233 258 225 306 q 260 180 242 210 q 309 137 279 150 q 382 124 339 124 z "},"œ":{"ha":1197,"x_min":49,"x_max":1149,"o":"m 876 -12 q 728 22 789 -12 q 632 119 668 56 l 622 119 q 382 -14 550 -14 q 133 85 218 -14 q 49 375 49 185 q 133 665 49 567 q 382 764 218 764 q 528 729 468 764 q 624 628 589 694 l 633 628 q 874 763 706 763 q 1149 425 1149 763 q 1147 366 1149 389 q 1142 319 1146 343 l 717 319 q 762 169 721 215 q 888 122 803 122 q 995 132 936 122 q 1115 161 1054 142 l 1122 31 q 1004 -1 1069 11 q 876 -12 939 -12 m 382 124 q 456 137 425 124 q 505 179 486 150 q 532 256 524 208 q 540 375 540 304 q 531 494 540 446 q 503 571 522 542 q 455 613 485 600 q 382 626 425 626 q 309 613 339 626 q 260 571 279 600 q 233 494 242 542 q 225 375 225 446 q 233 258 225 306 q 260 180 242 210 q 309 137 279 150 q 382 124 339 124 m 993 425 q 961 585 990 538 q 868 632 932 632 q 760 582 797 632 q 717 425 722 532 l 993 425 z "},"ò":{"ha":764,"x_min":49,"x_max":715,"o":"m 382 -14 q 133 85 218 -14 q 49 375 49 185 q 133 665 49 567 q 382 764 218 764 q 631 665 546 764 q 715 375 715 567 q 631 85 715 183 q 382 -14 546 -14 m 382 124 q 456 137 425 124 q 505 179 486 150 q 532 256 524 208 q 540 375 540 304 q 531 494 540 446 q 503 571 522 542 q 455 613 485 600 q 382 626 425 626 q 309 613 339 626 q 260 571 279 600 q 233 494 242 542 q 225 375 225 446 q 233 258 225 306 q 260 180 242 210 q 309 137 279 150 q 382 124 339 124 m 313 849 l 161 1118 l 343 1118 l 438 863 l 313 849 z "},"ő":{"ha":764,"x_min":49,"x_max":715,"o":"m 189 863 l 285 1118 l 444 1118 l 293 849 l 189 863 m 444 863 l 539 1118 l 699 1118 l 549 849 l 444 863 m 382 -14 q 133 85 218 -14 q 49 375 49 185 q 133 665 49 567 q 382 764 218 764 q 631 665 546 764 q 715 375 715 567 q 631 85 715 183 q 382 -14 546 -14 m 382 124 q 456 137 425 124 q 505 179 486 150 q 532 256 524 208 q 540 375 540 304 q 531 494 540 446 q 503 571 522 542 q 455 613 485 600 q 382 626 425 626 q 309 613 339 626 q 260 571 279 600 q 233 494 242 542 q 225 375 225 446 q 233 258 225 306 q 260 180 242 210 q 309 137 279 150 q 382 124 339 124 z "},"ȏ":{"ha":764,"x_min":49,"x_max":715,"o":"m 140 864 q 203 1024 143 967 q 386 1081 264 1081 q 569 1024 508 1081 q 632 864 629 968 l 510 864 q 386 985 508 985 q 295 956 326 985 q 263 864 264 926 l 140 864 m 382 -14 q 133 85 218 -14 q 49 375 49 185 q 133 665 49 567 q 382 764 218 764 q 631 665 546 764 q 715 375 715 567 q 631 85 715 183 q 382 -14 546 -14 m 382 124 q 456 137 425 124 q 505 179 486 150 q 532 256 524 208 q 540 375 540 304 q 531 494 540 446 q 503 571 522 542 q 455 613 485 600 q 382 626 425 626 q 309 613 339 626 q 260 571 279 600 q 233 494 242 542 q 225 375 225 446 q 233 258 225 306 q 260 180 242 210 q 309 137 279 150 q 382 124 339 124 z "},"ō":{"ha":764,"x_min":49,"x_max":715,"o":"m 160 1000 l 600 1000 l 600 885 l 160 885 l 160 1000 m 382 -14 q 133 85 218 -14 q 49 375 49 185 q 133 665 49 567 q 382 764 218 764 q 631 665 546 764 q 715 375 715 567 q 631 85 715 183 q 382 -14 546 -14 m 382 124 q 456 137 425 124 q 505 179 486 150 q 532 256 524 208 q 540 375 540 304 q 531 494 540 446 q 503 571 522 542 q 455 613 485 600 q 382 626 425 626 q 309 613 339 626 q 260 571 279 600 q 233 494 242 542 q 225 375 225 446 q 233 258 225 306 q 260 180 242 210 q 309 137 279 150 q 382 124 339 124 z "},"⅛":{"ha":1396,"x_min":32,"x_max":1343,"o":"m 1082 -4 q 887 48 956 -4 q 818 196 818 100 q 846 310 818 264 q 926 389 874 357 q 836 564 836 446 q 903 714 836 660 q 1082 768 969 768 q 1258 714 1193 768 q 1324 564 1324 660 q 1302 460 1324 500 q 1238 396 1281 421 q 1317 322 1290 367 q 1343 211 1343 278 q 1275 52 1343 108 q 1082 -4 1207 -4 m 1082 107 q 1173 134 1140 107 q 1206 213 1206 161 q 1175 286 1206 260 q 1076 335 1144 313 l 1046 344 q 978 291 1001 321 q 956 214 956 261 q 990 135 956 164 q 1082 107 1024 107 m 1108 433 q 1167 480 1144 450 q 1189 557 1189 510 q 1160 631 1189 606 q 1082 656 1131 656 q 1001 629 1031 656 q 971 556 971 603 q 1001 481 971 507 q 1090 438 1031 454 q 1099 435 1092 438 q 1108 433 1107 433 m 747 1028 l 894 1028 l 494 0 l 347 0 l 747 1028 m 215 871 l 76 810 l 57 810 l 32 881 l 35 903 l 256 1036 l 367 1036 l 367 278 l 215 278 l 215 871 z "},"½":{"ha":1376,"x_min":32,"x_max":1317,"o":"m 846 121 q 856 203 846 165 q 890 274 867 240 q 951 339 914 307 q 1043 404 989 371 q 1101 444 1078 426 q 1139 478 1125 461 q 1158 511 1153 494 q 1164 547 1164 528 q 1040 639 1164 639 q 959 633 1003 639 q 879 615 915 626 l 864 739 q 1074 768 990 768 q 1317 563 1317 768 q 1280 433 1317 488 q 1156 322 1243 378 q 1047 233 1079 271 q 1015 156 1015 196 l 1015 126 l 1314 126 l 1314 0 l 846 0 l 846 121 m 747 1028 l 894 1028 l 494 0 l 347 0 l 747 1028 m 215 871 l 76 810 l 57 810 l 32 881 l 35 903 l 256 1036 l 367 1036 l 367 278 l 215 278 l 215 871 z "},"₁":{"ha":439,"x_min":17,"x_max":351,"o":"m 200 454 l 61 393 l 42 393 l 17 464 l 19 486 l 240 619 l 351 619 l 351 -139 l 200 -139 l 200 454 z "},"¼":{"ha":1347,"x_min":32,"x_max":1308,"o":"m 1067 163 l 769 163 l 747 254 l 993 756 l 1008 763 l 1135 750 l 1144 729 l 900 278 l 1079 278 l 1121 504 l 1219 504 l 1219 278 l 1308 278 l 1308 163 l 1219 163 l 1219 0 l 1067 0 l 1067 163 m 747 1028 l 894 1028 l 494 0 l 347 0 l 747 1028 m 215 871 l 76 810 l 57 810 l 32 881 l 35 903 l 256 1036 l 367 1036 l 367 278 l 215 278 l 215 871 z "},"¹":{"ha":439,"x_min":17,"x_max":351,"o":"m 200 1010 l 61 949 l 42 949 l 17 1019 l 19 1042 l 240 1175 l 351 1175 l 351 417 l 200 417 l 200 1010 z "},"⅓":{"ha":1360,"x_min":32,"x_max":1307,"o":"m 747 1028 l 894 1028 l 494 0 l 347 0 l 747 1028 m 215 871 l 76 810 l 57 810 l 32 881 l 35 903 l 256 1036 l 367 1036 l 367 278 l 215 278 l 215 871 m 1032 -10 q 874 6 946 -10 l 874 135 l 885 135 q 943 124 908 128 q 1007 121 978 121 q 1122 147 1086 121 q 1157 222 1157 172 q 1119 303 1157 278 q 994 329 1082 329 l 947 329 l 947 443 l 994 443 q 1102 468 1068 443 q 1136 543 1136 493 q 1107 616 1136 592 q 1014 640 1078 640 q 888 625 964 640 l 875 625 l 871 751 q 949 765 907 760 q 1029 769 990 769 q 1288 569 1288 769 q 1258 459 1288 504 q 1174 393 1229 414 q 1273 325 1239 372 q 1307 207 1307 278 q 1235 47 1307 103 q 1032 -10 1164 -10 z "},"ǫ":{"ha":764,"x_min":49,"x_max":715,"o":"m 410 -282 q 249 -153 249 -282 q 324 -10 249 -75 q 119 104 189 7 q 49 375 49 201 q 133 665 49 567 q 382 764 218 764 q 631 665 546 764 q 715 375 715 567 q 508 4 715 74 q 400 -65 433 -28 q 367 -135 367 -101 q 422 -178 367 -178 q 468 -173 443 -178 q 514 -161 493 -168 l 514 -265 q 463 -278 488 -274 q 410 -282 438 -282 m 382 124 q 456 137 425 124 q 505 179 486 150 q 532 256 524 208 q 540 375 540 304 q 531 494 540 446 q 503 571 522 542 q 455 613 485 600 q 382 626 425 626 q 309 613 339 626 q 260 571 279 600 q 233 494 242 542 q 225 375 225 446 q 233 258 225 306 q 260 180 242 210 q 309 137 279 150 q 382 124 339 124 z "},"ª":{"ha":578,"x_min":46,"x_max":504,"o":"m 200 483 q 88 526 129 483 q 46 639 46 568 q 96 754 46 713 q 242 803 146 796 l 363 811 l 363 831 q 358 881 363 861 q 343 912 354 901 q 312 926 332 922 q 261 931 292 931 q 190 928 231 931 q 100 917 149 925 l 90 1017 q 192 1031 144 1026 q 281 1036 240 1036 q 452 995 400 1036 q 504 864 504 954 l 504 489 l 385 489 l 376 554 l 371 554 q 200 483 289 483 m 253 583 q 363 624 296 583 l 363 729 l 299 724 q 211 702 235 718 q 188 650 188 686 q 253 583 188 583 z "},"º":{"ha":608,"x_min":49,"x_max":560,"o":"m 304 585 q 356 592 335 585 q 392 620 378 600 q 413 674 406 640 q 419 758 419 707 q 413 844 419 810 q 392 897 406 878 q 356 925 378 917 q 304 933 335 933 q 251 925 274 933 q 215 897 229 917 q 195 844 201 878 q 189 758 189 810 q 195 674 189 707 q 215 620 201 640 q 251 592 229 600 q 304 585 274 585 m 304 479 q 115 548 182 479 q 49 758 49 617 q 115 969 49 900 q 304 1038 182 1038 q 493 969 426 1038 q 560 758 560 900 q 493 548 560 617 q 304 479 426 479 z "},"ø":{"ha":772,"x_min":17,"x_max":754,"o":"m 114 118 q 53 375 53 211 q 136 665 53 565 q 386 764 219 764 q 594 701 513 764 l 635 750 l 754 750 l 658 633 q 721 375 721 538 q 637 85 721 185 q 386 -14 553 -14 q 176 49 256 -14 l 136 0 l 17 0 l 114 118 m 386 124 q 461 137 431 124 q 510 180 492 150 q 537 258 529 210 q 544 375 544 306 q 542 435 544 407 q 538 486 540 463 l 272 165 q 386 124 308 124 m 229 375 q 231 316 229 343 q 235 265 232 289 l 499 585 q 386 626 463 626 q 311 613 342 626 q 263 570 281 600 q 237 492 244 540 q 229 375 229 444 z "},"ǿ":{"ha":772,"x_min":17,"x_max":754,"o":"m 114 118 q 53 375 53 211 q 136 665 53 565 q 386 764 219 764 q 594 701 513 764 l 635 750 l 754 750 l 658 633 q 721 375 721 538 q 637 85 721 185 q 386 -14 553 -14 q 176 49 256 -14 l 136 0 l 17 0 l 114 118 m 386 124 q 461 137 431 124 q 510 180 492 150 q 537 258 529 210 q 544 375 544 306 q 542 435 544 407 q 538 486 540 463 l 272 165 q 386 124 308 124 m 229 375 q 231 316 229 343 q 235 265 232 289 l 499 585 q 386 626 463 626 q 311 613 342 626 q 263 570 281 600 q 237 492 244 540 q 229 375 229 444 m 315 858 l 410 1117 l 590 1117 l 440 847 l 315 858 z "},"õ":{"ha":764,"x_min":49,"x_max":715,"o":"m 382 -14 q 133 85 218 -14 q 49 375 49 185 q 133 665 49 567 q 382 764 218 764 q 631 665 546 764 q 715 375 715 567 q 631 85 715 183 q 382 -14 546 -14 m 382 124 q 456 137 425 124 q 505 179 486 150 q 532 256 524 208 q 540 375 540 304 q 531 494 540 446 q 503 571 522 542 q 455 613 485 600 q 382 626 425 626 q 309 613 339 626 q 260 571 279 600 q 233 494 242 542 q 225 375 225 446 q 233 258 225 306 q 260 180 242 210 q 309 137 279 150 q 382 124 339 124 m 119 919 q 203 1015 156 982 q 297 1047 251 1047 q 353 1037 326 1047 q 406 1013 381 1026 q 458 990 432 1000 q 511 979 483 979 q 563 992 539 979 q 610 1036 586 1006 l 651 992 q 569 894 617 926 q 474 863 521 863 q 418 873 444 863 q 365 896 392 883 q 313 919 339 908 q 260 929 286 929 q 158 875 207 929 l 119 919 z "},"p":{"ha":772,"x_min":81,"x_max":722,"o":"m 81 750 l 238 750 l 249 669 l 256 669 q 342 738 290 714 q 458 763 393 763 q 722 394 722 763 q 701 226 722 301 q 635 97 679 150 q 523 15 590 44 q 364 -14 456 -14 q 310 -11 338 -14 q 256 -4 283 -8 l 256 -306 l 81 -306 l 81 750 m 367 108 q 448 122 414 108 q 503 168 482 136 q 535 251 525 200 q 544 376 544 303 q 537 497 544 447 q 512 576 529 546 q 467 620 494 607 q 401 633 440 633 q 296 588 336 633 q 256 440 256 543 l 256 124 q 309 113 281 117 q 367 108 338 108 z "},"¶":{"ha":774,"x_min":43,"x_max":660,"o":"m 468 0 l 381 0 l 381 369 q 353 368 365 368 q 326 368 340 368 q 209 385 261 368 q 120 442 157 403 q 63 544 83 481 q 43 701 43 608 q 63 858 43 794 q 121 961 83 922 q 211 1017 158 1000 q 329 1035 264 1035 q 397 1031 361 1035 q 468 1021 432 1028 l 468 0 m 660 0 l 547 0 l 547 1021 l 660 1021 l 660 0 z "},"(":{"ha":425,"x_min":46,"x_max":414,"o":"m 260 -222 q 100 116 154 -67 q 46 492 46 299 q 100 868 46 686 q 260 1206 154 1050 l 414 1206 l 414 1200 q 249 865 308 1046 q 190 492 190 685 q 249 118 190 299 q 414 -217 308 -62 l 414 -222 l 260 -222 l 260 -222 z "},")":{"ha":425,"x_min":13,"x_max":378,"o":"m 13 -222 l 13 -217 q 176 118 117 -62 q 235 492 235 299 q 176 865 235 685 q 13 1200 117 1046 l 13 1206 l 165 1206 q 324 868 271 1050 q 378 492 378 686 q 324 116 378 299 q 165 -222 271 -67 l 13 -222 z "},"∂":{"ha":742,"x_min":49,"x_max":678,"o":"m 367 -6 q 230 23 289 -6 q 131 101 171 51 q 69 219 90 151 q 49 365 49 286 q 69 498 49 438 q 126 603 89 558 q 215 672 163 647 q 331 697 267 697 q 422 677 379 697 q 501 622 464 657 q 324 907 475 907 q 235 887 285 907 q 150 838 186 867 l 103 940 q 210 1013 146 985 q 336 1042 275 1042 q 590 893 501 1042 q 678 461 678 744 q 656 263 678 350 q 594 117 635 176 q 495 26 553 57 q 367 -6 438 -6 m 364 126 q 426 144 399 126 q 471 199 453 161 q 499 297 489 236 q 508 443 508 357 l 508 501 q 445 551 478 533 q 372 568 413 568 q 264 513 308 568 q 219 365 219 458 q 258 192 219 258 q 364 126 296 126 z "},"%":{"ha":1297,"x_min":43,"x_max":1256,"o":"m 292 388 q 106 469 169 388 q 43 714 43 551 q 106 958 43 875 q 292 1042 169 1042 q 477 958 414 1042 q 540 714 540 875 q 477 469 540 551 q 292 388 414 388 m 292 503 q 381 553 353 503 q 408 714 408 603 q 380 875 408 825 q 292 925 351 925 q 203 874 232 925 q 175 714 175 824 q 203 553 175 603 q 292 503 231 503 m 1007 -15 q 821 67 885 -15 q 757 311 757 149 q 821 556 757 472 q 1007 639 885 639 q 1192 556 1129 639 q 1256 311 1256 472 q 1192 67 1256 149 q 1007 -15 1129 -15 m 1007 100 q 1094 150 1067 100 q 1122 311 1122 200 q 1094 472 1122 422 q 1007 522 1065 522 q 917 472 946 522 q 889 311 889 421 q 917 150 889 200 q 1007 100 946 100 m 774 1028 l 921 1028 l 521 0 l 374 0 l 774 1028 z "},"‰":{"ha":1854,"x_min":43,"x_max":1811,"o":"m 292 388 q 106 469 169 388 q 43 714 43 551 q 106 958 43 875 q 292 1042 169 1042 q 477 958 414 1042 q 540 714 540 875 q 477 469 540 551 q 292 388 414 388 m 292 503 q 381 553 353 503 q 408 714 408 603 q 380 874 408 824 q 292 925 351 925 q 203 874 232 925 q 175 714 175 824 q 203 553 175 603 q 292 503 231 503 m 1007 -15 q 821 67 885 -15 q 757 311 757 149 q 821 556 757 472 q 1007 639 885 639 q 1192 556 1129 639 q 1256 311 1256 472 q 1192 67 1256 149 q 1007 -15 1129 -15 m 1007 100 q 1094 150 1067 100 q 1122 311 1122 200 q 1094 472 1122 421 q 1007 522 1065 522 q 917 472 946 522 q 889 311 889 421 q 917 150 889 200 q 1007 100 946 100 m 1563 -15 q 1377 67 1440 -15 q 1314 311 1314 150 q 1377 556 1314 472 q 1563 639 1440 639 q 1749 556 1686 639 q 1811 311 1811 472 q 1749 67 1811 150 q 1563 -15 1686 -15 m 1563 100 q 1652 150 1625 100 q 1679 311 1679 200 q 1651 472 1679 421 q 1563 522 1624 522 q 1474 472 1503 522 q 1446 311 1446 421 q 1474 151 1446 201 q 1563 100 1501 100 m 774 1028 l 921 1028 l 521 0 l 374 0 l 774 1028 z "},"π":{"ha":1018,"x_min":8,"x_max":989,"o":"m 283 603 l 257 603 q 173 581 201 603 q 135 513 144 560 l 8 549 q 249 750 31 750 l 939 750 l 989 706 l 989 603 l 803 603 l 803 225 q 892 124 803 124 q 916 125 901 124 q 942 131 931 126 l 942 -1 q 897 -8 925 -6 q 847 -11 869 -11 q 693 40 747 -11 q 639 186 639 90 l 639 603 l 447 603 l 447 -144 l 283 -144 l 283 603 z "},"+":{"ha":690,"x_min":50,"x_max":640,"o":"m 50 576 l 283 576 l 283 804 l 407 804 l 407 576 l 640 576 l 640 451 l 407 451 l 407 224 l 283 224 l 283 451 l 50 451 l 50 576 z "},"±":{"ha":728,"x_min":76,"x_max":651,"o":"m 76 654 l 301 654 l 301 882 l 425 882 l 425 654 l 650 654 l 650 531 l 425 531 l 425 310 l 301 310 l 301 531 l 76 531 l 76 654 m 76 219 l 651 219 l 651 96 l 76 96 l 76 219 z "},"∏":{"ha":986,"x_min":108,"x_max":878,"o":"m 108 1028 l 878 1028 l 878 -156 l 703 -156 l 703 881 l 282 881 l 282 -156 l 108 -156 l 108 1028 z "},"q":{"ha":771,"x_min":49,"x_max":690,"o":"m 518 79 q 315 -12 447 -12 q 49 360 49 -12 q 141 662 49 561 q 414 763 233 763 q 554 754 483 763 q 690 731 625 746 l 690 -306 l 518 -306 l 518 79 m 371 115 q 476 163 438 115 q 515 310 515 210 l 515 626 q 403 640 458 640 q 320 626 354 640 q 265 582 286 613 q 235 502 244 551 q 225 382 225 453 q 258 176 225 236 q 371 115 292 115 z "},"?":{"ha":597,"x_min":39,"x_max":558,"o":"m 176 307 l 161 563 q 248 587 207 572 q 320 623 289 601 q 370 676 351 644 q 389 751 389 707 q 376 822 389 793 q 340 867 363 850 q 288 892 318 885 q 224 900 258 900 q 133 892 181 900 q 50 874 86 885 l 39 1007 q 142 1031 89 1022 q 254 1040 196 1040 q 375 1024 319 1040 q 472 975 431 1008 q 535 890 513 942 q 558 767 558 839 q 538 653 558 701 q 481 571 517 606 q 397 514 444 536 q 299 481 350 492 l 292 307 l 292 285 l 176 285 l 176 307 m 238 -7 q 163 18 189 -7 q 138 89 138 43 q 163 159 138 133 q 238 185 189 185 q 311 159 285 185 q 338 89 338 133 q 311 18 338 43 q 238 -7 285 -7 z "},"¿":{"ha":589,"x_min":36,"x_max":556,"o":"m 418 446 l 433 190 q 347 165 388 179 q 274 130 306 151 q 224 77 243 108 q 206 1 206 46 q 219 -69 206 -40 q 254 -115 232 -97 q 306 -140 276 -132 q 371 -147 336 -147 q 461 -140 414 -147 q 544 -121 508 -132 l 556 -254 q 452 -278 506 -269 q 340 -287 399 -287 q 219 -272 275 -287 q 122 -222 163 -256 q 59 -137 82 -189 q 36 -14 36 -86 q 57 99 36 50 q 114 182 78 147 q 197 239 150 217 q 296 272 243 261 l 303 446 l 303 468 l 418 468 l 418 446 m 357 760 q 431 735 406 760 q 457 664 457 710 q 431 594 457 619 q 357 568 406 568 q 283 594 310 568 q 257 664 257 619 q 283 735 257 710 q 357 760 310 760 z "},"\"":{"ha":526,"x_min":75,"x_max":474,"o":"m 217 1122 l 217 1117 l 167 667 l 75 667 l 75 1122 l 217 1122 m 474 1122 l 474 1117 l 424 667 l 332 667 l 332 1122 l 474 1122 z "},"'":{"ha":268,"x_min":75,"x_max":217,"o":"m 217 1122 l 217 1117 l 167 667 l 75 667 l 75 1122 l 217 1122 z "},"„":{"ha":586,"x_min":46,"x_max":517,"o":"m 196 213 q 219 78 219 157 q 194 -71 219 4 q 129 -204 169 -146 l 46 -194 q 78 -87 67 -146 q 89 26 89 -29 q 56 200 89 110 l 196 213 m 493 213 q 517 78 517 157 q 492 -71 517 4 q 426 -204 467 -146 l 343 -194 q 375 -87 364 -146 q 386 26 386 -29 q 353 200 386 110 l 493 213 z "},"’":{"ha":279,"x_min":54,"x_max":228,"o":"m 204 1126 q 228 992 228 1071 q 203 843 228 918 q 138 710 178 768 l 54 719 q 86 826 75 768 q 97 940 97 885 q 64 1114 97 1024 l 204 1126 z "},"“":{"ha":579,"x_min":56,"x_max":526,"o":"m 79 710 q 56 843 56 769 q 81 992 56 917 q 146 1126 106 1068 l 229 1117 q 198 1008 210 1067 q 186 896 186 950 q 194 809 186 851 q 219 721 203 767 l 79 710 m 376 710 q 353 843 353 769 q 378 992 353 917 q 443 1126 403 1068 l 526 1117 q 495 1008 507 1067 q 483 896 483 950 q 492 809 483 851 q 517 721 500 767 l 376 710 z "},"‘":{"ha":282,"x_min":56,"x_max":229,"o":"m 79 710 q 56 843 56 769 q 81 992 56 917 q 146 1126 106 1068 l 229 1117 q 198 1008 210 1067 q 186 896 186 950 q 194 809 186 851 q 219 721 203 767 l 79 710 l 79 710 z "},"”":{"ha":575,"x_min":54,"x_max":525,"o":"m 204 1126 q 228 992 228 1071 q 203 843 228 918 q 138 710 178 768 l 54 719 q 86 826 75 768 q 97 940 97 885 q 64 1114 97 1024 l 204 1126 m 501 1126 q 525 992 525 1071 q 500 843 525 918 q 435 710 475 768 l 351 719 q 383 826 372 768 q 394 940 394 885 q 361 1114 394 1024 l 501 1126 z "},"‚":{"ha":290,"x_min":46,"x_max":219,"o":"m 196 213 q 219 78 219 157 q 194 -71 219 4 q 129 -204 169 -146 l 46 -194 q 78 -87 67 -146 q 89 26 89 -29 q 56 200 89 110 l 196 213 z "},"r":{"ha":519,"x_min":81,"x_max":504,"o":"m 81 750 l 229 750 l 239 647 l 247 647 q 288 678 264 661 q 342 710 313 694 q 402 740 371 726 q 463 763 433 754 l 504 763 l 504 600 l 438 600 q 337 573 388 593 q 256 529 286 553 l 256 0 l 81 0 l 81 750 z "},"ŕ":{"ha":519,"x_min":81,"x_max":504,"o":"m 221 858 l 315 1117 l 496 1117 l 346 847 l 221 858 m 81 750 l 229 750 l 239 647 l 247 647 q 288 678 264 661 q 342 710 313 694 q 402 740 371 726 q 463 763 433 754 l 504 763 l 504 600 l 438 600 q 337 573 388 593 q 256 529 286 553 l 256 0 l 81 0 l 81 750 z "},"√":{"ha":919,"x_min":7,"x_max":914,"o":"m 188 540 l 65 486 l 7 625 l 275 738 l 506 175 l 753 1186 l 914 1186 l 621 0 l 411 0 l 188 540 z "},"ř":{"ha":519,"x_min":65,"x_max":513,"o":"m 65 1092 l 289 990 l 513 1092 l 513 967 l 289 865 l 65 967 l 65 1092 m 81 750 l 229 750 l 239 647 l 247 647 q 288 678 264 661 q 342 710 313 694 q 402 740 371 726 q 463 763 433 754 l 504 763 l 504 600 l 438 600 q 337 573 388 593 q 256 529 286 553 l 256 0 l 81 0 l 81 750 z "},"ŗ":{"ha":519,"x_min":24,"x_max":504,"o":"m 86 -96 l 265 -96 l 158 -306 l 24 -306 l 86 -96 m 81 750 l 229 750 l 239 647 l 247 647 q 288 678 264 661 q 342 710 313 694 q 402 740 371 726 q 463 763 433 754 l 504 763 l 504 600 l 438 600 q 337 573 388 593 q 256 529 286 553 l 256 0 l 81 0 l 81 750 z "},"ȑ":{"ha":521,"x_min":-33,"x_max":504,"o":"m 118 849 l -33 1118 l 128 1118 l 222 863 l 118 849 m 374 849 l 222 1118 l 382 1118 l 476 863 l 374 849 m 81 750 l 229 750 l 239 647 l 247 647 q 288 678 264 661 q 342 710 313 694 q 402 740 371 726 q 463 763 433 754 l 504 763 l 504 600 l 438 600 q 337 573 388 593 q 256 529 286 553 l 256 0 l 81 0 l 81 750 z "},"ṛ":{"ha":519,"x_min":81,"x_max":504,"o":"m 81 750 l 229 750 l 239 647 l 247 647 q 288 678 264 661 q 342 710 313 694 q 402 740 371 726 q 463 763 433 754 l 504 763 l 504 600 l 438 600 q 337 573 388 593 q 256 529 286 553 l 256 0 l 81 0 l 81 750 m 165 -269 q 101 -250 121 -269 q 81 -186 81 -231 q 101 -123 81 -142 q 165 -104 121 -104 q 230 -123 210 -104 q 250 -186 250 -142 q 230 -250 250 -231 q 165 -269 210 -269 z "},"®":{"ha":964,"x_min":57,"x_max":908,"o":"m 329 853 q 399 860 365 857 q 463 863 432 863 q 614 827 565 863 q 663 717 663 792 q 572 586 663 614 l 571 582 l 675 404 l 588 404 l 497 564 l 413 564 l 413 404 l 329 404 l 329 853 m 465 631 q 551 651 525 631 q 578 715 578 671 q 553 776 578 756 q 471 797 529 797 q 443 797 463 797 q 413 794 424 796 l 413 631 l 465 631 m 482 196 q 310 227 388 196 q 176 315 232 258 q 88 449 119 371 q 57 621 57 528 q 88 792 57 714 q 176 927 119 871 q 310 1015 232 983 q 482 1046 388 1046 q 655 1015 576 1046 q 790 927 733 983 q 877 792 846 871 q 908 621 908 714 q 877 449 908 528 q 790 315 846 371 q 655 227 733 258 q 482 196 576 196 m 482 278 q 622 303 558 278 q 729 373 685 328 q 798 481 774 418 q 822 621 822 544 q 798 760 822 697 q 729 869 774 824 q 622 939 685 914 q 482 964 558 964 q 342 939 404 964 q 235 869 279 914 q 167 760 192 824 q 143 621 143 697 q 167 481 143 544 q 235 373 192 418 q 342 303 279 328 q 482 278 404 278 z "},"ȓ":{"ha":519,"x_min":47,"x_max":539,"o":"m 47 864 q 110 1024 50 967 q 293 1081 171 1081 q 476 1024 415 1081 q 539 864 536 968 l 417 864 q 293 985 415 985 q 202 956 233 985 q 169 864 171 926 l 47 864 m 81 750 l 229 750 l 239 647 l 247 647 q 288 678 264 661 q 342 710 313 694 q 402 740 371 726 q 463 763 433 754 l 504 763 l 504 600 l 438 600 q 337 573 388 593 q 256 529 286 553 l 256 0 l 81 0 l 81 750 z "},"s":{"ha":608,"x_min":51,"x_max":567,"o":"m 283 -15 q 176 -6 233 -15 q 51 19 118 3 l 51 150 q 166 124 107 133 q 278 114 225 114 q 399 207 399 114 q 372 273 399 250 q 286 307 344 296 q 210 322 250 313 q 135 355 169 332 q 79 420 101 378 q 57 536 57 463 q 126 705 57 644 q 319 765 194 765 q 416 759 365 765 q 533 739 467 753 l 532 606 q 424 627 465 621 q 347 633 383 633 q 253 610 286 633 q 221 542 221 586 q 254 473 221 492 q 342 443 288 454 q 427 421 386 435 q 499 383 468 407 q 549 319 531 358 q 567 218 567 279 q 492 47 567 108 q 283 -15 418 -15 z "},"ś":{"ha":608,"x_min":51,"x_max":567,"o":"m 240 858 l 335 1117 l 515 1117 l 365 847 l 240 858 m 283 -15 q 176 -6 233 -15 q 51 19 118 3 l 51 150 q 166 124 107 133 q 278 114 225 114 q 399 207 399 114 q 372 273 399 250 q 286 307 344 296 q 210 322 250 313 q 135 355 169 332 q 79 420 101 378 q 57 536 57 463 q 126 705 57 644 q 319 765 194 765 q 416 759 365 765 q 533 739 467 753 l 532 606 q 424 627 465 621 q 347 633 383 633 q 253 610 286 633 q 221 542 221 586 q 254 473 221 492 q 342 443 288 454 q 427 421 386 435 q 499 383 468 407 q 549 319 531 358 q 567 218 567 279 q 492 47 567 108 q 283 -15 418 -15 z "},"š":{"ha":608,"x_min":51,"x_max":567,"o":"m 88 1092 l 311 990 l 535 1092 l 535 967 l 311 865 l 88 967 l 88 1092 m 283 -15 q 176 -6 233 -15 q 51 19 118 3 l 51 150 q 166 124 107 133 q 278 114 225 114 q 399 207 399 114 q 372 273 399 250 q 286 307 344 296 q 210 322 250 313 q 135 355 169 332 q 79 420 101 378 q 57 536 57 463 q 126 705 57 644 q 319 765 194 765 q 416 759 365 765 q 533 739 467 753 l 532 606 q 424 627 465 621 q 347 633 383 633 q 253 610 286 633 q 221 542 221 586 q 254 473 221 492 q 342 443 288 454 q 427 421 386 435 q 499 383 468 407 q 549 319 531 358 q 567 218 567 279 q 492 47 567 108 q 283 -15 418 -15 z "},"ə":{"ha":718,"x_min":47,"x_max":668,"o":"m 324 763 q 581 667 494 763 q 668 385 668 571 q 582 89 668 190 q 328 -12 496 -12 q 115 72 182 -12 q 47 332 47 156 q 49 387 47 364 q 54 436 50 410 l 500 436 q 449 582 493 539 q 310 625 406 625 q 201 617 258 625 q 81 589 143 608 l 74 719 q 194 751 126 739 q 324 763 263 763 m 336 118 q 454 167 415 118 q 500 324 493 217 l 200 324 q 233 165 201 213 q 336 118 264 118 z "},"ŝ":{"ha":608,"x_min":51,"x_max":567,"o":"m 90 988 l 314 1089 l 538 988 l 538 863 l 314 964 l 90 863 l 90 988 m 283 -15 q 176 -6 233 -15 q 51 19 118 3 l 51 150 q 166 124 107 133 q 278 114 225 114 q 399 207 399 114 q 372 273 399 250 q 286 307 344 296 q 210 322 250 313 q 135 355 169 332 q 79 420 101 378 q 57 536 57 463 q 126 705 57 644 q 319 765 194 765 q 416 759 365 765 q 533 739 467 753 l 532 606 q 424 627 465 621 q 347 633 383 633 q 253 610 286 633 q 221 542 221 586 q 254 473 221 492 q 342 443 288 454 q 427 421 386 435 q 499 383 468 407 q 549 319 531 358 q 567 218 567 279 q 492 47 567 108 q 283 -15 418 -15 z "},"ṣ":{"ha":608,"x_min":51,"x_max":567,"o":"m 283 -15 q 176 -6 233 -15 q 51 19 118 3 l 51 150 q 166 124 107 133 q 278 114 225 114 q 399 207 399 114 q 372 273 399 250 q 286 307 344 296 q 210 322 250 313 q 135 355 169 332 q 79 420 101 378 q 57 536 57 463 q 126 705 57 644 q 319 765 194 765 q 416 759 365 765 q 533 739 467 753 l 532 606 q 424 627 465 621 q 347 633 383 633 q 253 610 286 633 q 221 542 221 586 q 254 473 221 492 q 342 443 288 454 q 427 421 386 435 q 499 383 468 407 q 549 319 531 358 q 567 218 567 279 q 492 47 567 108 q 283 -15 418 -15 m 306 -269 q 241 -250 261 -269 q 221 -186 221 -231 q 241 -123 221 -142 q 306 -104 261 -104 q 370 -123 350 -104 q 390 -186 390 -142 q 370 -250 390 -231 q 306 -269 350 -269 z "},"§":{"ha":643,"x_min":67,"x_max":581,"o":"m 299 -15 q 191 -6 249 -15 q 67 19 133 3 l 67 149 q 181 123 121 132 q 293 114 240 114 q 414 207 414 114 q 386 273 414 250 q 301 307 358 296 q 224 322 265 313 q 149 355 183 332 q 93 420 115 378 q 71 536 71 463 q 117 678 71 619 q 83 736 96 701 q 71 822 71 771 q 140 991 71 931 q 335 1051 210 1051 q 431 1045 381 1051 q 549 1025 482 1039 l 547 893 q 440 914 481 908 q 363 919 399 919 q 268 896 300 919 q 236 828 236 872 q 269 758 236 778 q 357 729 303 739 q 442 707 401 721 q 513 668 482 693 q 563 603 544 643 q 581 503 581 564 q 533 358 581 418 q 569 301 557 335 q 581 218 581 267 q 507 47 581 108 q 299 -15 433 -15 m 399 414 q 419 488 419 446 q 398 558 419 533 q 333 594 376 582 q 299 605 318 600 q 264 617 279 610 q 231 544 231 588 q 238 501 231 518 q 257 472 244 483 q 287 452 269 460 q 325 439 304 444 q 363 427 343 433 q 399 414 382 421 z "},";":{"ha":365,"x_min":43,"x_max":293,"o":"m 43 -201 l 104 186 l 283 186 l 175 -215 l 43 -201 m 189 561 q 88 660 88 561 q 189 758 88 758 q 293 660 293 758 q 189 561 293 561 z "},"℠":{"ha":1203,"x_min":71,"x_max":1121,"o":"m 250 435 q 163 442 211 435 q 71 464 115 449 l 75 565 q 158 543 113 551 q 238 535 204 535 q 331 604 331 535 q 307 654 331 636 q 231 690 283 672 q 113 754 149 713 q 78 867 78 796 q 131 990 78 946 q 276 1035 185 1035 q 346 1030 310 1035 q 426 1014 382 1025 l 422 915 q 345 932 382 926 q 285 938 308 938 q 220 919 243 938 q 197 867 197 900 q 221 819 197 838 q 301 782 244 801 q 413 718 376 757 q 450 610 450 679 q 398 481 450 526 q 250 435 346 435 m 535 1028 l 688 1028 l 826 638 l 968 1028 l 1121 1028 l 1121 444 l 1011 444 l 1011 850 l 876 471 l 778 471 l 644 849 l 644 444 l 535 444 l 535 1028 z "},"⅞":{"ha":1336,"x_min":39,"x_max":1289,"o":"m 704 1028 l 851 1028 l 451 0 l 304 0 l 704 1028 m 1028 -4 q 833 48 901 -4 q 764 196 764 100 q 792 310 764 264 q 872 389 819 357 q 782 564 782 446 q 849 714 782 660 q 1028 768 915 768 q 1204 714 1139 768 q 1269 564 1269 660 q 1248 460 1269 500 q 1183 396 1226 421 q 1263 322 1236 367 q 1289 211 1289 278 q 1221 52 1289 108 q 1028 -4 1153 -4 m 1028 107 q 1119 134 1086 107 q 1151 213 1151 161 q 1121 286 1151 260 q 1022 335 1090 313 l 992 344 q 924 291 947 321 q 901 214 901 261 q 935 135 901 164 q 1028 107 969 107 m 1054 433 q 1113 480 1090 450 q 1135 557 1135 510 q 1106 631 1135 606 q 1028 656 1076 656 q 947 629 976 656 q 917 556 917 603 q 947 481 917 507 q 1036 438 976 454 q 1045 435 1038 438 q 1054 433 1053 433 m 208 261 l 103 279 l 89 313 l 322 906 l 39 906 l 39 1013 l 56 1028 l 449 1028 l 479 964 l 479 926 l 235 279 l 208 261 z "},"₇":{"ha":486,"x_min":29,"x_max":469,"o":"m 199 -156 l 93 -137 l 79 -104 l 313 489 l 29 489 l 29 596 l 46 611 l 439 611 l 469 547 l 469 510 l 225 -137 l 199 -156 z "},"⁷":{"ha":486,"x_min":29,"x_max":469,"o":"m 199 400 l 93 418 l 79 451 l 313 1044 l 29 1044 l 29 1151 l 46 1167 l 439 1167 l 469 1103 l 469 1065 l 225 418 l 199 400 z "},"₆":{"ha":617,"x_min":46,"x_max":582,"o":"m 317 -149 q 115 -60 185 -149 q 46 201 46 28 q 134 521 46 411 q 394 631 222 631 q 463 626 426 631 q 539 611 499 621 l 524 492 q 399 510 447 510 q 192 285 219 510 q 266 324 225 311 q 349 338 307 338 q 519 278 456 338 q 582 114 582 218 q 563 6 582 54 q 510 -77 544 -43 q 427 -130 476 -111 q 317 -149 378 -149 m 317 -24 q 406 12 375 -24 q 436 111 436 47 q 317 235 436 235 q 250 220 285 235 q 188 181 215 206 q 222 26 190 76 q 317 -24 253 -24 z "},"⁶":{"ha":617,"x_min":46,"x_max":582,"o":"m 317 407 q 115 495 185 407 q 46 757 46 583 q 134 1076 46 967 q 394 1186 222 1186 q 463 1181 426 1186 q 539 1167 499 1176 l 524 1047 q 399 1065 447 1065 q 192 840 219 1065 q 266 880 225 867 q 349 893 307 893 q 519 833 456 893 q 582 669 582 774 q 563 561 582 610 q 510 478 544 513 q 427 426 476 444 q 317 407 378 407 m 317 532 q 406 567 375 532 q 436 667 436 603 q 317 790 436 790 q 250 776 285 790 q 188 736 215 761 q 222 582 190 632 q 317 532 253 532 z "},"/":{"ha":486,"x_min":36,"x_max":450,"o":"m 297 1028 l 450 1028 l 189 -167 l 36 -167 l 297 1028 z "},"Æ":{"ha":1174,"x_min":0,"x_max":1121,"o":"m 0 10 l 349 1028 l 1107 1028 l 1107 879 l 711 879 l 728 592 l 1081 592 l 1081 443 l 736 443 l 753 149 l 1121 149 l 1121 0 l 579 0 l 568 272 l 272 272 l 181 0 l 0 0 l 0 10 m 324 422 l 561 422 l 543 890 l 483 890 l 324 422 z "},"£":{"ha":825,"x_min":54,"x_max":775,"o":"m 54 583 l 224 583 l 224 732 q 297 963 224 889 q 529 1038 369 1038 q 641 1029 582 1038 q 775 1001 700 1021 l 765 858 q 656 881 713 874 q 558 889 600 889 q 437 853 472 889 q 401 729 401 817 l 401 583 l 653 583 l 653 446 l 401 446 l 401 151 l 756 151 l 756 0 l 54 0 l 54 154 l 224 154 l 224 446 l 54 446 l 54 583 z "},"∑":{"ha":761,"x_min":42,"x_max":708,"o":"m 42 -35 l 350 443 l 42 921 l 42 1028 l 708 1028 l 708 881 l 253 881 l 528 443 l 253 7 l 708 7 l 708 -140 l 42 -140 l 42 -35 z "},"ŧ":{"ha":533,"x_min":25,"x_max":504,"o":"m 31 461 l 153 461 l 153 601 l 25 601 l 25 750 l 163 750 l 188 953 l 326 971 l 326 750 l 504 750 l 504 601 l 326 601 l 326 461 l 472 461 l 472 354 l 326 354 l 326 244 q 351 153 326 181 q 428 125 376 125 q 464 127 443 125 q 504 136 485 129 l 504 4 q 444 -6 476 -3 q 381 -10 413 -10 q 153 204 153 -10 l 153 354 l 31 354 l 31 461 z "},"ť":{"ha":517,"x_min":18,"x_max":556,"o":"m 374 -10 q 146 204 146 -10 l 146 601 l 18 601 l 18 750 l 156 750 l 181 953 l 319 971 l 319 750 l 454 750 l 454 601 l 319 601 l 319 244 q 344 153 319 181 q 421 125 369 125 q 457 127 436 125 q 497 136 478 129 l 497 4 q 438 -6 469 -3 q 374 -10 406 -10 m 414 1122 l 556 1122 l 506 806 l 414 806 l 414 1122 z "},"ṭ":{"ha":525,"x_min":18,"x_max":497,"o":"m 313 -269 q 248 -250 268 -269 q 228 -186 228 -231 q 248 -123 228 -142 q 313 -104 268 -104 q 377 -123 357 -104 q 397 -186 397 -142 q 377 -250 397 -231 q 313 -269 357 -269 m 374 -10 q 146 204 146 -10 l 146 601 l 18 601 l 18 750 l 156 750 l 181 953 l 319 971 l 319 750 l 497 750 l 497 601 l 319 601 l 319 244 q 344 153 319 181 q 421 125 369 125 q 457 127 436 125 q 497 136 478 129 l 497 4 q 438 -6 469 -3 q 374 -10 406 -10 z "},"þ":{"ha":771,"x_min":81,"x_max":721,"o":"m 81 1122 l 256 1122 l 256 678 q 346 740 293 718 q 461 763 399 763 q 721 393 721 763 q 631 90 721 193 q 358 -14 540 -14 q 310 -11 338 -14 q 256 -4 283 -8 l 256 -306 l 81 -306 l 81 1122 m 360 107 q 444 120 410 107 q 501 164 479 133 q 533 246 522 194 q 543 375 543 297 q 535 500 543 450 q 510 580 528 550 q 466 623 493 610 q 401 636 439 636 q 293 585 331 636 q 256 415 256 533 l 256 124 q 310 111 283 115 q 360 107 338 107 z "},"⅜":{"ha":1419,"x_min":61,"x_max":1372,"o":"m 222 268 q 64 283 136 268 l 64 413 l 75 413 q 133 402 99 406 q 197 399 168 399 q 312 424 276 399 q 347 500 347 450 q 310 581 347 556 q 185 607 272 607 l 138 607 l 138 721 l 185 721 q 292 746 258 721 q 326 821 326 771 q 297 894 326 869 q 204 918 268 918 q 78 903 154 918 l 65 903 l 61 1029 q 139 1042 97 1038 q 219 1047 181 1047 q 478 847 478 1047 q 449 737 478 782 q 364 671 419 692 q 463 603 429 650 q 497 485 497 556 q 426 324 497 381 q 222 268 354 268 m 790 1028 l 938 1028 l 538 0 l 390 0 l 790 1028 m 1111 -4 q 916 48 985 -4 q 847 196 847 100 q 875 310 847 264 q 956 389 903 357 q 865 564 865 446 q 932 714 865 660 q 1111 768 999 768 q 1288 714 1222 768 q 1353 564 1353 660 q 1331 460 1353 500 q 1267 396 1310 421 q 1346 322 1319 367 q 1372 211 1372 278 q 1304 52 1372 108 q 1111 -4 1236 -4 m 1111 107 q 1202 134 1169 107 q 1235 213 1235 161 q 1204 286 1235 260 q 1106 335 1174 313 l 1075 344 q 1008 291 1031 321 q 985 214 985 261 q 1019 135 985 164 q 1111 107 1053 107 m 1138 433 q 1196 480 1174 450 q 1218 557 1218 510 q 1189 631 1218 606 q 1111 656 1160 656 q 1030 629 1060 656 q 1000 556 1000 603 q 1030 481 1000 507 q 1119 438 1060 454 q 1128 435 1121 438 q 1138 433 1136 433 z "},"₃":{"ha":529,"x_min":49,"x_max":485,"o":"m 210 -149 q 51 -133 124 -149 l 51 -4 l 63 -4 q 121 -15 86 -11 q 185 -18 156 -18 q 299 7 264 -18 q 335 83 335 32 q 297 165 335 139 q 172 190 260 190 l 125 190 l 125 304 l 172 304 q 280 329 246 304 q 314 404 314 354 q 285 477 314 453 q 192 501 256 501 q 65 486 142 501 l 53 486 l 49 613 q 126 626 85 621 q 207 631 168 631 q 465 431 465 631 q 436 320 465 365 q 351 254 407 275 q 451 186 417 233 q 485 68 485 139 q 413 -92 485 -36 q 210 -149 342 -149 z "},"¾":{"ha":1393,"x_min":64,"x_max":1358,"o":"m 225 268 q 67 283 139 268 l 67 413 l 78 413 q 136 402 101 406 q 200 399 171 399 q 315 424 279 399 q 350 500 350 450 q 313 581 350 556 q 188 607 275 607 l 140 607 l 140 721 l 188 721 q 295 746 261 721 q 329 821 329 771 q 300 894 329 869 q 207 918 271 918 q 81 903 157 918 l 68 903 l 64 1029 q 142 1042 100 1038 q 222 1047 183 1047 q 481 847 481 1047 q 451 737 481 782 q 367 671 422 692 q 466 603 432 650 q 500 485 500 556 q 428 324 500 381 q 225 268 357 268 m 1117 163 l 819 163 l 797 254 l 1043 756 l 1058 763 l 1185 750 l 1194 729 l 950 278 l 1129 278 l 1171 504 l 1269 504 l 1269 278 l 1358 278 l 1358 163 l 1269 163 l 1269 0 l 1117 0 l 1117 163 m 814 1028 l 961 1028 l 561 0 l 414 0 l 814 1028 z "},"³":{"ha":529,"x_min":49,"x_max":485,"o":"m 210 407 q 51 422 124 407 l 51 551 l 63 551 q 121 541 86 544 q 185 538 156 538 q 299 563 264 538 q 335 639 335 589 q 297 720 335 694 q 172 746 260 746 l 125 746 l 125 860 l 172 860 q 280 885 246 860 q 314 960 314 910 q 285 1033 314 1008 q 192 1057 256 1057 q 65 1042 142 1057 l 53 1042 l 49 1168 q 126 1181 85 1176 q 207 1186 168 1186 q 465 986 465 1186 q 436 876 465 921 q 351 810 407 831 q 451 742 417 789 q 485 624 485 694 q 413 463 485 519 q 210 407 342 407 z "},"™":{"ha":1217,"x_min":38,"x_max":1131,"o":"m 544 1028 l 697 1028 l 838 638 l 978 1028 l 1131 1028 l 1131 444 l 1022 444 l 1022 850 l 888 471 l 789 471 l 654 849 l 654 444 l 544 444 l 544 1028 m 200 928 l 38 928 l 38 1028 l 481 1028 l 481 928 l 318 928 l 318 444 l 200 444 l 200 928 z "},"₂":{"ha":560,"x_min":42,"x_max":513,"o":"m 42 -18 q 53 66 42 28 q 88 138 64 104 q 149 203 111 172 q 239 265 186 233 q 334 338 308 306 q 360 410 360 371 q 235 500 360 500 q 162 494 201 500 q 75 476 122 488 l 60 600 q 173 622 121 615 q 269 629 225 629 q 513 424 513 629 q 474 290 513 346 q 351 183 435 233 q 244 96 276 135 q 211 17 211 57 l 211 -12 l 510 -12 l 510 -139 l 42 -139 l 42 -18 z "},"²":{"ha":560,"x_min":42,"x_max":513,"o":"m 42 538 q 53 622 42 583 q 88 694 64 660 q 149 758 111 728 q 239 821 186 789 q 334 894 308 861 q 360 965 360 926 q 235 1056 360 1056 q 162 1049 201 1056 q 75 1032 122 1043 l 60 1156 q 173 1178 121 1171 q 269 1185 225 1185 q 513 979 513 1185 q 474 845 513 901 q 351 739 435 789 q 244 651 276 690 q 211 572 211 613 l 211 543 l 510 543 l 510 417 l 42 417 l 42 538 z "},"⅔":{"ha":1426,"x_min":53,"x_max":1379,"o":"m 53 399 q 64 483 53 444 q 99 555 75 521 q 160 619 122 589 q 250 682 197 650 q 345 755 319 722 q 371 826 371 788 q 246 917 371 917 q 173 910 213 917 q 86 893 133 904 l 71 1017 q 184 1039 132 1032 q 281 1046 236 1046 q 524 840 524 1046 q 485 706 524 763 q 363 600 446 650 q 255 513 288 551 q 222 433 222 474 l 222 404 l 521 404 l 521 278 l 53 278 l 53 399 m 861 1028 l 1008 1028 l 608 0 l 461 0 l 861 1028 m 1104 -10 q 946 6 1018 -10 l 946 135 l 957 135 q 1015 124 981 128 q 1079 121 1050 121 q 1194 147 1158 121 q 1229 222 1229 172 q 1192 303 1229 278 q 1067 329 1154 329 l 1019 329 l 1019 443 l 1067 443 q 1174 468 1140 443 q 1208 543 1208 493 q 1179 616 1208 592 q 1086 640 1150 640 q 960 625 1036 640 l 947 625 l 943 751 q 1021 765 979 760 q 1101 769 1063 769 q 1360 569 1360 769 q 1331 459 1360 504 q 1246 393 1301 414 q 1345 325 1311 372 q 1379 207 1379 278 q 1308 47 1379 103 q 1104 -10 1236 -10 z "},"u":{"ha":767,"x_min":76,"x_max":686,"o":"m 268 -14 q 126 38 175 -14 q 76 188 76 89 l 76 750 l 251 750 l 251 240 q 271 158 251 182 q 338 133 290 133 q 419 149 378 133 q 511 196 461 164 l 511 750 l 686 750 l 686 0 l 539 0 l 528 82 l 522 82 q 446 38 479 56 q 383 8 413 19 q 326 -9 354 -4 q 268 -14 299 -14 z "},"ú":{"ha":767,"x_min":76,"x_max":686,"o":"m 317 858 l 411 1117 l 592 1117 l 442 847 l 317 858 m 268 -14 q 126 38 175 -14 q 76 188 76 89 l 76 750 l 251 750 l 251 240 q 271 158 251 182 q 338 133 290 133 q 419 149 378 133 q 511 196 461 164 l 511 750 l 686 750 l 686 0 l 539 0 l 528 82 l 522 82 q 446 38 479 56 q 383 8 413 19 q 326 -9 354 -4 q 268 -14 299 -14 z "},"ŭ":{"ha":767,"x_min":76,"x_max":686,"o":"m 268 -14 q 126 38 175 -14 q 76 188 76 89 l 76 750 l 251 750 l 251 240 q 271 158 251 182 q 338 133 290 133 q 419 149 378 133 q 511 196 461 164 l 511 750 l 686 750 l 686 0 l 539 0 l 528 82 l 522 82 q 446 38 479 56 q 383 8 413 19 q 326 -9 354 -4 q 268 -14 299 -14 m 379 854 q 197 911 257 854 q 132 1071 136 968 l 256 1071 q 379 950 256 950 q 503 1071 500 950 l 625 1071 q 562 911 622 968 q 379 854 501 854 z "},"û":{"ha":767,"x_min":76,"x_max":686,"o":"m 164 988 l 388 1089 l 611 988 l 611 863 l 388 964 l 164 863 l 164 988 m 268 -14 q 126 38 175 -14 q 76 188 76 89 l 76 750 l 251 750 l 251 240 q 271 158 251 182 q 338 133 290 133 q 419 149 378 133 q 511 196 461 164 l 511 750 l 686 750 l 686 0 l 539 0 l 528 82 l 522 82 q 446 38 479 56 q 383 8 413 19 q 326 -9 354 -4 q 268 -14 299 -14 z "},"ȕ":{"ha":767,"x_min":63,"x_max":686,"o":"m 214 849 l 63 1118 l 224 1118 l 318 863 l 214 849 m 469 849 l 318 1118 l 478 1118 l 572 863 l 469 849 m 268 -14 q 126 38 175 -14 q 76 188 76 89 l 76 750 l 251 750 l 251 240 q 271 158 251 182 q 338 133 290 133 q 419 149 378 133 q 511 196 461 164 l 511 750 l 686 750 l 686 0 l 539 0 l 528 82 l 522 82 q 446 38 479 56 q 383 8 413 19 q 326 -9 354 -4 q 268 -14 299 -14 z "},"ü":{"ha":767,"x_min":76,"x_max":686,"o":"m 226 868 q 135 958 135 868 q 157 1025 135 1004 q 226 1046 179 1046 q 318 958 318 1046 q 226 868 318 868 m 536 868 q 444 958 444 868 q 467 1025 444 1004 q 536 1046 489 1046 q 628 958 628 1046 q 536 868 628 868 m 268 -14 q 126 38 175 -14 q 76 188 76 89 l 76 750 l 251 750 l 251 240 q 271 158 251 182 q 338 133 290 133 q 419 149 378 133 q 511 196 461 164 l 511 750 l 686 750 l 686 0 l 539 0 l 528 82 l 522 82 q 446 38 479 56 q 383 8 413 19 q 326 -9 354 -4 q 268 -14 299 -14 z "},"ụ":{"ha":767,"x_min":76,"x_max":686,"o":"m 268 -14 q 126 38 175 -14 q 76 188 76 89 l 76 750 l 251 750 l 251 240 q 271 158 251 182 q 338 133 290 133 q 419 149 378 133 q 511 196 461 164 l 511 750 l 686 750 l 686 0 l 539 0 l 528 82 l 522 82 q 446 38 479 56 q 383 8 413 19 q 326 -9 354 -4 q 268 -14 299 -14 m 381 -269 q 316 -250 336 -269 q 296 -186 296 -231 q 316 -123 296 -142 q 381 -104 336 -104 q 445 -123 425 -104 q 465 -186 465 -142 q 445 -250 465 -231 q 381 -269 425 -269 z "},"ù":{"ha":767,"x_min":76,"x_max":686,"o":"m 268 -14 q 126 38 175 -14 q 76 188 76 89 l 76 750 l 251 750 l 251 240 q 271 158 251 182 q 338 133 290 133 q 419 149 378 133 q 511 196 461 164 l 511 750 l 686 750 l 686 0 l 539 0 l 528 82 l 522 82 q 446 38 479 56 q 383 8 413 19 q 326 -9 354 -4 q 268 -14 299 -14 m 315 849 l 164 1118 l 346 1118 l 440 863 l 315 849 z "},"ű":{"ha":767,"x_min":76,"x_max":699,"o":"m 268 -14 q 126 38 175 -14 q 76 188 76 89 l 76 750 l 251 750 l 251 240 q 271 158 251 182 q 338 133 290 133 q 419 149 378 133 q 511 196 461 164 l 511 750 l 686 750 l 686 0 l 539 0 l 528 82 l 522 82 q 446 38 479 56 q 383 8 413 19 q 326 -9 354 -4 q 268 -14 299 -14 m 189 863 l 285 1118 l 444 1118 l 293 849 l 189 863 m 444 863 l 539 1118 l 699 1118 l 549 849 l 444 863 z "},"ȗ":{"ha":767,"x_min":76,"x_max":686,"o":"m 142 864 q 205 1024 144 967 q 388 1081 265 1081 q 570 1024 510 1081 q 633 864 631 968 l 511 864 q 388 985 510 985 q 297 956 328 985 q 264 864 265 926 l 142 864 m 268 -14 q 126 38 175 -14 q 76 188 76 89 l 76 750 l 251 750 l 251 240 q 271 158 251 182 q 338 133 290 133 q 419 149 378 133 q 511 196 461 164 l 511 750 l 686 750 l 686 0 l 539 0 l 528 82 l 522 82 q 446 38 479 56 q 383 8 413 19 q 326 -9 354 -4 q 268 -14 299 -14 z "},"ū":{"ha":767,"x_min":76,"x_max":686,"o":"m 268 -14 q 126 38 175 -14 q 76 188 76 89 l 76 750 l 251 750 l 251 240 q 271 158 251 182 q 338 133 290 133 q 419 149 378 133 q 511 196 461 164 l 511 750 l 686 750 l 686 0 l 539 0 l 528 82 l 522 82 q 446 38 479 56 q 383 8 413 19 q 326 -9 354 -4 q 268 -14 299 -14 m 160 1000 l 600 1000 l 600 885 l 160 885 l 160 1000 z "},"_":{"ha":765,"x_min":56,"x_max":710,"o":"m 56 -82 l 710 -82 l 710 -214 l 56 -214 l 56 -82 z "}," ":{"ha":272,"x_min":0,"x_max":0,"o":""},"­":{"ha":568,"x_min":74,"x_max":494,"o":"m 74 456 l 494 456 l 494 322 l 74 322 l 74 456 z "},"Ş":{"ha":740,"x_min":47,"x_max":701,"o":"m 336 -306 q 281 -301 311 -306 q 219 -289 251 -297 l 219 -181 q 267 -191 243 -187 q 308 -194 292 -194 q 379 -131 379 -194 q 340 -17 379 -86 q 195 -2 272 -14 q 47 32 118 10 l 51 182 q 118 162 82 171 q 192 146 154 153 q 265 135 229 139 q 332 132 301 132 q 521 275 521 132 q 507 335 521 310 q 468 380 493 361 q 407 414 443 399 q 325 444 371 429 q 213 487 263 463 q 130 547 164 511 q 78 632 96 582 q 60 753 60 682 q 151 965 60 888 q 403 1043 243 1043 q 522 1035 461 1043 q 657 1008 582 1028 l 654 863 q 528 888 592 879 q 418 897 465 897 q 288 860 333 897 q 242 754 242 822 q 254 697 242 721 q 292 653 267 672 q 356 617 318 633 q 443 583 393 600 q 551 538 503 563 q 632 479 599 514 q 683 397 665 444 q 701 283 701 350 q 636 88 701 163 q 450 -8 571 13 q 488 -85 476 -50 q 499 -156 499 -119 q 457 -266 499 -226 q 336 -306 415 -306 z "},"ş":{"ha":608,"x_min":51,"x_max":567,"o":"m 260 -306 q 205 -301 235 -306 q 143 -289 175 -297 l 143 -181 q 191 -191 167 -187 q 232 -194 215 -194 q 303 -131 303 -194 q 263 -15 303 -83 q 164 -4 217 -12 q 51 19 111 4 l 51 150 q 166 124 107 133 q 278 114 225 114 q 399 207 399 114 q 372 273 399 250 q 286 307 344 296 q 210 322 250 313 q 135 355 169 332 q 79 420 101 378 q 57 536 57 463 q 126 705 57 644 q 319 765 194 765 q 416 759 365 765 q 533 739 467 753 l 532 606 q 424 627 465 621 q 347 633 383 633 q 253 610 286 633 q 221 542 221 586 q 254 473 221 492 q 342 443 288 454 q 427 421 386 435 q 499 383 468 407 q 549 319 531 358 q 567 218 567 279 q 516 70 567 128 q 372 -7 465 13 q 411 -84 400 -50 q 422 -156 422 -118 q 381 -266 422 -226 q 260 -306 339 -306 z "},"Ţ":{"ha":760,"x_min":22,"x_max":738,"o":"m 289 876 l 22 876 l 22 1028 l 738 1028 l 738 876 l 468 876 l 468 0 l 440 0 q 482 -81 469 -44 q 494 -156 494 -117 q 453 -266 494 -226 q 332 -306 411 -306 q 277 -301 307 -306 q 215 -289 247 -297 l 215 -181 q 263 -191 239 -187 q 304 -194 288 -194 q 375 -131 375 -194 q 326 0 375 -78 l 289 0 l 289 876 z "},"ţ":{"ha":525,"x_min":18,"x_max":497,"o":"m 253 -306 q 198 -301 228 -306 q 136 -289 168 -297 l 136 -181 q 184 -191 160 -187 q 225 -194 208 -194 q 296 -131 296 -194 q 231 24 296 -69 q 146 204 146 76 l 146 601 l 18 601 l 18 750 l 156 750 l 181 953 l 319 971 l 319 750 l 497 750 l 497 601 l 319 601 l 319 244 q 344 153 319 181 q 421 125 369 125 q 457 127 436 125 q 497 136 478 129 l 497 4 q 438 -6 469 -3 q 374 -10 406 -10 l 367 -10 q 404 -85 393 -50 q 415 -156 415 -119 q 374 -266 415 -226 q 253 -306 332 -306 z "},"Ǆ":{"ha":1679,"x_min":96,"x_max":1640,"o":"m 1088 1332 l 1311 1231 l 1535 1332 l 1535 1206 l 1311 1104 l 1088 1206 l 1088 1332 m 956 149 l 1415 868 l 1415 878 l 972 878 l 972 1028 l 1622 1028 l 1622 881 l 1163 160 l 1163 149 l 1640 149 l 1640 0 l 956 0 l 956 149 m 332 -18 q 215 -15 274 -18 q 96 -3 157 -11 l 96 1024 q 246 1037 181 1032 q 364 1042 311 1042 q 591 1011 496 1042 q 747 917 686 981 q 835 752 807 853 q 864 513 864 651 q 834 271 864 371 q 740 106 804 171 q 575 12 676 42 q 332 -18 474 -18 m 392 128 q 524 148 469 128 q 614 214 579 168 q 665 333 649 260 q 681 513 681 407 q 665 691 681 618 q 615 810 650 764 q 525 876 581 856 q 390 896 469 896 q 331 894 360 896 q 272 886 301 892 l 272 136 q 336 130 308 132 q 392 128 364 128 z "},"ǅ":{"ha":1551,"x_min":96,"x_max":1508,"o":"m 1018 1092 l 1242 990 l 1465 1092 l 1465 967 l 1242 865 l 1018 967 l 1018 1092 m 960 117 l 1289 604 l 1289 613 l 971 613 l 971 750 l 1494 750 l 1494 633 l 1169 147 l 1169 138 l 1508 138 l 1508 0 l 960 0 l 960 117 m 332 -18 q 215 -15 274 -18 q 96 -3 157 -11 l 96 1024 q 246 1037 181 1032 q 364 1042 311 1042 q 591 1011 496 1042 q 747 917 686 981 q 835 752 807 853 q 864 513 864 651 q 834 271 864 371 q 740 106 804 171 q 575 12 676 42 q 332 -18 474 -18 m 392 128 q 524 148 469 128 q 614 214 579 168 q 665 333 649 260 q 681 513 681 407 q 665 691 681 618 q 615 810 650 764 q 525 876 581 856 q 390 896 469 896 q 331 894 360 896 q 272 886 301 892 l 272 136 q 336 130 308 132 q 392 128 364 128 z "},"z":{"ha":633,"x_min":43,"x_max":592,"o":"m 43 117 l 372 604 l 372 613 l 54 613 l 54 750 l 578 750 l 578 633 l 253 147 l 253 138 l 592 138 l 592 0 l 43 0 l 43 117 z "},"ǆ":{"ha":1406,"x_min":49,"x_max":1364,"o":"m 872 1092 l 1096 990 l 1319 1092 l 1319 967 l 1096 865 l 872 967 l 872 1092 m 815 117 l 1144 604 l 1144 613 l 826 613 l 826 750 l 1350 750 l 1350 633 l 1025 147 l 1025 138 l 1364 138 l 1364 0 l 815 0 l 815 117 m 315 -12 q 115 78 181 -12 q 49 360 49 169 q 141 661 49 560 q 407 763 233 763 q 459 760 433 763 q 517 754 485 758 l 517 1122 l 690 1122 l 690 0 l 533 0 l 521 81 l 515 81 q 315 -12 446 -12 m 371 117 q 475 161 435 117 q 517 308 515 206 l 517 625 q 461 636 489 632 q 403 640 433 640 q 269 581 310 640 q 228 376 228 522 q 261 176 228 236 q 371 117 294 117 z "},"Ǉ":{"ha":1033,"x_min":96,"x_max":940,"o":"m 651 -221 q 704 -92 683 -150 q 738 22 725 -33 q 756 135 750 76 q 761 264 761 193 l 761 1028 l 940 1028 l 940 251 q 931 119 940 182 q 901 -7 922 56 q 847 -135 881 -69 q 767 -275 814 -200 l 651 -221 m 96 1028 l 274 1028 l 274 147 l 646 147 l 646 0 l 96 0 l 96 1028 z "},"ǈ":{"ha":1000,"x_min":96,"x_max":932,"o":"m 831 881 q 754 904 778 881 q 731 979 731 928 q 754 1054 731 1031 q 831 1078 778 1078 q 908 1053 883 1078 q 932 979 932 1029 q 908 905 932 929 q 831 881 883 881 m 669 -269 q 726 -70 707 -178 q 746 169 746 38 q 746 214 746 172 q 746 317 746 256 q 745 451 746 379 q 744 585 744 522 q 744 694 744 649 q 744 750 744 740 l 919 750 l 919 111 q 908 3 918 58 q 882 -106 899 -51 q 842 -210 865 -160 q 790 -306 819 -261 l 669 -269 m 96 1028 l 274 1028 l 274 147 l 646 147 l 646 0 l 96 0 l 96 1028 z "},"ǉ":{"ha":678,"x_min":83,"x_max":610,"o":"m 508 881 q 432 904 456 881 q 408 979 408 928 q 432 1054 408 1031 q 508 1078 456 1078 q 585 1053 561 1078 q 610 979 610 1029 q 585 905 610 929 q 508 881 561 881 m 347 -269 q 404 -70 385 -178 q 424 169 424 38 q 424 214 424 172 q 424 317 424 256 q 423 451 424 379 q 422 585 422 522 q 422 694 422 649 q 422 750 422 740 l 597 750 l 597 111 q 586 3 596 58 q 560 -106 576 -51 q 520 -210 543 -160 q 468 -306 497 -261 l 347 -269 m 83 1122 l 258 1122 l 258 0 l 83 0 l 83 1122 z "},"Ǌ":{"ha":1358,"x_min":96,"x_max":1267,"o":"m 978 -221 q 1031 -92 1010 -150 q 1064 22 1051 -33 q 1082 135 1076 76 q 1088 264 1088 193 l 1088 1028 l 1267 1028 l 1267 251 q 1258 119 1267 182 q 1228 -7 1249 56 q 1174 -135 1207 -69 q 1093 -275 1140 -200 l 978 -221 m 96 1028 l 247 1028 l 658 411 l 722 297 l 733 297 l 733 1028 l 893 1028 l 893 0 l 742 0 l 332 615 l 265 732 l 254 732 l 254 0 l 96 0 l 96 1028 z "},"ǋ":{"ha":1325,"x_min":96,"x_max":1258,"o":"m 1157 881 q 1081 904 1104 881 q 1057 979 1057 928 q 1081 1054 1057 1031 q 1157 1078 1104 1078 q 1234 1053 1210 1078 q 1258 979 1258 1029 q 1234 905 1258 929 q 1157 881 1210 881 m 996 -269 q 1053 -70 1033 -178 q 1072 169 1072 38 q 1072 214 1072 172 q 1072 317 1072 256 q 1072 451 1072 379 q 1071 585 1071 522 q 1071 694 1071 649 q 1071 750 1071 740 l 1246 750 l 1246 111 q 1235 3 1244 58 q 1208 -106 1225 -51 q 1169 -210 1192 -160 q 1117 -306 1146 -261 l 996 -269 m 96 1028 l 247 1028 l 658 411 l 722 297 l 733 297 l 733 1028 l 893 1028 l 893 0 l 742 0 l 332 615 l 265 732 l 254 732 l 254 0 l 96 0 l 96 1028 z "},"ǌ":{"ha":1106,"x_min":81,"x_max":1038,"o":"m 936 881 q 860 904 883 881 q 836 979 836 928 q 860 1054 836 1031 q 936 1078 883 1078 q 1013 1053 989 1078 q 1038 979 1038 1029 q 1013 905 1038 929 q 936 881 989 881 m 775 -269 q 832 -70 813 -178 q 851 169 851 38 q 851 214 851 172 q 851 317 851 256 q 851 451 851 379 q 850 585 850 522 q 850 694 850 649 q 850 750 850 740 l 1025 750 l 1025 111 q 1014 3 1024 58 q 988 -106 1004 -51 q 948 -210 971 -160 q 896 -306 925 -261 l 775 -269 m 81 750 l 229 750 l 239 668 l 246 668 q 394 742 335 719 q 513 764 454 764 q 645 713 600 764 q 690 563 690 663 l 690 0 l 517 0 l 517 506 q 495 590 517 565 q 432 615 474 615 q 349 599 394 615 q 256 556 304 583 l 256 0 l 81 0 l 81 750 z "},"Ǳ":{"ha":1663,"x_min":96,"x_max":1625,"o":"m 940 149 l 1400 868 l 1400 878 l 957 878 l 957 1028 l 1607 1028 l 1607 881 l 1147 160 l 1147 149 l 1625 149 l 1625 0 l 940 0 l 940 149 m 332 -18 q 215 -15 274 -18 q 96 -3 157 -11 l 96 1024 q 246 1037 181 1032 q 364 1042 311 1042 q 591 1011 496 1042 q 747 917 686 981 q 835 752 807 853 q 864 513 864 651 q 834 271 864 371 q 740 106 804 171 q 575 12 676 42 q 332 -18 474 -18 m 392 128 q 524 148 469 128 q 614 214 579 168 q 665 333 649 260 q 681 513 681 407 q 665 691 681 618 q 615 810 650 764 q 525 876 581 856 q 390 896 469 896 q 331 894 360 896 q 272 886 301 892 l 272 136 q 336 130 308 132 q 392 128 364 128 z "},"ǲ":{"ha":1549,"x_min":96,"x_max":1506,"o":"m 957 117 l 1286 604 l 1286 613 l 968 613 l 968 750 l 1492 750 l 1492 633 l 1167 147 l 1167 138 l 1506 138 l 1506 0 l 957 0 l 957 117 m 332 -18 q 215 -15 274 -18 q 96 -3 157 -11 l 96 1024 q 246 1037 181 1032 q 364 1042 311 1042 q 591 1011 496 1042 q 747 917 686 981 q 835 752 807 853 q 864 513 864 651 q 834 271 864 371 q 740 106 804 171 q 575 12 676 42 q 332 -18 474 -18 m 392 128 q 524 148 469 128 q 614 214 579 168 q 665 333 649 260 q 681 513 681 407 q 665 691 681 618 q 615 810 650 764 q 525 876 581 856 q 390 896 469 896 q 331 894 360 896 q 272 886 301 892 l 272 136 q 336 130 308 132 q 392 128 364 128 z "},"ǳ":{"ha":1406,"x_min":49,"x_max":1364,"o":"m 815 117 l 1144 604 l 1144 613 l 826 613 l 826 750 l 1350 750 l 1350 633 l 1025 147 l 1025 138 l 1364 138 l 1364 0 l 815 0 l 815 117 m 315 -12 q 115 78 181 -12 q 49 360 49 169 q 141 661 49 560 q 407 763 233 763 q 459 760 433 763 q 517 754 485 758 l 517 1122 l 690 1122 l 690 0 l 533 0 l 521 81 l 515 81 q 315 -12 446 -12 m 371 117 q 475 161 435 117 q 517 308 515 206 l 517 625 q 461 636 489 632 q 403 640 433 640 q 269 581 310 640 q 228 376 228 522 q 261 176 228 236 q 371 117 294 117 z "},"Ș":{"ha":740,"x_min":47,"x_max":701,"o":"m 292 -96 l 471 -96 l 364 -306 l 229 -306 l 292 -96 m 357 -17 q 204 -4 286 -17 q 47 32 122 8 l 51 182 q 118 162 82 171 q 192 146 154 153 q 265 135 229 139 q 332 132 301 132 q 521 275 521 132 q 507 335 521 310 q 468 380 493 361 q 407 414 443 399 q 325 444 371 429 q 213 487 263 463 q 130 547 164 511 q 78 632 96 582 q 60 753 60 682 q 151 965 60 888 q 403 1043 243 1043 q 522 1035 461 1043 q 657 1008 582 1028 l 654 863 q 528 888 592 879 q 418 897 465 897 q 288 860 333 897 q 242 754 242 822 q 254 697 242 721 q 292 653 267 672 q 356 617 318 633 q 443 583 393 600 q 551 538 503 563 q 632 479 599 514 q 683 397 665 444 q 701 283 701 350 q 611 62 701 140 q 357 -17 521 -17 z "},"ș":{"ha":608,"x_min":51,"x_max":567,"o":"m 222 -96 l 401 -96 l 294 -306 l 160 -306 l 222 -96 m 283 -15 q 176 -6 233 -15 q 51 19 118 3 l 51 150 q 166 124 107 133 q 278 114 225 114 q 399 207 399 114 q 372 273 399 250 q 286 307 344 296 q 210 322 250 313 q 135 355 169 332 q 79 420 101 378 q 57 536 57 463 q 126 705 57 644 q 319 765 194 765 q 416 759 365 765 q 533 739 467 753 l 532 606 q 424 627 465 621 q 347 633 383 633 q 253 610 286 633 q 221 542 221 586 q 254 473 221 492 q 342 443 288 454 q 427 421 386 435 q 499 383 468 407 q 549 319 531 358 q 567 218 567 279 q 492 47 567 108 q 283 -15 418 -15 z "},"Ț":{"ha":760,"x_min":22,"x_max":738,"o":"m 304 -96 l 483 -96 l 376 -306 l 242 -306 l 304 -96 m 289 876 l 22 876 l 22 1028 l 738 1028 l 738 876 l 468 876 l 468 0 l 289 0 l 289 876 z "},"ț":{"ha":525,"x_min":18,"x_max":497,"o":"m 233 -96 l 413 -96 l 306 -306 l 171 -306 l 233 -96 m 374 -10 q 146 204 146 -10 l 146 601 l 18 601 l 18 750 l 156 750 l 181 953 l 319 971 l 319 750 l 497 750 l 497 601 l 319 601 l 319 244 q 344 153 319 181 q 421 125 369 125 q 457 127 436 125 q 497 136 478 129 l 497 4 q 438 -6 469 -3 q 374 -10 406 -10 z "},"ˉ":{"ha":590,"x_min":75,"x_max":515,"o":"m 75 1000 l 515 1000 l 515 885 l 75 885 l 75 1000 z "},"Δ":{"ha":910,"x_min":-4,"x_max":914,"o":"m 343 1028 l 567 1028 l 914 0 l -4 0 l 343 1028 m 700 147 l 454 872 l 210 147 l 700 147 z "},"Ω":{"ha":1033,"x_min":51,"x_max":982,"o":"m 51 146 l 321 133 q 228 202 274 161 q 147 299 182 243 q 89 425 111 354 q 67 583 67 496 q 99 772 67 688 q 190 916 131 856 q 331 1009 249 976 q 517 1042 414 1042 q 701 1009 618 1042 q 844 916 785 976 q 935 772 903 856 q 967 583 967 688 q 944 424 967 496 q 886 297 922 353 q 804 201 850 242 q 711 132 758 160 l 982 146 l 982 0 l 578 0 l 578 121 q 648 179 610 144 q 719 267 686 214 q 774 397 751 321 q 796 578 796 472 q 776 711 796 651 q 719 814 756 771 q 631 880 683 857 q 517 903 579 903 q 403 880 454 903 q 317 814 353 857 q 261 711 281 771 q 242 578 242 651 q 266 388 242 467 q 325 257 290 310 q 396 172 360 204 q 456 121 432 139 l 456 0 l 51 0 l 51 146 z "},"μ":{"ha":772,"x_min":81,"x_max":690,"o":"m 81 750 l 254 750 l 254 229 q 278 154 254 178 q 344 131 301 131 q 423 145 382 131 q 515 190 464 160 l 515 750 l 690 750 l 690 0 l 543 0 l 532 82 l 526 82 q 450 38 483 56 q 388 8 417 19 q 331 -9 358 -4 q 274 -14 304 -14 q 254 -12 260 -14 l 254 -306 l 81 -306 l 81 750 z "},"₦":{"ha":1167,"x_min":54,"x_max":1113,"o":"m 54 715 l 186 715 l 186 1028 l 338 1028 l 546 715 l 824 715 l 824 1028 l 983 1028 l 983 715 l 1113 715 l 1113 614 l 983 614 l 983 413 l 1113 413 l 1113 311 l 983 311 l 983 0 l 832 0 l 624 311 l 344 311 l 344 0 l 186 0 l 186 311 l 54 311 l 54 413 l 186 413 l 186 614 l 54 614 l 54 715 m 344 413 l 557 413 l 422 614 l 344 614 l 344 413 m 747 413 l 824 413 l 824 614 l 613 614 l 747 413 m 344 715 l 365 715 l 356 732 l 344 732 l 344 715 m 824 297 l 824 311 l 804 311 l 813 297 l 824 297 z "},"₩":{"ha":1436,"x_min":61,"x_max":1376,"o":"m 61 707 l 143 707 l 67 1028 l 261 1028 l 326 707 l 553 707 l 631 1028 l 811 1028 l 885 707 l 1111 707 l 1179 1028 l 1371 1028 l 1292 707 l 1376 707 l 1376 607 l 1267 607 l 1217 406 l 1376 406 l 1376 304 l 1192 304 l 1117 0 l 896 0 l 821 304 l 610 304 l 533 0 l 313 0 l 239 304 l 61 304 l 61 406 l 215 406 l 167 607 l 61 607 l 61 707 m 388 406 l 479 406 l 528 607 l 347 607 l 388 406 m 956 406 l 1046 406 l 1089 607 l 908 607 l 956 406 m 636 406 l 797 406 l 750 600 l 749 607 l 686 607 l 685 600 l 636 406 m 1010 208 l 1026 304 l 976 304 l 996 208 l 1010 208 m 436 208 l 457 304 l 407 304 l 424 208 l 436 208 m 701 707 l 735 707 l 724 783 l 713 783 l 701 707 z "},"₹":{"ha":815,"x_min":78,"x_max":785,"o":"m 78 754 l 429 754 q 361 868 418 835 q 183 901 304 901 q 133 901 156 901 q 78 899 110 901 l 78 1028 l 785 1028 l 757 924 l 549 924 q 613 754 604 858 l 740 754 l 713 650 l 611 650 q 548 499 599 560 q 407 410 497 438 l 407 404 l 638 0 l 439 0 l 238 369 l 78 369 l 78 504 l 185 504 q 362 536 306 504 q 429 650 418 568 l 78 650 l 78 754 z "},"₺":{"ha":824,"x_min":53,"x_max":783,"o":"m 53 682 l 222 721 l 222 1028 l 406 1028 l 406 763 l 653 821 l 653 717 l 406 658 l 406 528 l 653 586 l 653 482 l 406 424 l 406 153 l 517 153 q 558 162 542 153 q 584 196 575 171 q 597 264 593 221 q 600 375 600 307 l 783 375 q 774 223 783 292 q 737 104 765 154 q 656 27 708 54 q 517 0 604 0 l 222 0 l 222 382 l 53 343 l 53 447 l 222 486 l 222 617 l 53 578 l 53 682 z "},"ℓ":{"ha":615,"x_min":38,"x_max":599,"o":"m 331 0 q 240 54 268 0 q 213 226 213 108 q 213 266 213 247 q 214 300 213 285 q 140 237 178 268 q 69 181 103 206 l 38 222 q 126 292 81 254 q 218 374 171 329 q 256 668 232 536 q 316 894 281 800 q 399 1039 351 988 q 504 1090 446 1090 q 577 1049 556 1090 q 599 938 599 1007 q 577 802 599 871 q 518 665 556 733 q 428 528 481 596 q 313 394 375 460 q 308 326 310 361 q 306 251 306 292 q 320 111 306 164 q 365 58 335 58 q 410 87 388 58 q 446 150 432 115 l 493 133 q 467 84 482 108 q 431 41 451 60 q 386 11 411 22 q 331 0 361 0 m 322 488 q 456 695 407 590 q 504 892 504 800 q 498 977 504 940 q 476 1024 492 1014 q 322 488 364 918 z "},"№":{"ha":1588,"x_min":114,"x_max":1549,"o":"m 1293 585 q 1345 592 1324 585 q 1381 620 1367 600 q 1401 674 1394 640 q 1408 758 1408 707 q 1401 844 1408 810 q 1381 897 1394 878 q 1345 925 1367 917 q 1293 933 1324 933 q 1240 925 1263 933 q 1204 897 1218 917 q 1184 844 1190 878 q 1178 758 1178 810 q 1184 674 1178 707 q 1204 620 1190 640 q 1240 592 1218 600 q 1293 585 1263 585 m 1293 479 q 1104 548 1171 479 q 1038 758 1038 617 q 1104 969 1038 900 q 1293 1038 1171 1038 q 1482 969 1415 1038 q 1549 758 1549 900 q 1482 548 1549 617 q 1293 479 1415 479 m 114 1028 l 265 1028 l 676 411 l 740 297 l 751 297 l 751 1028 l 911 1028 l 911 0 l 760 0 l 350 615 l 283 732 l 272 732 l 272 0 l 114 0 l 114 1028 z "},"∕":{"ha":526,"x_min":-3,"x_max":531,"o":"m 397 1028 l 531 1028 l 129 0 l -3 0 l 397 1028 z "},"∙":{"ha":333,"x_min":64,"x_max":269,"o":"m 165 278 q 64 376 64 278 q 165 475 64 475 q 269 376 269 475 q 165 278 269 278 z "},"ų":{"ha":768,"x_min":78,"x_max":688,"o":"m 269 -14 q 127 38 176 -14 q 78 188 78 89 l 78 750 l 253 750 l 253 240 q 272 158 253 182 q 339 133 292 133 q 421 149 379 133 q 513 196 463 164 l 513 750 l 688 750 l 688 -17 q 574 -87 608 -49 q 540 -158 540 -125 q 596 -201 540 -201 q 642 -197 617 -201 q 688 -185 667 -192 l 688 -289 q 636 -301 661 -297 q 583 -306 611 -306 q 422 -176 422 -306 q 540 0 422 -82 l 529 82 l 524 82 q 447 38 481 56 q 385 8 414 19 q 328 -9 356 -4 q 269 -14 300 -14 z "},"ů":{"ha":767,"x_min":76,"x_max":686,"o":"m 381 832 q 263 874 307 832 q 219 983 219 917 q 263 1093 219 1050 q 381 1136 307 1136 q 499 1093 456 1136 q 543 983 543 1050 q 499 874 543 917 q 381 832 454 832 m 381 903 q 440 925 419 903 q 461 983 461 947 q 440 1042 461 1019 q 381 1064 419 1064 q 323 1042 343 1064 q 303 983 303 1019 q 323 925 303 947 q 381 903 343 903 m 268 -14 q 126 38 175 -14 q 76 188 76 89 l 76 750 l 251 750 l 251 240 q 271 158 251 182 q 338 133 290 133 q 419 149 378 133 q 511 196 461 164 l 511 750 l 686 750 l 686 0 l 539 0 l 528 82 l 522 82 q 446 38 479 56 q 383 8 413 19 q 326 -9 354 -4 q 268 -14 299 -14 z "},"ũ":{"ha":767,"x_min":76,"x_max":686,"o":"m 268 -14 q 126 38 175 -14 q 76 188 76 89 l 76 750 l 251 750 l 251 240 q 271 158 251 182 q 338 133 290 133 q 419 149 378 133 q 511 196 461 164 l 511 750 l 686 750 l 686 0 l 539 0 l 528 82 l 522 82 q 446 38 479 56 q 383 8 413 19 q 326 -9 354 -4 q 268 -14 299 -14 m 122 919 q 206 1015 158 982 q 300 1047 254 1047 q 356 1037 329 1047 q 409 1013 383 1026 q 460 990 435 1000 q 514 979 486 979 q 565 992 542 979 q 613 1036 589 1006 l 654 992 q 572 894 619 926 q 476 863 524 863 q 421 873 447 863 q 368 896 394 883 q 315 919 342 908 q 263 929 289 929 q 161 875 210 929 l 122 919 z "},"v":{"ha":735,"x_min":13,"x_max":724,"o":"m 13 736 l 13 750 l 194 750 l 339 257 l 363 150 l 375 150 l 399 257 l 543 750 l 724 750 l 724 736 l 474 0 l 261 0 l 13 736 z "},"w":{"ha":1039,"x_min":25,"x_max":1015,"o":"m 25 744 l 25 750 l 189 750 l 281 279 l 297 181 l 310 181 l 329 279 l 438 750 l 603 750 l 711 279 l 732 181 l 744 181 l 761 279 l 851 750 l 1015 750 l 1015 744 l 844 0 l 647 0 l 539 457 l 526 539 l 514 539 l 500 457 l 393 0 l 197 0 l 25 744 z "},"ẃ":{"ha":1039,"x_min":25,"x_max":1015,"o":"m 457 858 l 551 1117 l 732 1117 l 582 847 l 457 858 m 25 744 l 25 750 l 189 750 l 281 279 l 297 181 l 310 181 l 329 279 l 438 750 l 603 750 l 711 279 l 732 181 l 744 181 l 761 279 l 851 750 l 1015 750 l 1015 744 l 844 0 l 647 0 l 539 457 l 526 539 l 514 539 l 500 457 l 393 0 l 197 0 l 25 744 z "}}}
